G04 #@! TF.GenerationSoftware,KiCad,Pcbnew,6.0.7-f9a2dced07~116~ubuntu20.04.1*
G04 #@! TF.CreationDate,2022-09-05T17:51:23+02:00*
G04 #@! TF.ProjectId,TaupunktLuefter,54617570-756e-46b7-944c-756566746572,1.5*
G04 #@! TF.SameCoordinates,Original*
G04 #@! TF.FileFunction,Legend,Bot*
G04 #@! TF.FilePolarity,Positive*
%FSLAX46Y46*%
G04 Gerber Fmt 4.6, Leading zero omitted, Abs format (unit mm)*
G04 Created by KiCad (PCBNEW 6.0.7-f9a2dced07~116~ubuntu20.04.1) date 2022-09-05 17:51:23*
%MOMM*%
%LPD*%
G01*
G04 APERTURE LIST*
%ADD10C,0.150000*%
%ADD11C,0.400000*%
%ADD12C,0.250000*%
%ADD13C,0.120000*%
G04 APERTURE END LIST*
D10*
X59972380Y-35512400D02*
X60060000Y-35470495D01*
X60191428Y-35470495D01*
X60322857Y-35512400D01*
X60410476Y-35596209D01*
X60454285Y-35680019D01*
X60498095Y-35847638D01*
X60498095Y-35973352D01*
X60454285Y-36140971D01*
X60410476Y-36224780D01*
X60322857Y-36308590D01*
X60191428Y-36350495D01*
X60103809Y-36350495D01*
X59972380Y-36308590D01*
X59928571Y-36266685D01*
X59928571Y-35973352D01*
X60103809Y-35973352D01*
X59534285Y-36350495D02*
X59534285Y-35763828D01*
X59534285Y-35931447D02*
X59490476Y-35847638D01*
X59446666Y-35805733D01*
X59359047Y-35763828D01*
X59271428Y-35763828D01*
X58833333Y-36350495D02*
X58920952Y-36308590D01*
X58964761Y-36266685D01*
X59008571Y-36182876D01*
X59008571Y-35931447D01*
X58964761Y-35847638D01*
X58920952Y-35805733D01*
X58833333Y-35763828D01*
X58701904Y-35763828D01*
X58614285Y-35805733D01*
X58570476Y-35847638D01*
X58526666Y-35931447D01*
X58526666Y-36182876D01*
X58570476Y-36266685D01*
X58614285Y-36308590D01*
X58701904Y-36350495D01*
X58833333Y-36350495D01*
X58000952Y-36350495D02*
X58088571Y-36308590D01*
X58132380Y-36266685D01*
X58176190Y-36182876D01*
X58176190Y-35931447D01*
X58132380Y-35847638D01*
X58088571Y-35805733D01*
X58000952Y-35763828D01*
X57869523Y-35763828D01*
X57781904Y-35805733D01*
X57738095Y-35847638D01*
X57694285Y-35931447D01*
X57694285Y-36182876D01*
X57738095Y-36266685D01*
X57781904Y-36308590D01*
X57869523Y-36350495D01*
X58000952Y-36350495D01*
X57300000Y-35763828D02*
X57300000Y-36643828D01*
X57300000Y-35805733D02*
X57212380Y-35763828D01*
X57037142Y-35763828D01*
X56949523Y-35805733D01*
X56905714Y-35847638D01*
X56861904Y-35931447D01*
X56861904Y-36182876D01*
X56905714Y-36266685D01*
X56949523Y-36308590D01*
X57037142Y-36350495D01*
X57212380Y-36350495D01*
X57300000Y-36308590D01*
X63652380Y-37767295D02*
X63652380Y-36887295D01*
X62513333Y-37767295D02*
X62513333Y-37180628D01*
X62513333Y-36887295D02*
X62557142Y-36929200D01*
X62513333Y-36971104D01*
X62469523Y-36929200D01*
X62513333Y-36887295D01*
X62513333Y-36971104D01*
X62075238Y-37767295D02*
X62075238Y-37180628D01*
X62075238Y-37264438D02*
X62031428Y-37222533D01*
X61943809Y-37180628D01*
X61812380Y-37180628D01*
X61724761Y-37222533D01*
X61680952Y-37306342D01*
X61680952Y-37767295D01*
X61680952Y-37306342D02*
X61637142Y-37222533D01*
X61549523Y-37180628D01*
X61418095Y-37180628D01*
X61330476Y-37222533D01*
X61286666Y-37306342D01*
X61286666Y-37767295D01*
X60848571Y-37180628D02*
X60848571Y-38060628D01*
X60848571Y-37222533D02*
X60760952Y-37180628D01*
X60585714Y-37180628D01*
X60498095Y-37222533D01*
X60454285Y-37264438D01*
X60410476Y-37348247D01*
X60410476Y-37599676D01*
X60454285Y-37683485D01*
X60498095Y-37725390D01*
X60585714Y-37767295D01*
X60760952Y-37767295D01*
X60848571Y-37725390D01*
X59884761Y-37767295D02*
X59972380Y-37725390D01*
X60016190Y-37641580D01*
X60016190Y-36887295D01*
X59402857Y-37767295D02*
X59490476Y-37725390D01*
X59534285Y-37683485D01*
X59578095Y-37599676D01*
X59578095Y-37348247D01*
X59534285Y-37264438D01*
X59490476Y-37222533D01*
X59402857Y-37180628D01*
X59271428Y-37180628D01*
X59183809Y-37222533D01*
X59140000Y-37264438D01*
X59096190Y-37348247D01*
X59096190Y-37599676D01*
X59140000Y-37683485D01*
X59183809Y-37725390D01*
X59271428Y-37767295D01*
X59402857Y-37767295D01*
X58701904Y-37767295D02*
X58701904Y-37180628D01*
X58701904Y-37348247D02*
X58658095Y-37264438D01*
X58614285Y-37222533D01*
X58526666Y-37180628D01*
X58439047Y-37180628D01*
X57781904Y-37725390D02*
X57869523Y-37767295D01*
X58044761Y-37767295D01*
X58132380Y-37725390D01*
X58176190Y-37641580D01*
X58176190Y-37306342D01*
X58132380Y-37222533D01*
X58044761Y-37180628D01*
X57869523Y-37180628D01*
X57781904Y-37222533D01*
X57738095Y-37306342D01*
X57738095Y-37390152D01*
X58176190Y-37473961D01*
X56774285Y-37180628D02*
X56423809Y-37180628D01*
X56642857Y-36887295D02*
X56642857Y-37641580D01*
X56599047Y-37725390D01*
X56511428Y-37767295D01*
X56423809Y-37767295D01*
X56117142Y-37767295D02*
X56117142Y-36887295D01*
X55722857Y-37767295D02*
X55722857Y-37306342D01*
X55766666Y-37222533D01*
X55854285Y-37180628D01*
X55985714Y-37180628D01*
X56073333Y-37222533D01*
X56117142Y-37264438D01*
X54934285Y-37725390D02*
X55021904Y-37767295D01*
X55197142Y-37767295D01*
X55284761Y-37725390D01*
X55328571Y-37641580D01*
X55328571Y-37306342D01*
X55284761Y-37222533D01*
X55197142Y-37180628D01*
X55021904Y-37180628D01*
X54934285Y-37222533D01*
X54890476Y-37306342D01*
X54890476Y-37390152D01*
X55328571Y-37473961D01*
X54145714Y-37725390D02*
X54233333Y-37767295D01*
X54408571Y-37767295D01*
X54496190Y-37725390D01*
X54540000Y-37641580D01*
X54540000Y-37306342D01*
X54496190Y-37222533D01*
X54408571Y-37180628D01*
X54233333Y-37180628D01*
X54145714Y-37222533D01*
X54101904Y-37306342D01*
X54101904Y-37390152D01*
X54540000Y-37473961D01*
X53663809Y-37725390D02*
X53663809Y-37767295D01*
X53707619Y-37851104D01*
X53751428Y-37893009D01*
X62600952Y-39184095D02*
X62600952Y-38597428D01*
X62600952Y-38681238D02*
X62557142Y-38639333D01*
X62469523Y-38597428D01*
X62338095Y-38597428D01*
X62250476Y-38639333D01*
X62206666Y-38723142D01*
X62206666Y-39184095D01*
X62206666Y-38723142D02*
X62162857Y-38639333D01*
X62075238Y-38597428D01*
X61943809Y-38597428D01*
X61856190Y-38639333D01*
X61812380Y-38723142D01*
X61812380Y-39184095D01*
X61461904Y-38597428D02*
X61242857Y-39184095D01*
X61023809Y-38597428D02*
X61242857Y-39184095D01*
X61330476Y-39393619D01*
X61374285Y-39435523D01*
X61461904Y-39477428D01*
X60103809Y-38597428D02*
X59753333Y-38597428D01*
X59972380Y-39184095D02*
X59972380Y-38429809D01*
X59928571Y-38346000D01*
X59840952Y-38304095D01*
X59753333Y-38304095D01*
X59315238Y-39184095D02*
X59402857Y-39142190D01*
X59446666Y-39100285D01*
X59490476Y-39016476D01*
X59490476Y-38765047D01*
X59446666Y-38681238D01*
X59402857Y-38639333D01*
X59315238Y-38597428D01*
X59183809Y-38597428D01*
X59096190Y-38639333D01*
X59052380Y-38681238D01*
X59008571Y-38765047D01*
X59008571Y-39016476D01*
X59052380Y-39100285D01*
X59096190Y-39142190D01*
X59183809Y-39184095D01*
X59315238Y-39184095D01*
X58482857Y-39184095D02*
X58570476Y-39142190D01*
X58614285Y-39100285D01*
X58658095Y-39016476D01*
X58658095Y-38765047D01*
X58614285Y-38681238D01*
X58570476Y-38639333D01*
X58482857Y-38597428D01*
X58351428Y-38597428D01*
X58263809Y-38639333D01*
X58220000Y-38681238D01*
X58176190Y-38765047D01*
X58176190Y-39016476D01*
X58220000Y-39100285D01*
X58263809Y-39142190D01*
X58351428Y-39184095D01*
X58482857Y-39184095D01*
X57781904Y-38597428D02*
X57781904Y-39184095D01*
X57781904Y-38681238D02*
X57738095Y-38639333D01*
X57650476Y-38597428D01*
X57519047Y-38597428D01*
X57431428Y-38639333D01*
X57387619Y-38723142D01*
X57387619Y-39184095D01*
X57080952Y-38597428D02*
X56730476Y-38597428D01*
X56949523Y-38304095D02*
X56949523Y-39058380D01*
X56905714Y-39142190D01*
X56818095Y-39184095D01*
X56730476Y-39184095D01*
X56423809Y-39184095D02*
X56423809Y-38597428D01*
X56423809Y-38304095D02*
X56467619Y-38346000D01*
X56423809Y-38387904D01*
X56380000Y-38346000D01*
X56423809Y-38304095D01*
X56423809Y-38387904D01*
X55985714Y-38597428D02*
X55985714Y-39184095D01*
X55985714Y-38681238D02*
X55941904Y-38639333D01*
X55854285Y-38597428D01*
X55722857Y-38597428D01*
X55635238Y-38639333D01*
X55591428Y-38723142D01*
X55591428Y-39184095D01*
X54759047Y-38597428D02*
X54759047Y-39309809D01*
X54802857Y-39393619D01*
X54846666Y-39435523D01*
X54934285Y-39477428D01*
X55065714Y-39477428D01*
X55153333Y-39435523D01*
X54759047Y-39142190D02*
X54846666Y-39184095D01*
X55021904Y-39184095D01*
X55109523Y-39142190D01*
X55153333Y-39100285D01*
X55197142Y-39016476D01*
X55197142Y-38765047D01*
X55153333Y-38681238D01*
X55109523Y-38639333D01*
X55021904Y-38597428D01*
X54846666Y-38597428D01*
X54759047Y-38639333D01*
X63564761Y-40014228D02*
X63214285Y-40014228D01*
X63433333Y-39720895D02*
X63433333Y-40475180D01*
X63389523Y-40558990D01*
X63301904Y-40600895D01*
X63214285Y-40600895D01*
X62513333Y-40014228D02*
X62513333Y-40600895D01*
X62907619Y-40014228D02*
X62907619Y-40475180D01*
X62863809Y-40558990D01*
X62776190Y-40600895D01*
X62644761Y-40600895D01*
X62557142Y-40558990D01*
X62513333Y-40517085D01*
X62075238Y-40600895D02*
X62075238Y-40014228D01*
X62075238Y-40181847D02*
X62031428Y-40098038D01*
X61987619Y-40056133D01*
X61900000Y-40014228D01*
X61812380Y-40014228D01*
X61374285Y-40600895D02*
X61461904Y-40558990D01*
X61505714Y-40475180D01*
X61505714Y-39720895D01*
X61023809Y-40600895D02*
X61023809Y-40014228D01*
X61023809Y-39720895D02*
X61067619Y-39762800D01*
X61023809Y-39804704D01*
X60980000Y-39762800D01*
X61023809Y-39720895D01*
X61023809Y-39804704D01*
X60585714Y-40014228D02*
X60585714Y-40600895D01*
X60585714Y-40098038D02*
X60541904Y-40056133D01*
X60454285Y-40014228D01*
X60322857Y-40014228D01*
X60235238Y-40056133D01*
X60191428Y-40139942D01*
X60191428Y-40600895D01*
X59359047Y-40014228D02*
X59359047Y-40726609D01*
X59402857Y-40810419D01*
X59446666Y-40852323D01*
X59534285Y-40894228D01*
X59665714Y-40894228D01*
X59753333Y-40852323D01*
X59359047Y-40558990D02*
X59446666Y-40600895D01*
X59621904Y-40600895D01*
X59709523Y-40558990D01*
X59753333Y-40517085D01*
X59797142Y-40433276D01*
X59797142Y-40181847D01*
X59753333Y-40098038D01*
X59709523Y-40056133D01*
X59621904Y-40014228D01*
X59446666Y-40014228D01*
X59359047Y-40056133D01*
X58526666Y-40600895D02*
X58526666Y-39720895D01*
X58526666Y-40558990D02*
X58614285Y-40600895D01*
X58789523Y-40600895D01*
X58877142Y-40558990D01*
X58920952Y-40517085D01*
X58964761Y-40433276D01*
X58964761Y-40181847D01*
X58920952Y-40098038D01*
X58877142Y-40056133D01*
X58789523Y-40014228D01*
X58614285Y-40014228D01*
X58526666Y-40056133D01*
X58088571Y-40600895D02*
X58088571Y-40014228D01*
X58088571Y-40181847D02*
X58044761Y-40098038D01*
X58000952Y-40056133D01*
X57913333Y-40014228D01*
X57825714Y-40014228D01*
X57387619Y-40600895D02*
X57475238Y-40558990D01*
X57519047Y-40517085D01*
X57562857Y-40433276D01*
X57562857Y-40181847D01*
X57519047Y-40098038D01*
X57475238Y-40056133D01*
X57387619Y-40014228D01*
X57256190Y-40014228D01*
X57168571Y-40056133D01*
X57124761Y-40098038D01*
X57080952Y-40181847D01*
X57080952Y-40433276D01*
X57124761Y-40517085D01*
X57168571Y-40558990D01*
X57256190Y-40600895D01*
X57387619Y-40600895D01*
X56686666Y-40600895D02*
X56686666Y-40014228D01*
X56686666Y-40098038D02*
X56642857Y-40056133D01*
X56555238Y-40014228D01*
X56423809Y-40014228D01*
X56336190Y-40056133D01*
X56292380Y-40139942D01*
X56292380Y-40600895D01*
X56292380Y-40139942D02*
X56248571Y-40056133D01*
X56160952Y-40014228D01*
X56029523Y-40014228D01*
X55941904Y-40056133D01*
X55898095Y-40139942D01*
X55898095Y-40600895D01*
X55109523Y-40558990D02*
X55197142Y-40600895D01*
X55372380Y-40600895D01*
X55460000Y-40558990D01*
X55503809Y-40475180D01*
X55503809Y-40139942D01*
X55460000Y-40056133D01*
X55372380Y-40014228D01*
X55197142Y-40014228D01*
X55109523Y-40056133D01*
X55065714Y-40139942D01*
X55065714Y-40223752D01*
X55503809Y-40307561D01*
X54715238Y-40558990D02*
X54627619Y-40600895D01*
X54452380Y-40600895D01*
X54364761Y-40558990D01*
X54320952Y-40475180D01*
X54320952Y-40433276D01*
X54364761Y-40349466D01*
X54452380Y-40307561D01*
X54583809Y-40307561D01*
X54671428Y-40265657D01*
X54715238Y-40181847D01*
X54715238Y-40139942D01*
X54671428Y-40056133D01*
X54583809Y-40014228D01*
X54452380Y-40014228D01*
X54364761Y-40056133D01*
X53926666Y-40517085D02*
X53882857Y-40558990D01*
X53926666Y-40600895D01*
X53970476Y-40558990D01*
X53926666Y-40517085D01*
X53926666Y-40600895D01*
X64024761Y-41766266D02*
X63586666Y-41766266D01*
X64112380Y-42017695D02*
X63805714Y-41137695D01*
X63499047Y-42017695D01*
X63192380Y-41431028D02*
X63192380Y-42017695D01*
X63192380Y-41514838D02*
X63148571Y-41472933D01*
X63060952Y-41431028D01*
X62929523Y-41431028D01*
X62841904Y-41472933D01*
X62798095Y-41556742D01*
X62798095Y-42017695D01*
X61965714Y-42017695D02*
X61965714Y-41137695D01*
X61965714Y-41975790D02*
X62053333Y-42017695D01*
X62228571Y-42017695D01*
X62316190Y-41975790D01*
X62360000Y-41933885D01*
X62403809Y-41850076D01*
X62403809Y-41598647D01*
X62360000Y-41514838D01*
X62316190Y-41472933D01*
X62228571Y-41431028D01*
X62053333Y-41431028D01*
X61965714Y-41472933D01*
X60826666Y-42017695D02*
X60826666Y-41137695D01*
X60432380Y-42017695D02*
X60432380Y-41556742D01*
X60476190Y-41472933D01*
X60563809Y-41431028D01*
X60695238Y-41431028D01*
X60782857Y-41472933D01*
X60826666Y-41514838D01*
X59862857Y-42017695D02*
X59950476Y-41975790D01*
X59994285Y-41933885D01*
X60038095Y-41850076D01*
X60038095Y-41598647D01*
X59994285Y-41514838D01*
X59950476Y-41472933D01*
X59862857Y-41431028D01*
X59731428Y-41431028D01*
X59643809Y-41472933D01*
X59600000Y-41514838D01*
X59556190Y-41598647D01*
X59556190Y-41850076D01*
X59600000Y-41933885D01*
X59643809Y-41975790D01*
X59731428Y-42017695D01*
X59862857Y-42017695D01*
X59030476Y-42017695D02*
X59118095Y-41975790D01*
X59161904Y-41933885D01*
X59205714Y-41850076D01*
X59205714Y-41598647D01*
X59161904Y-41514838D01*
X59118095Y-41472933D01*
X59030476Y-41431028D01*
X58899047Y-41431028D01*
X58811428Y-41472933D01*
X58767619Y-41514838D01*
X58723809Y-41598647D01*
X58723809Y-41850076D01*
X58767619Y-41933885D01*
X58811428Y-41975790D01*
X58899047Y-42017695D01*
X59030476Y-42017695D01*
X58329523Y-41431028D02*
X58329523Y-42311028D01*
X58329523Y-41472933D02*
X58241904Y-41431028D01*
X58066666Y-41431028D01*
X57979047Y-41472933D01*
X57935238Y-41514838D01*
X57891428Y-41598647D01*
X57891428Y-41850076D01*
X57935238Y-41933885D01*
X57979047Y-41975790D01*
X58066666Y-42017695D01*
X58241904Y-42017695D01*
X58329523Y-41975790D01*
X57628571Y-41431028D02*
X57278095Y-41431028D01*
X57497142Y-41137695D02*
X57497142Y-41891980D01*
X57453333Y-41975790D01*
X57365714Y-42017695D01*
X57278095Y-42017695D01*
X56971428Y-42017695D02*
X56971428Y-41431028D01*
X56971428Y-41137695D02*
X57015238Y-41179600D01*
X56971428Y-41221504D01*
X56927619Y-41179600D01*
X56971428Y-41137695D01*
X56971428Y-41221504D01*
X56401904Y-42017695D02*
X56489523Y-41975790D01*
X56533333Y-41933885D01*
X56577142Y-41850076D01*
X56577142Y-41598647D01*
X56533333Y-41514838D01*
X56489523Y-41472933D01*
X56401904Y-41431028D01*
X56270476Y-41431028D01*
X56182857Y-41472933D01*
X56139047Y-41514838D01*
X56095238Y-41598647D01*
X56095238Y-41850076D01*
X56139047Y-41933885D01*
X56182857Y-41975790D01*
X56270476Y-42017695D01*
X56401904Y-42017695D01*
X55306666Y-41431028D02*
X55306666Y-42017695D01*
X55700952Y-41431028D02*
X55700952Y-41891980D01*
X55657142Y-41975790D01*
X55569523Y-42017695D01*
X55438095Y-42017695D01*
X55350476Y-41975790D01*
X55306666Y-41933885D01*
X54912380Y-41975790D02*
X54824761Y-42017695D01*
X54649523Y-42017695D01*
X54561904Y-41975790D01*
X54518095Y-41891980D01*
X54518095Y-41850076D01*
X54561904Y-41766266D01*
X54649523Y-41724361D01*
X54780952Y-41724361D01*
X54868571Y-41682457D01*
X54912380Y-41598647D01*
X54912380Y-41556742D01*
X54868571Y-41472933D01*
X54780952Y-41431028D01*
X54649523Y-41431028D01*
X54561904Y-41472933D01*
X53992380Y-42017695D02*
X54080000Y-41975790D01*
X54123809Y-41891980D01*
X54123809Y-41137695D01*
X53729523Y-41431028D02*
X53510476Y-42017695D01*
X53291428Y-41431028D02*
X53510476Y-42017695D01*
X53598095Y-42227219D01*
X53641904Y-42269123D01*
X53729523Y-42311028D01*
X62009523Y-43434495D02*
X62009523Y-42554495D01*
X62009523Y-43392590D02*
X62097142Y-43434495D01*
X62272380Y-43434495D01*
X62360000Y-43392590D01*
X62403809Y-43350685D01*
X62447619Y-43266876D01*
X62447619Y-43015447D01*
X62403809Y-42931638D01*
X62360000Y-42889733D01*
X62272380Y-42847828D01*
X62097142Y-42847828D01*
X62009523Y-42889733D01*
X61571428Y-43434495D02*
X61571428Y-42847828D01*
X61571428Y-43015447D02*
X61527619Y-42931638D01*
X61483809Y-42889733D01*
X61396190Y-42847828D01*
X61308571Y-42847828D01*
X60607619Y-43434495D02*
X60607619Y-42973542D01*
X60651428Y-42889733D01*
X60739047Y-42847828D01*
X60914285Y-42847828D01*
X61001904Y-42889733D01*
X60607619Y-43392590D02*
X60695238Y-43434495D01*
X60914285Y-43434495D01*
X61001904Y-43392590D01*
X61045714Y-43308780D01*
X61045714Y-43224971D01*
X61001904Y-43141161D01*
X60914285Y-43099257D01*
X60695238Y-43099257D01*
X60607619Y-43057352D01*
X60169523Y-42847828D02*
X60169523Y-43434495D01*
X60169523Y-42931638D02*
X60125714Y-42889733D01*
X60038095Y-42847828D01*
X59906666Y-42847828D01*
X59819047Y-42889733D01*
X59775238Y-42973542D01*
X59775238Y-43434495D01*
X58942857Y-42847828D02*
X58942857Y-43560209D01*
X58986666Y-43644019D01*
X59030476Y-43685923D01*
X59118095Y-43727828D01*
X59249523Y-43727828D01*
X59337142Y-43685923D01*
X58942857Y-43392590D02*
X59030476Y-43434495D01*
X59205714Y-43434495D01*
X59293333Y-43392590D01*
X59337142Y-43350685D01*
X59380952Y-43266876D01*
X59380952Y-43015447D01*
X59337142Y-42931638D01*
X59293333Y-42889733D01*
X59205714Y-42847828D01*
X59030476Y-42847828D01*
X58942857Y-42889733D01*
X58373333Y-43434495D02*
X58460952Y-43392590D01*
X58504761Y-43308780D01*
X58504761Y-42554495D01*
X57672380Y-43392590D02*
X57760000Y-43434495D01*
X57935238Y-43434495D01*
X58022857Y-43392590D01*
X58066666Y-43308780D01*
X58066666Y-42973542D01*
X58022857Y-42889733D01*
X57935238Y-42847828D01*
X57760000Y-42847828D01*
X57672380Y-42889733D01*
X57628571Y-42973542D01*
X57628571Y-43057352D01*
X58066666Y-43141161D01*
X56533333Y-43434495D02*
X56533333Y-42847828D01*
X56533333Y-42931638D02*
X56489523Y-42889733D01*
X56401904Y-42847828D01*
X56270476Y-42847828D01*
X56182857Y-42889733D01*
X56139047Y-42973542D01*
X56139047Y-43434495D01*
X56139047Y-42973542D02*
X56095238Y-42889733D01*
X56007619Y-42847828D01*
X55876190Y-42847828D01*
X55788571Y-42889733D01*
X55744761Y-42973542D01*
X55744761Y-43434495D01*
X54956190Y-43392590D02*
X55043809Y-43434495D01*
X55219047Y-43434495D01*
X55306666Y-43392590D01*
X55350476Y-43308780D01*
X55350476Y-42973542D01*
X55306666Y-42889733D01*
X55219047Y-42847828D01*
X55043809Y-42847828D01*
X54956190Y-42889733D01*
X54912380Y-42973542D01*
X54912380Y-43057352D01*
X55350476Y-43141161D01*
X62557142Y-44264628D02*
X62381904Y-44851295D01*
X62206666Y-44432247D01*
X62031428Y-44851295D01*
X61856190Y-44264628D01*
X61505714Y-44851295D02*
X61505714Y-44264628D01*
X61505714Y-43971295D02*
X61549523Y-44013200D01*
X61505714Y-44055104D01*
X61461904Y-44013200D01*
X61505714Y-43971295D01*
X61505714Y-44055104D01*
X61199047Y-44264628D02*
X60848571Y-44264628D01*
X61067619Y-43971295D02*
X61067619Y-44725580D01*
X61023809Y-44809390D01*
X60936190Y-44851295D01*
X60848571Y-44851295D01*
X60541904Y-44851295D02*
X60541904Y-43971295D01*
X60147619Y-44851295D02*
X60147619Y-44390342D01*
X60191428Y-44306533D01*
X60279047Y-44264628D01*
X60410476Y-44264628D01*
X60498095Y-44306533D01*
X60541904Y-44348438D01*
X58614285Y-44809390D02*
X58701904Y-44851295D01*
X58877142Y-44851295D01*
X58964761Y-44809390D01*
X59008571Y-44767485D01*
X59052380Y-44683676D01*
X59052380Y-44432247D01*
X59008571Y-44348438D01*
X58964761Y-44306533D01*
X58877142Y-44264628D01*
X58701904Y-44264628D01*
X58614285Y-44306533D01*
X58220000Y-44851295D02*
X58220000Y-44264628D01*
X58220000Y-44432247D02*
X58176190Y-44348438D01*
X58132380Y-44306533D01*
X58044761Y-44264628D01*
X57957142Y-44264628D01*
X57650476Y-44851295D02*
X57650476Y-44264628D01*
X57650476Y-43971295D02*
X57694285Y-44013200D01*
X57650476Y-44055104D01*
X57606666Y-44013200D01*
X57650476Y-43971295D01*
X57650476Y-44055104D01*
X57212380Y-44264628D02*
X57212380Y-44851295D01*
X57212380Y-44348438D02*
X57168571Y-44306533D01*
X57080952Y-44264628D01*
X56949523Y-44264628D01*
X56861904Y-44306533D01*
X56818095Y-44390342D01*
X56818095Y-44851295D01*
X56380000Y-44851295D02*
X56380000Y-43971295D01*
X56292380Y-44516057D02*
X56029523Y-44851295D01*
X56029523Y-44264628D02*
X56380000Y-44599866D01*
X55503809Y-44851295D02*
X55591428Y-44809390D01*
X55635238Y-44725580D01*
X55635238Y-43971295D01*
X55240952Y-44264628D02*
X55021904Y-44851295D01*
X54802857Y-44264628D02*
X55021904Y-44851295D01*
X55109523Y-45060819D01*
X55153333Y-45102723D01*
X55240952Y-45144628D01*
X63389523Y-46268095D02*
X63389523Y-45388095D01*
X63389523Y-45723333D02*
X63301904Y-45681428D01*
X63126666Y-45681428D01*
X63039047Y-45723333D01*
X62995238Y-45765238D01*
X62951428Y-45849047D01*
X62951428Y-46100476D01*
X62995238Y-46184285D01*
X63039047Y-46226190D01*
X63126666Y-46268095D01*
X63301904Y-46268095D01*
X63389523Y-46226190D01*
X62557142Y-46268095D02*
X62557142Y-45681428D01*
X62557142Y-45388095D02*
X62600952Y-45430000D01*
X62557142Y-45471904D01*
X62513333Y-45430000D01*
X62557142Y-45388095D01*
X62557142Y-45471904D01*
X62119047Y-45681428D02*
X62119047Y-46268095D01*
X62119047Y-45765238D02*
X62075238Y-45723333D01*
X61987619Y-45681428D01*
X61856190Y-45681428D01*
X61768571Y-45723333D01*
X61724761Y-45807142D01*
X61724761Y-46268095D01*
X60892380Y-46268095D02*
X60892380Y-45388095D01*
X60892380Y-46226190D02*
X60980000Y-46268095D01*
X61155238Y-46268095D01*
X61242857Y-46226190D01*
X61286666Y-46184285D01*
X61330476Y-46100476D01*
X61330476Y-45849047D01*
X61286666Y-45765238D01*
X61242857Y-45723333D01*
X61155238Y-45681428D01*
X60980000Y-45681428D01*
X60892380Y-45723333D01*
X60322857Y-46268095D02*
X60410476Y-46226190D01*
X60454285Y-46142380D01*
X60454285Y-45388095D01*
X59621904Y-46226190D02*
X59709523Y-46268095D01*
X59884761Y-46268095D01*
X59972380Y-46226190D01*
X60016190Y-46142380D01*
X60016190Y-45807142D01*
X59972380Y-45723333D01*
X59884761Y-45681428D01*
X59709523Y-45681428D01*
X59621904Y-45723333D01*
X59578095Y-45807142D01*
X59578095Y-45890952D01*
X60016190Y-45974761D01*
X59271428Y-45681428D02*
X59096190Y-46268095D01*
X58920952Y-45849047D01*
X58745714Y-46268095D01*
X58570476Y-45681428D01*
X57825714Y-45681428D02*
X57825714Y-46268095D01*
X58220000Y-45681428D02*
X58220000Y-46142380D01*
X58176190Y-46226190D01*
X58088571Y-46268095D01*
X57957142Y-46268095D01*
X57869523Y-46226190D01*
X57825714Y-46184285D01*
X57387619Y-46268095D02*
X57387619Y-45681428D01*
X57387619Y-45849047D02*
X57343809Y-45765238D01*
X57300000Y-45723333D01*
X57212380Y-45681428D01*
X57124761Y-45681428D01*
X56423809Y-46268095D02*
X56423809Y-45388095D01*
X56423809Y-46226190D02*
X56511428Y-46268095D01*
X56686666Y-46268095D01*
X56774285Y-46226190D01*
X56818095Y-46184285D01*
X56861904Y-46100476D01*
X56861904Y-45849047D01*
X56818095Y-45765238D01*
X56774285Y-45723333D01*
X56686666Y-45681428D01*
X56511428Y-45681428D01*
X56423809Y-45723333D01*
X55854285Y-46268095D02*
X55941904Y-46226190D01*
X55985714Y-46142380D01*
X55985714Y-45388095D01*
X55153333Y-46226190D02*
X55240952Y-46268095D01*
X55416190Y-46268095D01*
X55503809Y-46226190D01*
X55547619Y-46142380D01*
X55547619Y-45807142D01*
X55503809Y-45723333D01*
X55416190Y-45681428D01*
X55240952Y-45681428D01*
X55153333Y-45723333D01*
X55109523Y-45807142D01*
X55109523Y-45890952D01*
X55547619Y-45974761D01*
X54759047Y-46226190D02*
X54671428Y-46268095D01*
X54496190Y-46268095D01*
X54408571Y-46226190D01*
X54364761Y-46142380D01*
X54364761Y-46100476D01*
X54408571Y-46016666D01*
X54496190Y-45974761D01*
X54627619Y-45974761D01*
X54715238Y-45932857D01*
X54759047Y-45849047D01*
X54759047Y-45807142D01*
X54715238Y-45723333D01*
X54627619Y-45681428D01*
X54496190Y-45681428D01*
X54408571Y-45723333D01*
X53926666Y-46226190D02*
X53926666Y-46268095D01*
X53970476Y-46351904D01*
X54014285Y-46393809D01*
X61155238Y-46804895D02*
X60980000Y-46804895D01*
X60892380Y-46846800D01*
X60804761Y-46930609D01*
X60760952Y-47098228D01*
X60760952Y-47391561D01*
X60804761Y-47559180D01*
X60892380Y-47642990D01*
X60980000Y-47684895D01*
X61155238Y-47684895D01*
X61242857Y-47642990D01*
X61330476Y-47559180D01*
X61374285Y-47391561D01*
X61374285Y-47098228D01*
X61330476Y-46930609D01*
X61242857Y-46846800D01*
X61155238Y-46804895D01*
X60366666Y-47684895D02*
X60366666Y-47098228D01*
X60366666Y-47265847D02*
X60322857Y-47182038D01*
X60279047Y-47140133D01*
X60191428Y-47098228D01*
X60103809Y-47098228D01*
X59096190Y-47684895D02*
X59096190Y-46804895D01*
X58044761Y-47098228D02*
X57869523Y-47684895D01*
X57694285Y-47265847D01*
X57519047Y-47684895D01*
X57343809Y-47098228D01*
X56993333Y-47684895D02*
X56993333Y-47098228D01*
X56993333Y-46804895D02*
X57037142Y-46846800D01*
X56993333Y-46888704D01*
X56949523Y-46846800D01*
X56993333Y-46804895D01*
X56993333Y-46888704D01*
X56423809Y-47684895D02*
X56511428Y-47642990D01*
X56555238Y-47559180D01*
X56555238Y-46804895D01*
X55941904Y-47684895D02*
X56029523Y-47642990D01*
X56073333Y-47559180D01*
X56073333Y-46804895D01*
X61790476Y-49101695D02*
X61790476Y-48515028D01*
X61790476Y-48682647D02*
X61746666Y-48598838D01*
X61702857Y-48556933D01*
X61615238Y-48515028D01*
X61527619Y-48515028D01*
X60870476Y-49059790D02*
X60958095Y-49101695D01*
X61133333Y-49101695D01*
X61220952Y-49059790D01*
X61264761Y-48975980D01*
X61264761Y-48640742D01*
X61220952Y-48556933D01*
X61133333Y-48515028D01*
X60958095Y-48515028D01*
X60870476Y-48556933D01*
X60826666Y-48640742D01*
X60826666Y-48724552D01*
X61264761Y-48808361D01*
X60432380Y-48515028D02*
X60432380Y-49101695D01*
X60432380Y-48598838D02*
X60388571Y-48556933D01*
X60300952Y-48515028D01*
X60169523Y-48515028D01*
X60081904Y-48556933D01*
X60038095Y-48640742D01*
X60038095Y-49101695D01*
X59205714Y-49101695D02*
X59205714Y-48221695D01*
X59205714Y-49059790D02*
X59293333Y-49101695D01*
X59468571Y-49101695D01*
X59556190Y-49059790D01*
X59600000Y-49017885D01*
X59643809Y-48934076D01*
X59643809Y-48682647D01*
X59600000Y-48598838D01*
X59556190Y-48556933D01*
X59468571Y-48515028D01*
X59293333Y-48515028D01*
X59205714Y-48556933D01*
X58198095Y-48515028D02*
X57847619Y-48515028D01*
X58066666Y-48221695D02*
X58066666Y-48975980D01*
X58022857Y-49059790D01*
X57935238Y-49101695D01*
X57847619Y-49101695D01*
X57540952Y-49101695D02*
X57540952Y-48221695D01*
X57146666Y-49101695D02*
X57146666Y-48640742D01*
X57190476Y-48556933D01*
X57278095Y-48515028D01*
X57409523Y-48515028D01*
X57497142Y-48556933D01*
X57540952Y-48598838D01*
X56358095Y-49059790D02*
X56445714Y-49101695D01*
X56620952Y-49101695D01*
X56708571Y-49059790D01*
X56752380Y-48975980D01*
X56752380Y-48640742D01*
X56708571Y-48556933D01*
X56620952Y-48515028D01*
X56445714Y-48515028D01*
X56358095Y-48556933D01*
X56314285Y-48640742D01*
X56314285Y-48724552D01*
X56752380Y-48808361D01*
X55569523Y-49059790D02*
X55657142Y-49101695D01*
X55832380Y-49101695D01*
X55920000Y-49059790D01*
X55963809Y-48975980D01*
X55963809Y-48640742D01*
X55920000Y-48556933D01*
X55832380Y-48515028D01*
X55657142Y-48515028D01*
X55569523Y-48556933D01*
X55525714Y-48640742D01*
X55525714Y-48724552D01*
X55963809Y-48808361D01*
X60520000Y-50518495D02*
X60520000Y-49931828D01*
X60520000Y-49638495D02*
X60563809Y-49680400D01*
X60520000Y-49722304D01*
X60476190Y-49680400D01*
X60520000Y-49638495D01*
X60520000Y-49722304D01*
X60081904Y-49931828D02*
X60081904Y-50518495D01*
X60081904Y-50015638D02*
X60038095Y-49973733D01*
X59950476Y-49931828D01*
X59819047Y-49931828D01*
X59731428Y-49973733D01*
X59687619Y-50057542D01*
X59687619Y-50518495D01*
X58680000Y-49931828D02*
X58329523Y-49931828D01*
X58548571Y-49638495D02*
X58548571Y-50392780D01*
X58504761Y-50476590D01*
X58417142Y-50518495D01*
X58329523Y-50518495D01*
X58022857Y-50518495D02*
X58022857Y-49638495D01*
X57628571Y-50518495D02*
X57628571Y-50057542D01*
X57672380Y-49973733D01*
X57760000Y-49931828D01*
X57891428Y-49931828D01*
X57979047Y-49973733D01*
X58022857Y-50015638D01*
X56840000Y-50476590D02*
X56927619Y-50518495D01*
X57102857Y-50518495D01*
X57190476Y-50476590D01*
X57234285Y-50392780D01*
X57234285Y-50057542D01*
X57190476Y-49973733D01*
X57102857Y-49931828D01*
X56927619Y-49931828D01*
X56840000Y-49973733D01*
X56796190Y-50057542D01*
X56796190Y-50141352D01*
X57234285Y-50225161D01*
X62228571Y-51348628D02*
X62228571Y-52061009D01*
X62272380Y-52144819D01*
X62316190Y-52186723D01*
X62403809Y-52228628D01*
X62535238Y-52228628D01*
X62622857Y-52186723D01*
X62228571Y-51893390D02*
X62316190Y-51935295D01*
X62491428Y-51935295D01*
X62579047Y-51893390D01*
X62622857Y-51851485D01*
X62666666Y-51767676D01*
X62666666Y-51516247D01*
X62622857Y-51432438D01*
X62579047Y-51390533D01*
X62491428Y-51348628D01*
X62316190Y-51348628D01*
X62228571Y-51390533D01*
X61659047Y-51935295D02*
X61746666Y-51893390D01*
X61790476Y-51851485D01*
X61834285Y-51767676D01*
X61834285Y-51516247D01*
X61790476Y-51432438D01*
X61746666Y-51390533D01*
X61659047Y-51348628D01*
X61527619Y-51348628D01*
X61440000Y-51390533D01*
X61396190Y-51432438D01*
X61352380Y-51516247D01*
X61352380Y-51767676D01*
X61396190Y-51851485D01*
X61440000Y-51893390D01*
X61527619Y-51935295D01*
X61659047Y-51935295D01*
X60958095Y-51935295D02*
X60958095Y-51055295D01*
X60958095Y-51390533D02*
X60870476Y-51348628D01*
X60695238Y-51348628D01*
X60607619Y-51390533D01*
X60563809Y-51432438D01*
X60520000Y-51516247D01*
X60520000Y-51767676D01*
X60563809Y-51851485D01*
X60607619Y-51893390D01*
X60695238Y-51935295D01*
X60870476Y-51935295D01*
X60958095Y-51893390D01*
X60125714Y-51935295D02*
X60125714Y-51055295D01*
X60125714Y-51390533D02*
X60038095Y-51348628D01*
X59862857Y-51348628D01*
X59775238Y-51390533D01*
X59731428Y-51432438D01*
X59687619Y-51516247D01*
X59687619Y-51767676D01*
X59731428Y-51851485D01*
X59775238Y-51893390D01*
X59862857Y-51935295D01*
X60038095Y-51935295D01*
X60125714Y-51893390D01*
X58942857Y-51893390D02*
X59030476Y-51935295D01*
X59205714Y-51935295D01*
X59293333Y-51893390D01*
X59337142Y-51809580D01*
X59337142Y-51474342D01*
X59293333Y-51390533D01*
X59205714Y-51348628D01*
X59030476Y-51348628D01*
X58942857Y-51390533D01*
X58899047Y-51474342D01*
X58899047Y-51558152D01*
X59337142Y-51641961D01*
X58504761Y-51935295D02*
X58504761Y-51348628D01*
X58504761Y-51516247D02*
X58460952Y-51432438D01*
X58417142Y-51390533D01*
X58329523Y-51348628D01*
X58241904Y-51348628D01*
X58022857Y-51348628D02*
X57847619Y-51935295D01*
X57672380Y-51516247D01*
X57497142Y-51935295D01*
X57321904Y-51348628D01*
X56577142Y-51935295D02*
X56577142Y-51474342D01*
X56620952Y-51390533D01*
X56708571Y-51348628D01*
X56883809Y-51348628D01*
X56971428Y-51390533D01*
X56577142Y-51893390D02*
X56664761Y-51935295D01*
X56883809Y-51935295D01*
X56971428Y-51893390D01*
X57015238Y-51809580D01*
X57015238Y-51725771D01*
X56971428Y-51641961D01*
X56883809Y-51600057D01*
X56664761Y-51600057D01*
X56577142Y-51558152D01*
X56139047Y-51935295D02*
X56139047Y-51348628D01*
X56139047Y-51516247D02*
X56095238Y-51432438D01*
X56051428Y-51390533D01*
X55963809Y-51348628D01*
X55876190Y-51348628D01*
X55700952Y-51348628D02*
X55350476Y-51348628D01*
X55569523Y-51055295D02*
X55569523Y-51809580D01*
X55525714Y-51893390D01*
X55438095Y-51935295D01*
X55350476Y-51935295D01*
X55087619Y-51893390D02*
X55000000Y-51935295D01*
X54824761Y-51935295D01*
X54737142Y-51893390D01*
X54693333Y-51809580D01*
X54693333Y-51767676D01*
X54737142Y-51683866D01*
X54824761Y-51641961D01*
X54956190Y-51641961D01*
X55043809Y-51600057D01*
X55087619Y-51516247D01*
X55087619Y-51474342D01*
X55043809Y-51390533D01*
X54956190Y-51348628D01*
X54824761Y-51348628D01*
X54737142Y-51390533D01*
X61242857Y-52765428D02*
X61067619Y-53352095D01*
X60892380Y-52933047D01*
X60717142Y-53352095D01*
X60541904Y-52765428D01*
X60191428Y-53352095D02*
X60191428Y-52765428D01*
X60191428Y-52472095D02*
X60235238Y-52514000D01*
X60191428Y-52555904D01*
X60147619Y-52514000D01*
X60191428Y-52472095D01*
X60191428Y-52555904D01*
X59884761Y-52765428D02*
X59534285Y-52765428D01*
X59753333Y-52472095D02*
X59753333Y-53226380D01*
X59709523Y-53310190D01*
X59621904Y-53352095D01*
X59534285Y-53352095D01*
X59227619Y-53352095D02*
X59227619Y-52472095D01*
X58833333Y-53352095D02*
X58833333Y-52891142D01*
X58877142Y-52807333D01*
X58964761Y-52765428D01*
X59096190Y-52765428D01*
X59183809Y-52807333D01*
X59227619Y-52849238D01*
X57694285Y-53352095D02*
X57694285Y-52765428D01*
X57694285Y-52849238D02*
X57650476Y-52807333D01*
X57562857Y-52765428D01*
X57431428Y-52765428D01*
X57343809Y-52807333D01*
X57300000Y-52891142D01*
X57300000Y-53352095D01*
X57300000Y-52891142D02*
X57256190Y-52807333D01*
X57168571Y-52765428D01*
X57037142Y-52765428D01*
X56949523Y-52807333D01*
X56905714Y-52891142D01*
X56905714Y-53352095D01*
X56555238Y-52765428D02*
X56336190Y-53352095D01*
X56117142Y-52765428D02*
X56336190Y-53352095D01*
X56423809Y-53561619D01*
X56467619Y-53603523D01*
X56555238Y-53645428D01*
X64638095Y-54768895D02*
X64638095Y-53888895D01*
X64638095Y-54224133D02*
X64550476Y-54182228D01*
X64375238Y-54182228D01*
X64287619Y-54224133D01*
X64243809Y-54266038D01*
X64200000Y-54349847D01*
X64200000Y-54601276D01*
X64243809Y-54685085D01*
X64287619Y-54726990D01*
X64375238Y-54768895D01*
X64550476Y-54768895D01*
X64638095Y-54726990D01*
X63674285Y-54768895D02*
X63761904Y-54726990D01*
X63805714Y-54643180D01*
X63805714Y-53888895D01*
X62929523Y-54182228D02*
X62929523Y-54768895D01*
X63323809Y-54182228D02*
X63323809Y-54643180D01*
X63280000Y-54726990D01*
X63192380Y-54768895D01*
X63060952Y-54768895D01*
X62973333Y-54726990D01*
X62929523Y-54685085D01*
X62491428Y-54768895D02*
X62491428Y-54182228D01*
X62491428Y-54349847D02*
X62447619Y-54266038D01*
X62403809Y-54224133D01*
X62316190Y-54182228D01*
X62228571Y-54182228D01*
X61527619Y-54182228D02*
X61527619Y-54894609D01*
X61571428Y-54978419D01*
X61615238Y-55020323D01*
X61702857Y-55062228D01*
X61834285Y-55062228D01*
X61921904Y-55020323D01*
X61527619Y-54726990D02*
X61615238Y-54768895D01*
X61790476Y-54768895D01*
X61878095Y-54726990D01*
X61921904Y-54685085D01*
X61965714Y-54601276D01*
X61965714Y-54349847D01*
X61921904Y-54266038D01*
X61878095Y-54224133D01*
X61790476Y-54182228D01*
X61615238Y-54182228D01*
X61527619Y-54224133D01*
X60958095Y-54768895D02*
X61045714Y-54726990D01*
X61089523Y-54643180D01*
X61089523Y-53888895D01*
X60257142Y-54726990D02*
X60344761Y-54768895D01*
X60520000Y-54768895D01*
X60607619Y-54726990D01*
X60651428Y-54643180D01*
X60651428Y-54307942D01*
X60607619Y-54224133D01*
X60520000Y-54182228D01*
X60344761Y-54182228D01*
X60257142Y-54224133D01*
X60213333Y-54307942D01*
X60213333Y-54391752D01*
X60651428Y-54475561D01*
X59424761Y-54726990D02*
X59512380Y-54768895D01*
X59687619Y-54768895D01*
X59775238Y-54726990D01*
X59819047Y-54685085D01*
X59862857Y-54601276D01*
X59862857Y-54349847D01*
X59819047Y-54266038D01*
X59775238Y-54224133D01*
X59687619Y-54182228D01*
X59512380Y-54182228D01*
X59424761Y-54224133D01*
X59030476Y-54768895D02*
X59030476Y-54182228D01*
X59030476Y-54349847D02*
X58986666Y-54266038D01*
X58942857Y-54224133D01*
X58855238Y-54182228D01*
X58767619Y-54182228D01*
X58066666Y-54182228D02*
X58066666Y-54768895D01*
X58460952Y-54182228D02*
X58460952Y-54643180D01*
X58417142Y-54726990D01*
X58329523Y-54768895D01*
X58198095Y-54768895D01*
X58110476Y-54726990D01*
X58066666Y-54685085D01*
X57628571Y-54182228D02*
X57628571Y-54768895D01*
X57628571Y-54266038D02*
X57584761Y-54224133D01*
X57497142Y-54182228D01*
X57365714Y-54182228D01*
X57278095Y-54224133D01*
X57234285Y-54307942D01*
X57234285Y-54768895D01*
X56401904Y-54726990D02*
X56489523Y-54768895D01*
X56664761Y-54768895D01*
X56752380Y-54726990D01*
X56796190Y-54685085D01*
X56840000Y-54601276D01*
X56840000Y-54349847D01*
X56796190Y-54266038D01*
X56752380Y-54224133D01*
X56664761Y-54182228D01*
X56489523Y-54182228D01*
X56401904Y-54224133D01*
X56007619Y-54768895D02*
X56007619Y-53888895D01*
X55613333Y-54768895D02*
X55613333Y-54307942D01*
X55657142Y-54224133D01*
X55744761Y-54182228D01*
X55876190Y-54182228D01*
X55963809Y-54224133D01*
X56007619Y-54266038D01*
X54824761Y-54726990D02*
X54912380Y-54768895D01*
X55087619Y-54768895D01*
X55175238Y-54726990D01*
X55219047Y-54643180D01*
X55219047Y-54307942D01*
X55175238Y-54224133D01*
X55087619Y-54182228D01*
X54912380Y-54182228D01*
X54824761Y-54224133D01*
X54780952Y-54307942D01*
X54780952Y-54391752D01*
X55219047Y-54475561D01*
X54255238Y-54768895D02*
X54342857Y-54726990D01*
X54386666Y-54685085D01*
X54430476Y-54601276D01*
X54430476Y-54349847D01*
X54386666Y-54266038D01*
X54342857Y-54224133D01*
X54255238Y-54182228D01*
X54123809Y-54182228D01*
X54036190Y-54224133D01*
X53992380Y-54266038D01*
X53948571Y-54349847D01*
X53948571Y-54601276D01*
X53992380Y-54685085D01*
X54036190Y-54726990D01*
X54123809Y-54768895D01*
X54255238Y-54768895D01*
X53554285Y-54182228D02*
X53554285Y-54768895D01*
X53554285Y-54266038D02*
X53510476Y-54224133D01*
X53422857Y-54182228D01*
X53291428Y-54182228D01*
X53203809Y-54224133D01*
X53160000Y-54307942D01*
X53160000Y-54768895D01*
X52678095Y-54726990D02*
X52678095Y-54768895D01*
X52721904Y-54852704D01*
X52765714Y-54894609D01*
X63367619Y-56143790D02*
X63280000Y-56185695D01*
X63104761Y-56185695D01*
X63017142Y-56143790D01*
X62973333Y-56059980D01*
X62973333Y-56018076D01*
X63017142Y-55934266D01*
X63104761Y-55892361D01*
X63236190Y-55892361D01*
X63323809Y-55850457D01*
X63367619Y-55766647D01*
X63367619Y-55724742D01*
X63323809Y-55640933D01*
X63236190Y-55599028D01*
X63104761Y-55599028D01*
X63017142Y-55640933D01*
X62228571Y-56143790D02*
X62316190Y-56185695D01*
X62491428Y-56185695D01*
X62579047Y-56143790D01*
X62622857Y-56059980D01*
X62622857Y-55724742D01*
X62579047Y-55640933D01*
X62491428Y-55599028D01*
X62316190Y-55599028D01*
X62228571Y-55640933D01*
X62184761Y-55724742D01*
X62184761Y-55808552D01*
X62622857Y-55892361D01*
X61440000Y-56143790D02*
X61527619Y-56185695D01*
X61702857Y-56185695D01*
X61790476Y-56143790D01*
X61834285Y-56059980D01*
X61834285Y-55724742D01*
X61790476Y-55640933D01*
X61702857Y-55599028D01*
X61527619Y-55599028D01*
X61440000Y-55640933D01*
X61396190Y-55724742D01*
X61396190Y-55808552D01*
X61834285Y-55892361D01*
X60300952Y-56185695D02*
X60300952Y-55599028D01*
X60300952Y-55305695D02*
X60344761Y-55347600D01*
X60300952Y-55389504D01*
X60257142Y-55347600D01*
X60300952Y-55305695D01*
X60300952Y-55389504D01*
X59994285Y-55599028D02*
X59643809Y-55599028D01*
X59862857Y-56185695D02*
X59862857Y-55431409D01*
X59819047Y-55347600D01*
X59731428Y-55305695D01*
X59643809Y-55305695D01*
X58636190Y-56185695D02*
X58636190Y-55305695D01*
X57102857Y-56185695D02*
X57102857Y-55305695D01*
X57102857Y-56143790D02*
X57190476Y-56185695D01*
X57365714Y-56185695D01*
X57453333Y-56143790D01*
X57497142Y-56101885D01*
X57540952Y-56018076D01*
X57540952Y-55766647D01*
X57497142Y-55682838D01*
X57453333Y-55640933D01*
X57365714Y-55599028D01*
X57190476Y-55599028D01*
X57102857Y-55640933D01*
X56533333Y-56185695D02*
X56620952Y-56143790D01*
X56664761Y-56101885D01*
X56708571Y-56018076D01*
X56708571Y-55766647D01*
X56664761Y-55682838D01*
X56620952Y-55640933D01*
X56533333Y-55599028D01*
X56401904Y-55599028D01*
X56314285Y-55640933D01*
X56270476Y-55682838D01*
X56226666Y-55766647D01*
X56226666Y-56018076D01*
X56270476Y-56101885D01*
X56314285Y-56143790D01*
X56401904Y-56185695D01*
X56533333Y-56185695D01*
X55832380Y-55599028D02*
X55832380Y-56185695D01*
X55832380Y-55682838D02*
X55788571Y-55640933D01*
X55700952Y-55599028D01*
X55569523Y-55599028D01*
X55481904Y-55640933D01*
X55438095Y-55724742D01*
X55438095Y-56185695D01*
X54956190Y-55305695D02*
X55043809Y-55473314D01*
X54693333Y-55599028D02*
X54342857Y-55599028D01*
X54561904Y-55305695D02*
X54561904Y-56059980D01*
X54518095Y-56143790D01*
X54430476Y-56185695D01*
X54342857Y-56185695D01*
X54036190Y-56101885D02*
X53992380Y-56143790D01*
X54036190Y-56185695D01*
X54080000Y-56143790D01*
X54036190Y-56101885D01*
X54036190Y-56185695D01*
X54036190Y-55850457D02*
X54080000Y-55347600D01*
X54036190Y-55305695D01*
X53992380Y-55347600D01*
X54036190Y-55850457D01*
X54036190Y-55305695D01*
D11*
X102877142Y-60539142D02*
X102877142Y-57539142D01*
X101734285Y-57539142D01*
X101448571Y-57682000D01*
X101305714Y-57824857D01*
X101162857Y-58110571D01*
X101162857Y-58539142D01*
X101305714Y-58824857D01*
X101448571Y-58967714D01*
X101734285Y-59110571D01*
X102877142Y-59110571D01*
X99877142Y-57539142D02*
X99877142Y-59967714D01*
X99734285Y-60253428D01*
X99591428Y-60396285D01*
X99305714Y-60539142D01*
X98734285Y-60539142D01*
X98448571Y-60396285D01*
X98305714Y-60253428D01*
X98162857Y-59967714D01*
X98162857Y-57539142D01*
X95305714Y-60539142D02*
X96734285Y-60539142D01*
X96734285Y-57539142D01*
X94448571Y-60396285D02*
X94020000Y-60539142D01*
X93305714Y-60539142D01*
X93020000Y-60396285D01*
X92877142Y-60253428D01*
X92734285Y-59967714D01*
X92734285Y-59682000D01*
X92877142Y-59396285D01*
X93020000Y-59253428D01*
X93305714Y-59110571D01*
X93877142Y-58967714D01*
X94162857Y-58824857D01*
X94305714Y-58682000D01*
X94448571Y-58396285D01*
X94448571Y-58110571D01*
X94305714Y-57824857D01*
X94162857Y-57682000D01*
X93877142Y-57539142D01*
X93162857Y-57539142D01*
X92734285Y-57682000D01*
X91448571Y-58967714D02*
X90448571Y-58967714D01*
X90020000Y-60539142D02*
X91448571Y-60539142D01*
X91448571Y-57539142D01*
X90020000Y-57539142D01*
D12*
X103710000Y-18681333D02*
X103043333Y-18681333D01*
X103843333Y-19081333D02*
X103376666Y-17681333D01*
X102910000Y-19081333D01*
X102443333Y-19081333D02*
X102443333Y-18148000D01*
X102443333Y-18414666D02*
X102376666Y-18281333D01*
X102310000Y-18214666D01*
X102176666Y-18148000D01*
X102043333Y-18148000D01*
X100976666Y-19081333D02*
X100976666Y-17681333D01*
X100976666Y-19014666D02*
X101110000Y-19081333D01*
X101376666Y-19081333D01*
X101510000Y-19014666D01*
X101576666Y-18948000D01*
X101643333Y-18814666D01*
X101643333Y-18414666D01*
X101576666Y-18281333D01*
X101510000Y-18214666D01*
X101376666Y-18148000D01*
X101110000Y-18148000D01*
X100976666Y-18214666D01*
X99710000Y-18148000D02*
X99710000Y-19081333D01*
X100310000Y-18148000D02*
X100310000Y-18881333D01*
X100243333Y-19014666D01*
X100110000Y-19081333D01*
X99910000Y-19081333D01*
X99776666Y-19014666D01*
X99710000Y-18948000D01*
X99043333Y-19081333D02*
X99043333Y-18148000D01*
X99043333Y-17681333D02*
X99110000Y-17748000D01*
X99043333Y-17814666D01*
X98976666Y-17748000D01*
X99043333Y-17681333D01*
X99043333Y-17814666D01*
X98376666Y-18148000D02*
X98376666Y-19081333D01*
X98376666Y-18281333D02*
X98310000Y-18214666D01*
X98176666Y-18148000D01*
X97976666Y-18148000D01*
X97843333Y-18214666D01*
X97776666Y-18348000D01*
X97776666Y-19081333D01*
X96910000Y-19081333D02*
X97043333Y-19014666D01*
X97110000Y-18948000D01*
X97176666Y-18814666D01*
X97176666Y-18414666D01*
X97110000Y-18281333D01*
X97043333Y-18214666D01*
X96910000Y-18148000D01*
X96710000Y-18148000D01*
X96576666Y-18214666D01*
X96510000Y-18281333D01*
X96443333Y-18414666D01*
X96443333Y-18814666D01*
X96510000Y-18948000D01*
X96576666Y-19014666D01*
X96710000Y-19081333D01*
X96910000Y-19081333D01*
X94776666Y-19081333D02*
X94776666Y-17681333D01*
X93976666Y-19081333D01*
X93976666Y-17681333D01*
X92710000Y-19081333D02*
X92710000Y-18348000D01*
X92776666Y-18214666D01*
X92910000Y-18148000D01*
X93176666Y-18148000D01*
X93310000Y-18214666D01*
X92710000Y-19014666D02*
X92843333Y-19081333D01*
X93176666Y-19081333D01*
X93310000Y-19014666D01*
X93376666Y-18881333D01*
X93376666Y-18748000D01*
X93310000Y-18614666D01*
X93176666Y-18548000D01*
X92843333Y-18548000D01*
X92710000Y-18481333D01*
X92043333Y-18148000D02*
X92043333Y-19081333D01*
X92043333Y-18281333D02*
X91976666Y-18214666D01*
X91843333Y-18148000D01*
X91643333Y-18148000D01*
X91510000Y-18214666D01*
X91443333Y-18348000D01*
X91443333Y-19081333D01*
X90576666Y-19081333D02*
X90710000Y-19014666D01*
X90776666Y-18948000D01*
X90843333Y-18814666D01*
X90843333Y-18414666D01*
X90776666Y-18281333D01*
X90710000Y-18214666D01*
X90576666Y-18148000D01*
X90376666Y-18148000D01*
X90243333Y-18214666D01*
X90176666Y-18281333D01*
X90110000Y-18414666D01*
X90110000Y-18814666D01*
X90176666Y-18948000D01*
X90243333Y-19014666D01*
X90376666Y-19081333D01*
X90576666Y-19081333D01*
X104976666Y-19935333D02*
X104976666Y-21068666D01*
X104910000Y-21202000D01*
X104843333Y-21268666D01*
X104710000Y-21335333D01*
X104443333Y-21335333D01*
X104310000Y-21268666D01*
X104243333Y-21202000D01*
X104176666Y-21068666D01*
X104176666Y-19935333D01*
X103510000Y-20402000D02*
X103510000Y-21335333D01*
X103510000Y-20535333D02*
X103443333Y-20468666D01*
X103310000Y-20402000D01*
X103110000Y-20402000D01*
X102976666Y-20468666D01*
X102910000Y-20602000D01*
X102910000Y-21335333D01*
X102243333Y-21335333D02*
X102243333Y-20402000D01*
X102243333Y-19935333D02*
X102310000Y-20002000D01*
X102243333Y-20068666D01*
X102176666Y-20002000D01*
X102243333Y-19935333D01*
X102243333Y-20068666D01*
X101710000Y-20402000D02*
X101376666Y-21335333D01*
X101043333Y-20402000D01*
X99976666Y-21268666D02*
X100110000Y-21335333D01*
X100376666Y-21335333D01*
X100510000Y-21268666D01*
X100576666Y-21135333D01*
X100576666Y-20602000D01*
X100510000Y-20468666D01*
X100376666Y-20402000D01*
X100110000Y-20402000D01*
X99976666Y-20468666D01*
X99910000Y-20602000D01*
X99910000Y-20735333D01*
X100576666Y-20868666D01*
X99310000Y-21335333D02*
X99310000Y-20402000D01*
X99310000Y-20668666D02*
X99243333Y-20535333D01*
X99176666Y-20468666D01*
X99043333Y-20402000D01*
X98910000Y-20402000D01*
X98510000Y-21268666D02*
X98376666Y-21335333D01*
X98110000Y-21335333D01*
X97976666Y-21268666D01*
X97910000Y-21135333D01*
X97910000Y-21068666D01*
X97976666Y-20935333D01*
X98110000Y-20868666D01*
X98310000Y-20868666D01*
X98443333Y-20802000D01*
X98510000Y-20668666D01*
X98510000Y-20602000D01*
X98443333Y-20468666D01*
X98310000Y-20402000D01*
X98110000Y-20402000D01*
X97976666Y-20468666D01*
X96710000Y-21335333D02*
X96710000Y-20602000D01*
X96776666Y-20468666D01*
X96910000Y-20402000D01*
X97176666Y-20402000D01*
X97310000Y-20468666D01*
X96710000Y-21268666D02*
X96843333Y-21335333D01*
X97176666Y-21335333D01*
X97310000Y-21268666D01*
X97376666Y-21135333D01*
X97376666Y-21002000D01*
X97310000Y-20868666D01*
X97176666Y-20802000D01*
X96843333Y-20802000D01*
X96710000Y-20735333D01*
X95843333Y-21335333D02*
X95976666Y-21268666D01*
X96043333Y-21135333D01*
X96043333Y-19935333D01*
X93776666Y-20602000D02*
X93576666Y-20668666D01*
X93510000Y-20735333D01*
X93443333Y-20868666D01*
X93443333Y-21068666D01*
X93510000Y-21202000D01*
X93576666Y-21268666D01*
X93710000Y-21335333D01*
X94243333Y-21335333D01*
X94243333Y-19935333D01*
X93776666Y-19935333D01*
X93643333Y-20002000D01*
X93576666Y-20068666D01*
X93510000Y-20202000D01*
X93510000Y-20335333D01*
X93576666Y-20468666D01*
X93643333Y-20535333D01*
X93776666Y-20602000D01*
X94243333Y-20602000D01*
X92643333Y-21335333D02*
X92776666Y-21268666D01*
X92843333Y-21202000D01*
X92910000Y-21068666D01*
X92910000Y-20668666D01*
X92843333Y-20535333D01*
X92776666Y-20468666D01*
X92643333Y-20402000D01*
X92443333Y-20402000D01*
X92310000Y-20468666D01*
X92243333Y-20535333D01*
X92176666Y-20668666D01*
X92176666Y-21068666D01*
X92243333Y-21202000D01*
X92310000Y-21268666D01*
X92443333Y-21335333D01*
X92643333Y-21335333D01*
X90976666Y-21335333D02*
X90976666Y-20602000D01*
X91043333Y-20468666D01*
X91176666Y-20402000D01*
X91443333Y-20402000D01*
X91576666Y-20468666D01*
X90976666Y-21268666D02*
X91110000Y-21335333D01*
X91443333Y-21335333D01*
X91576666Y-21268666D01*
X91643333Y-21135333D01*
X91643333Y-21002000D01*
X91576666Y-20868666D01*
X91443333Y-20802000D01*
X91110000Y-20802000D01*
X90976666Y-20735333D01*
X90310000Y-21335333D02*
X90310000Y-20402000D01*
X90310000Y-20668666D02*
X90243333Y-20535333D01*
X90176666Y-20468666D01*
X90043333Y-20402000D01*
X89910000Y-20402000D01*
X88843333Y-21335333D02*
X88843333Y-19935333D01*
X88843333Y-21268666D02*
X88976666Y-21335333D01*
X89243333Y-21335333D01*
X89376666Y-21268666D01*
X89443333Y-21202000D01*
X89510000Y-21068666D01*
X89510000Y-20668666D01*
X89443333Y-20535333D01*
X89376666Y-20468666D01*
X89243333Y-20402000D01*
X88976666Y-20402000D01*
X88843333Y-20468666D01*
X100143333Y-23589333D02*
X100610000Y-22922666D01*
X100943333Y-23589333D02*
X100943333Y-22189333D01*
X100410000Y-22189333D01*
X100276666Y-22256000D01*
X100210000Y-22322666D01*
X100143333Y-22456000D01*
X100143333Y-22656000D01*
X100210000Y-22789333D01*
X100276666Y-22856000D01*
X100410000Y-22922666D01*
X100943333Y-22922666D01*
X99010000Y-23522666D02*
X99143333Y-23589333D01*
X99410000Y-23589333D01*
X99543333Y-23522666D01*
X99610000Y-23389333D01*
X99610000Y-22856000D01*
X99543333Y-22722666D01*
X99410000Y-22656000D01*
X99143333Y-22656000D01*
X99010000Y-22722666D01*
X98943333Y-22856000D01*
X98943333Y-22989333D01*
X99610000Y-23122666D01*
X98476666Y-22656000D02*
X98143333Y-23589333D01*
X97810000Y-22656000D01*
X97276666Y-23456000D02*
X97210000Y-23522666D01*
X97276666Y-23589333D01*
X97343333Y-23522666D01*
X97276666Y-23456000D01*
X97276666Y-23589333D01*
X94810000Y-23589333D02*
X95610000Y-23589333D01*
X95210000Y-23589333D02*
X95210000Y-22189333D01*
X95343333Y-22389333D01*
X95476666Y-22522666D01*
X95610000Y-22589333D01*
X94210000Y-23456000D02*
X94143333Y-23522666D01*
X94210000Y-23589333D01*
X94276666Y-23522666D01*
X94210000Y-23456000D01*
X94210000Y-23589333D01*
X92876666Y-22189333D02*
X93543333Y-22189333D01*
X93610000Y-22856000D01*
X93543333Y-22789333D01*
X93410000Y-22722666D01*
X93076666Y-22722666D01*
X92943333Y-22789333D01*
X92876666Y-22856000D01*
X92810000Y-22989333D01*
X92810000Y-23322666D01*
X92876666Y-23456000D01*
X92943333Y-23522666D01*
X93076666Y-23589333D01*
X93410000Y-23589333D01*
X93543333Y-23522666D01*
X93610000Y-23456000D01*
X103143333Y-25110000D02*
X102943333Y-25176666D01*
X102876666Y-25243333D01*
X102810000Y-25376666D01*
X102810000Y-25576666D01*
X102876666Y-25710000D01*
X102943333Y-25776666D01*
X103076666Y-25843333D01*
X103610000Y-25843333D01*
X103610000Y-24443333D01*
X103143333Y-24443333D01*
X103010000Y-24510000D01*
X102943333Y-24576666D01*
X102876666Y-24710000D01*
X102876666Y-24843333D01*
X102943333Y-24976666D01*
X103010000Y-25043333D01*
X103143333Y-25110000D01*
X103610000Y-25110000D01*
X102010000Y-25843333D02*
X102143333Y-25776666D01*
X102210000Y-25710000D01*
X102276666Y-25576666D01*
X102276666Y-25176666D01*
X102210000Y-25043333D01*
X102143333Y-24976666D01*
X102010000Y-24910000D01*
X101810000Y-24910000D01*
X101676666Y-24976666D01*
X101610000Y-25043333D01*
X101543333Y-25176666D01*
X101543333Y-25576666D01*
X101610000Y-25710000D01*
X101676666Y-25776666D01*
X101810000Y-25843333D01*
X102010000Y-25843333D01*
X100343333Y-25843333D02*
X100343333Y-25110000D01*
X100410000Y-24976666D01*
X100543333Y-24910000D01*
X100810000Y-24910000D01*
X100943333Y-24976666D01*
X100343333Y-25776666D02*
X100476666Y-25843333D01*
X100810000Y-25843333D01*
X100943333Y-25776666D01*
X101010000Y-25643333D01*
X101010000Y-25510000D01*
X100943333Y-25376666D01*
X100810000Y-25310000D01*
X100476666Y-25310000D01*
X100343333Y-25243333D01*
X99676666Y-25843333D02*
X99676666Y-24910000D01*
X99676666Y-25176666D02*
X99610000Y-25043333D01*
X99543333Y-24976666D01*
X99410000Y-24910000D01*
X99276666Y-24910000D01*
X98210000Y-25843333D02*
X98210000Y-24443333D01*
X98210000Y-25776666D02*
X98343333Y-25843333D01*
X98610000Y-25843333D01*
X98743333Y-25776666D01*
X98810000Y-25710000D01*
X98876666Y-25576666D01*
X98876666Y-25176666D01*
X98810000Y-25043333D01*
X98743333Y-24976666D01*
X98610000Y-24910000D01*
X98343333Y-24910000D01*
X98210000Y-24976666D01*
X96476666Y-25843333D02*
X96476666Y-24443333D01*
X96143333Y-24443333D01*
X95943333Y-24510000D01*
X95810000Y-24643333D01*
X95743333Y-24776666D01*
X95676666Y-25043333D01*
X95676666Y-25243333D01*
X95743333Y-25510000D01*
X95810000Y-25643333D01*
X95943333Y-25776666D01*
X96143333Y-25843333D01*
X96476666Y-25843333D01*
X94543333Y-25776666D02*
X94676666Y-25843333D01*
X94943333Y-25843333D01*
X95076666Y-25776666D01*
X95143333Y-25643333D01*
X95143333Y-25110000D01*
X95076666Y-24976666D01*
X94943333Y-24910000D01*
X94676666Y-24910000D01*
X94543333Y-24976666D01*
X94476666Y-25110000D01*
X94476666Y-25243333D01*
X95143333Y-25376666D01*
X93943333Y-25776666D02*
X93810000Y-25843333D01*
X93543333Y-25843333D01*
X93410000Y-25776666D01*
X93343333Y-25643333D01*
X93343333Y-25576666D01*
X93410000Y-25443333D01*
X93543333Y-25376666D01*
X93743333Y-25376666D01*
X93876666Y-25310000D01*
X93943333Y-25176666D01*
X93943333Y-25110000D01*
X93876666Y-24976666D01*
X93743333Y-24910000D01*
X93543333Y-24910000D01*
X93410000Y-24976666D01*
X92743333Y-25843333D02*
X92743333Y-24910000D01*
X92743333Y-24443333D02*
X92810000Y-24510000D01*
X92743333Y-24576666D01*
X92676666Y-24510000D01*
X92743333Y-24443333D01*
X92743333Y-24576666D01*
X91476666Y-24910000D02*
X91476666Y-26043333D01*
X91543333Y-26176666D01*
X91610000Y-26243333D01*
X91743333Y-26310000D01*
X91943333Y-26310000D01*
X92076666Y-26243333D01*
X91476666Y-25776666D02*
X91610000Y-25843333D01*
X91876666Y-25843333D01*
X92010000Y-25776666D01*
X92076666Y-25710000D01*
X92143333Y-25576666D01*
X92143333Y-25176666D01*
X92076666Y-25043333D01*
X92010000Y-24976666D01*
X91876666Y-24910000D01*
X91610000Y-24910000D01*
X91476666Y-24976666D01*
X90810000Y-24910000D02*
X90810000Y-25843333D01*
X90810000Y-25043333D02*
X90743333Y-24976666D01*
X90610000Y-24910000D01*
X90410000Y-24910000D01*
X90276666Y-24976666D01*
X90210000Y-25110000D01*
X90210000Y-25843333D01*
X104176666Y-28030666D02*
X103976666Y-28097333D01*
X103643333Y-28097333D01*
X103510000Y-28030666D01*
X103443333Y-27964000D01*
X103376666Y-27830666D01*
X103376666Y-27697333D01*
X103443333Y-27564000D01*
X103510000Y-27497333D01*
X103643333Y-27430666D01*
X103910000Y-27364000D01*
X104043333Y-27297333D01*
X104110000Y-27230666D01*
X104176666Y-27097333D01*
X104176666Y-26964000D01*
X104110000Y-26830666D01*
X104043333Y-26764000D01*
X103910000Y-26697333D01*
X103576666Y-26697333D01*
X103376666Y-26764000D01*
X102243333Y-28030666D02*
X102376666Y-28097333D01*
X102643333Y-28097333D01*
X102776666Y-28030666D01*
X102843333Y-27897333D01*
X102843333Y-27364000D01*
X102776666Y-27230666D01*
X102643333Y-27164000D01*
X102376666Y-27164000D01*
X102243333Y-27230666D01*
X102176666Y-27364000D01*
X102176666Y-27497333D01*
X102843333Y-27630666D01*
X101576666Y-27164000D02*
X101576666Y-28564000D01*
X101576666Y-27230666D02*
X101443333Y-27164000D01*
X101176666Y-27164000D01*
X101043333Y-27230666D01*
X100976666Y-27297333D01*
X100910000Y-27430666D01*
X100910000Y-27830666D01*
X100976666Y-27964000D01*
X101043333Y-28030666D01*
X101176666Y-28097333D01*
X101443333Y-28097333D01*
X101576666Y-28030666D01*
X100510000Y-27164000D02*
X99976666Y-27164000D01*
X100310000Y-26697333D02*
X100310000Y-27897333D01*
X100243333Y-28030666D01*
X100110000Y-28097333D01*
X99976666Y-28097333D01*
X99510000Y-27964000D02*
X99443333Y-28030666D01*
X99510000Y-28097333D01*
X99576666Y-28030666D01*
X99510000Y-27964000D01*
X99510000Y-28097333D01*
X97843333Y-26830666D02*
X97776666Y-26764000D01*
X97643333Y-26697333D01*
X97310000Y-26697333D01*
X97176666Y-26764000D01*
X97110000Y-26830666D01*
X97043333Y-26964000D01*
X97043333Y-27097333D01*
X97110000Y-27297333D01*
X97910000Y-28097333D01*
X97043333Y-28097333D01*
X96176666Y-26697333D02*
X96043333Y-26697333D01*
X95910000Y-26764000D01*
X95843333Y-26830666D01*
X95776666Y-26964000D01*
X95710000Y-27230666D01*
X95710000Y-27564000D01*
X95776666Y-27830666D01*
X95843333Y-27964000D01*
X95910000Y-28030666D01*
X96043333Y-28097333D01*
X96176666Y-28097333D01*
X96310000Y-28030666D01*
X96376666Y-27964000D01*
X96443333Y-27830666D01*
X96510000Y-27564000D01*
X96510000Y-27230666D01*
X96443333Y-26964000D01*
X96376666Y-26830666D01*
X96310000Y-26764000D01*
X96176666Y-26697333D01*
X95176666Y-26830666D02*
X95110000Y-26764000D01*
X94976666Y-26697333D01*
X94643333Y-26697333D01*
X94510000Y-26764000D01*
X94443333Y-26830666D01*
X94376666Y-26964000D01*
X94376666Y-27097333D01*
X94443333Y-27297333D01*
X95243333Y-28097333D01*
X94376666Y-28097333D01*
X93843333Y-26830666D02*
X93776666Y-26764000D01*
X93643333Y-26697333D01*
X93310000Y-26697333D01*
X93176666Y-26764000D01*
X93110000Y-26830666D01*
X93043333Y-26964000D01*
X93043333Y-27097333D01*
X93110000Y-27297333D01*
X93910000Y-28097333D01*
X93043333Y-28097333D01*
X91376666Y-28097333D02*
X91376666Y-26697333D01*
X91376666Y-27230666D02*
X91243333Y-27164000D01*
X90976666Y-27164000D01*
X90843333Y-27230666D01*
X90776666Y-27297333D01*
X90710000Y-27430666D01*
X90710000Y-27830666D01*
X90776666Y-27964000D01*
X90843333Y-28030666D01*
X90976666Y-28097333D01*
X91243333Y-28097333D01*
X91376666Y-28030666D01*
X90243333Y-27164000D02*
X89910000Y-28097333D01*
X89576666Y-27164000D02*
X89910000Y-28097333D01*
X90043333Y-28430666D01*
X90110000Y-28497333D01*
X90243333Y-28564000D01*
X100710000Y-28951333D02*
X99910000Y-28951333D01*
X100310000Y-30351333D02*
X100310000Y-28951333D01*
X99443333Y-30351333D02*
X99443333Y-28951333D01*
X98843333Y-30351333D02*
X98843333Y-29618000D01*
X98910000Y-29484666D01*
X99043333Y-29418000D01*
X99243333Y-29418000D01*
X99376666Y-29484666D01*
X99443333Y-29551333D01*
X97976666Y-30351333D02*
X98110000Y-30284666D01*
X98176666Y-30218000D01*
X98243333Y-30084666D01*
X98243333Y-29684666D01*
X98176666Y-29551333D01*
X98110000Y-29484666D01*
X97976666Y-29418000D01*
X97776666Y-29418000D01*
X97643333Y-29484666D01*
X97576666Y-29551333D01*
X97510000Y-29684666D01*
X97510000Y-30084666D01*
X97576666Y-30218000D01*
X97643333Y-30284666D01*
X97776666Y-30351333D01*
X97976666Y-30351333D01*
X96910000Y-30351333D02*
X96910000Y-29418000D01*
X96910000Y-29551333D02*
X96843333Y-29484666D01*
X96710000Y-29418000D01*
X96510000Y-29418000D01*
X96376666Y-29484666D01*
X96310000Y-29618000D01*
X96310000Y-30351333D01*
X96310000Y-29618000D02*
X96243333Y-29484666D01*
X96110000Y-29418000D01*
X95910000Y-29418000D01*
X95776666Y-29484666D01*
X95710000Y-29618000D01*
X95710000Y-30351333D01*
X94443333Y-30351333D02*
X94443333Y-29618000D01*
X94510000Y-29484666D01*
X94643333Y-29418000D01*
X94910000Y-29418000D01*
X95043333Y-29484666D01*
X94443333Y-30284666D02*
X94576666Y-30351333D01*
X94910000Y-30351333D01*
X95043333Y-30284666D01*
X95110000Y-30151333D01*
X95110000Y-30018000D01*
X95043333Y-29884666D01*
X94910000Y-29818000D01*
X94576666Y-29818000D01*
X94443333Y-29751333D01*
X93843333Y-30284666D02*
X93710000Y-30351333D01*
X93443333Y-30351333D01*
X93310000Y-30284666D01*
X93243333Y-30151333D01*
X93243333Y-30084666D01*
X93310000Y-29951333D01*
X93443333Y-29884666D01*
X93643333Y-29884666D01*
X93776666Y-29818000D01*
X93843333Y-29684666D01*
X93843333Y-29618000D01*
X93776666Y-29484666D01*
X93643333Y-29418000D01*
X93443333Y-29418000D01*
X93310000Y-29484666D01*
X102210000Y-32605333D02*
X102210000Y-31205333D01*
X101876666Y-31205333D01*
X101676666Y-31272000D01*
X101543333Y-31405333D01*
X101476666Y-31538666D01*
X101410000Y-31805333D01*
X101410000Y-32005333D01*
X101476666Y-32272000D01*
X101543333Y-32405333D01*
X101676666Y-32538666D01*
X101876666Y-32605333D01*
X102210000Y-32605333D01*
X100810000Y-32605333D02*
X100810000Y-31672000D01*
X100810000Y-31205333D02*
X100876666Y-31272000D01*
X100810000Y-31338666D01*
X100743333Y-31272000D01*
X100810000Y-31205333D01*
X100810000Y-31338666D01*
X99610000Y-32538666D02*
X99743333Y-32605333D01*
X100010000Y-32605333D01*
X100143333Y-32538666D01*
X100210000Y-32405333D01*
X100210000Y-31872000D01*
X100143333Y-31738666D01*
X100010000Y-31672000D01*
X99743333Y-31672000D01*
X99610000Y-31738666D01*
X99543333Y-31872000D01*
X99543333Y-32005333D01*
X100210000Y-32138666D01*
X98343333Y-32538666D02*
X98476666Y-32605333D01*
X98743333Y-32605333D01*
X98876666Y-32538666D01*
X98943333Y-32472000D01*
X99010000Y-32338666D01*
X99010000Y-31938666D01*
X98943333Y-31805333D01*
X98876666Y-31738666D01*
X98743333Y-31672000D01*
X98476666Y-31672000D01*
X98343333Y-31738666D01*
X97743333Y-32605333D02*
X97743333Y-31205333D01*
X97610000Y-32072000D02*
X97210000Y-32605333D01*
X97210000Y-31672000D02*
X97743333Y-32205333D01*
X96610000Y-32605333D02*
X96610000Y-31672000D01*
X96610000Y-31805333D02*
X96543333Y-31738666D01*
X96410000Y-31672000D01*
X96210000Y-31672000D01*
X96076666Y-31738666D01*
X96010000Y-31872000D01*
X96010000Y-32605333D01*
X96010000Y-31872000D02*
X95943333Y-31738666D01*
X95810000Y-31672000D01*
X95610000Y-31672000D01*
X95476666Y-31738666D01*
X95410000Y-31872000D01*
X95410000Y-32605333D01*
X94143333Y-32605333D02*
X94143333Y-31872000D01*
X94210000Y-31738666D01*
X94343333Y-31672000D01*
X94610000Y-31672000D01*
X94743333Y-31738666D01*
X94143333Y-32538666D02*
X94276666Y-32605333D01*
X94610000Y-32605333D01*
X94743333Y-32538666D01*
X94810000Y-32405333D01*
X94810000Y-32272000D01*
X94743333Y-32138666D01*
X94610000Y-32072000D01*
X94276666Y-32072000D01*
X94143333Y-32005333D01*
X93476666Y-31672000D02*
X93476666Y-32605333D01*
X93476666Y-31805333D02*
X93410000Y-31738666D01*
X93276666Y-31672000D01*
X93076666Y-31672000D01*
X92943333Y-31738666D01*
X92876666Y-31872000D01*
X92876666Y-32605333D01*
X92210000Y-31672000D02*
X92210000Y-32605333D01*
X92210000Y-31805333D02*
X92143333Y-31738666D01*
X92010000Y-31672000D01*
X91810000Y-31672000D01*
X91676666Y-31738666D01*
X91610000Y-31872000D01*
X91610000Y-32605333D01*
D10*
X59663333Y-21632380D02*
X59663333Y-22346666D01*
X59710952Y-22489523D01*
X59806190Y-22584761D01*
X59949047Y-22632380D01*
X60044285Y-22632380D01*
X59187142Y-22632380D02*
X59187142Y-21632380D01*
X58806190Y-21632380D01*
X58710952Y-21680000D01*
X58663333Y-21727619D01*
X58615714Y-21822857D01*
X58615714Y-21965714D01*
X58663333Y-22060952D01*
X58710952Y-22108571D01*
X58806190Y-22156190D01*
X59187142Y-22156190D01*
X58282380Y-21632380D02*
X57663333Y-21632380D01*
X57996666Y-22013333D01*
X57853809Y-22013333D01*
X57758571Y-22060952D01*
X57710952Y-22108571D01*
X57663333Y-22203809D01*
X57663333Y-22441904D01*
X57710952Y-22537142D01*
X57758571Y-22584761D01*
X57853809Y-22632380D01*
X58139523Y-22632380D01*
X58234761Y-22584761D01*
X58282380Y-22537142D01*
X63887619Y-25352380D02*
X63268571Y-25352380D01*
X63601904Y-25733333D01*
X63459047Y-25733333D01*
X63363809Y-25780952D01*
X63316190Y-25828571D01*
X63268571Y-25923809D01*
X63268571Y-26161904D01*
X63316190Y-26257142D01*
X63363809Y-26304761D01*
X63459047Y-26352380D01*
X63744761Y-26352380D01*
X63840000Y-26304761D01*
X63887619Y-26257142D01*
X62982857Y-25352380D02*
X62649523Y-26352380D01*
X62316190Y-25352380D01*
X62078095Y-25352380D02*
X61459047Y-25352380D01*
X61792380Y-25733333D01*
X61649523Y-25733333D01*
X61554285Y-25780952D01*
X61506666Y-25828571D01*
X61459047Y-25923809D01*
X61459047Y-26161904D01*
X61506666Y-26257142D01*
X61554285Y-26304761D01*
X61649523Y-26352380D01*
X61935238Y-26352380D01*
X62030476Y-26304761D01*
X62078095Y-26257142D01*
X60316190Y-26304761D02*
X60173333Y-26352380D01*
X59935238Y-26352380D01*
X59840000Y-26304761D01*
X59792380Y-26257142D01*
X59744761Y-26161904D01*
X59744761Y-26066666D01*
X59792380Y-25971428D01*
X59840000Y-25923809D01*
X59935238Y-25876190D01*
X60125714Y-25828571D01*
X60220952Y-25780952D01*
X60268571Y-25733333D01*
X60316190Y-25638095D01*
X60316190Y-25542857D01*
X60268571Y-25447619D01*
X60220952Y-25400000D01*
X60125714Y-25352380D01*
X59887619Y-25352380D01*
X59744761Y-25400000D01*
X58935238Y-26304761D02*
X59030476Y-26352380D01*
X59220952Y-26352380D01*
X59316190Y-26304761D01*
X59363809Y-26209523D01*
X59363809Y-25828571D01*
X59316190Y-25733333D01*
X59220952Y-25685714D01*
X59030476Y-25685714D01*
X58935238Y-25733333D01*
X58887619Y-25828571D01*
X58887619Y-25923809D01*
X59363809Y-26019047D01*
X58316190Y-26352380D02*
X58411428Y-26304761D01*
X58459047Y-26209523D01*
X58459047Y-25352380D01*
X57173333Y-26352380D02*
X57173333Y-25352380D01*
X56601904Y-26352380D01*
X56601904Y-25352380D01*
X55697142Y-26352380D02*
X55697142Y-25828571D01*
X55744761Y-25733333D01*
X55840000Y-25685714D01*
X56030476Y-25685714D01*
X56125714Y-25733333D01*
X55697142Y-26304761D02*
X55792380Y-26352380D01*
X56030476Y-26352380D01*
X56125714Y-26304761D01*
X56173333Y-26209523D01*
X56173333Y-26114285D01*
X56125714Y-26019047D01*
X56030476Y-25971428D01*
X55792380Y-25971428D01*
X55697142Y-25923809D01*
X55220952Y-25685714D02*
X55220952Y-26352380D01*
X55220952Y-25780952D02*
X55173333Y-25733333D01*
X55078095Y-25685714D01*
X54935238Y-25685714D01*
X54840000Y-25733333D01*
X54792380Y-25828571D01*
X54792380Y-26352380D01*
X54173333Y-26352380D02*
X54268571Y-26304761D01*
X54316190Y-26257142D01*
X54363809Y-26161904D01*
X54363809Y-25876190D01*
X54316190Y-25780952D01*
X54268571Y-25733333D01*
X54173333Y-25685714D01*
X54030476Y-25685714D01*
X53935238Y-25733333D01*
X53887619Y-25780952D01*
X53840000Y-25876190D01*
X53840000Y-26161904D01*
X53887619Y-26257142D01*
X53935238Y-26304761D01*
X54030476Y-26352380D01*
X54173333Y-26352380D01*
G36*
X100195429Y-42852477D02*
G01*
X100499554Y-43015476D01*
X100787321Y-43186325D01*
X101052270Y-43361800D01*
X101115213Y-43406485D01*
X101495706Y-43696648D01*
X101853297Y-44005103D01*
X102182898Y-44326884D01*
X102187978Y-44331843D01*
X102499744Y-44676860D01*
X102788590Y-45040150D01*
X103054510Y-45421704D01*
X103297497Y-45821516D01*
X103421114Y-46056370D01*
X103435838Y-46084344D01*
X103517547Y-46239579D01*
X103547352Y-46301257D01*
X103728598Y-46708923D01*
X103883013Y-47118736D01*
X104011568Y-47534146D01*
X104073044Y-47785857D01*
X104115234Y-47958603D01*
X104194983Y-48395560D01*
X104251785Y-48848465D01*
X104252912Y-48860476D01*
X104258777Y-48946224D01*
X104263449Y-49055117D01*
X104266927Y-49181913D01*
X104269212Y-49321367D01*
X104270303Y-49468236D01*
X104270291Y-49486030D01*
X104270285Y-49495211D01*
X104270221Y-49588627D01*
X104270201Y-49617277D01*
X104268905Y-49763246D01*
X104266415Y-49900899D01*
X104262732Y-50024994D01*
X104257855Y-50130287D01*
X104251785Y-50211535D01*
X104244629Y-50281186D01*
X104184419Y-50731458D01*
X104101116Y-51166303D01*
X104080926Y-51245821D01*
X104073870Y-51273612D01*
X104073735Y-51274143D01*
X103993748Y-51589171D01*
X103861345Y-52003513D01*
X103740151Y-52316628D01*
X103702935Y-52412779D01*
X103517547Y-52820421D01*
X103483913Y-52888472D01*
X103436932Y-52975655D01*
X103421857Y-53003629D01*
X103260197Y-53303618D01*
X103013543Y-53700512D01*
X102743959Y-54079147D01*
X102451449Y-54439516D01*
X102180736Y-54733116D01*
X102136019Y-54781613D01*
X101797675Y-55105430D01*
X101436424Y-55410961D01*
X101052270Y-55698200D01*
X100949745Y-55768536D01*
X100674920Y-55942552D01*
X100379854Y-56110657D01*
X100071007Y-56269625D01*
X99754841Y-56416231D01*
X99638658Y-56464247D01*
X99437816Y-56547251D01*
X99126395Y-56659460D01*
X99047838Y-56684961D01*
X98735194Y-56776153D01*
X98411197Y-56855439D01*
X98084292Y-56921076D01*
X97762924Y-56971320D01*
X97688472Y-56979339D01*
X97455535Y-57004428D01*
X97451662Y-57004740D01*
X97374078Y-57011070D01*
X97302083Y-57017080D01*
X97243555Y-57022105D01*
X97206372Y-57025479D01*
X97190615Y-57026599D01*
X97137662Y-57028290D01*
X97062127Y-57029095D01*
X96968581Y-57029094D01*
X96861597Y-57028365D01*
X96745745Y-57026987D01*
X96625597Y-57025041D01*
X96505724Y-57022604D01*
X96390697Y-57019756D01*
X96285088Y-57016575D01*
X96193468Y-57013142D01*
X96120408Y-57009535D01*
X96070480Y-57005833D01*
X95928659Y-56990228D01*
X95458673Y-56919986D01*
X94997907Y-56822401D01*
X94547186Y-56697807D01*
X94107337Y-56546538D01*
X93942985Y-56478359D01*
X94122466Y-56478359D01*
X94133784Y-56489476D01*
X94168510Y-56505014D01*
X94225765Y-56525711D01*
X94304670Y-56552309D01*
X94404346Y-56585544D01*
X94437080Y-56596402D01*
X94539731Y-56629312D01*
X94647708Y-56662540D01*
X94750015Y-56692747D01*
X94835656Y-56716591D01*
X95029857Y-56768142D01*
X95029857Y-56462602D01*
X95058179Y-56462602D01*
X95062339Y-56619474D01*
X95066499Y-56776345D01*
X95220394Y-56809536D01*
X95245574Y-56814877D01*
X95397006Y-56844064D01*
X95565922Y-56872459D01*
X95742345Y-56898567D01*
X95916299Y-56920895D01*
X96077809Y-56937948D01*
X96090898Y-56939131D01*
X96198328Y-56947990D01*
X96317348Y-56956606D01*
X96434375Y-56964047D01*
X96535829Y-56969382D01*
X96759343Y-56979339D01*
X96759343Y-56462602D01*
X96788657Y-56462602D01*
X96788657Y-56975586D01*
X96902246Y-56973436D01*
X96948028Y-56972380D01*
X97222262Y-56959049D01*
X97510622Y-56934184D01*
X97802753Y-56899000D01*
X98088304Y-56854714D01*
X98356920Y-56802541D01*
X98481502Y-56775504D01*
X98485730Y-56616497D01*
X98518143Y-56616497D01*
X98518338Y-56665838D01*
X98519100Y-56719582D01*
X98520305Y-56755985D01*
X98521807Y-56769060D01*
X98530979Y-56766480D01*
X98561778Y-56758177D01*
X98606083Y-56746391D01*
X98620838Y-56742451D01*
X98714259Y-56716368D01*
X98821813Y-56684812D01*
X98936435Y-56649991D01*
X99051057Y-56614110D01*
X99158613Y-56579375D01*
X99252036Y-56547994D01*
X99324260Y-56522171D01*
X99478155Y-56464247D01*
X98998149Y-56463425D01*
X98518143Y-56462602D01*
X98518143Y-56616497D01*
X98485730Y-56616497D01*
X98489822Y-56462602D01*
X96788657Y-56462602D01*
X96759343Y-56462602D01*
X95058179Y-56462602D01*
X95029857Y-56462602D01*
X94549851Y-56463176D01*
X94447764Y-56463214D01*
X94328856Y-56463316D01*
X94237751Y-56464142D01*
X94173570Y-56466432D01*
X94135435Y-56470924D01*
X94122466Y-56478359D01*
X93942985Y-56478359D01*
X93679185Y-56368926D01*
X93263556Y-56165306D01*
X93211388Y-56135571D01*
X93329684Y-56135571D01*
X93494571Y-56213931D01*
X93546661Y-56238440D01*
X93640612Y-56281826D01*
X93736703Y-56325398D01*
X93820682Y-56362656D01*
X93981906Y-56433020D01*
X94505881Y-56433154D01*
X95029857Y-56433289D01*
X95059170Y-56433289D01*
X96759343Y-56433289D01*
X96788657Y-56433289D01*
X98488830Y-56433289D01*
X98518143Y-56433289D01*
X99566095Y-56432365D01*
X99737296Y-56358249D01*
X99795818Y-56332441D01*
X99888667Y-56290156D01*
X99981079Y-56246775D01*
X100059743Y-56208480D01*
X100210988Y-56132827D01*
X100214794Y-55432972D01*
X100214854Y-55421979D01*
X100247630Y-55421979D01*
X100247700Y-55556318D01*
X100247912Y-55686252D01*
X100248249Y-55804039D01*
X100248698Y-55906819D01*
X100249241Y-55991729D01*
X100249865Y-56055910D01*
X100250555Y-56096499D01*
X100251294Y-56110636D01*
X100252463Y-56110374D01*
X100272796Y-56100786D01*
X100312704Y-56079410D01*
X100367385Y-56048973D01*
X100432039Y-56012202D01*
X100501864Y-55971823D01*
X100572060Y-55930561D01*
X100637824Y-55891144D01*
X100735049Y-55830938D01*
X100969554Y-55676274D01*
X101202614Y-55509936D01*
X101427576Y-55336962D01*
X101637783Y-55162388D01*
X101826583Y-54991252D01*
X101867674Y-54951855D01*
X101906244Y-54913053D01*
X101929896Y-54884526D01*
X101942275Y-54860652D01*
X101947029Y-54835810D01*
X101947803Y-54804379D01*
X101947803Y-54791742D01*
X101977116Y-54791742D01*
X101977222Y-54804379D01*
X101977226Y-54804829D01*
X101978742Y-54837349D01*
X101981470Y-54850369D01*
X101988480Y-54845042D01*
X102011108Y-54823747D01*
X102043071Y-54791742D01*
X102100319Y-54733116D01*
X101977116Y-54733116D01*
X101977116Y-54791742D01*
X101947803Y-54791742D01*
X101947803Y-54733116D01*
X100247630Y-54733116D01*
X100247630Y-55421979D01*
X100214854Y-55421979D01*
X100218601Y-54733116D01*
X98518143Y-54733116D01*
X98518143Y-56433289D01*
X98488830Y-56433289D01*
X98488830Y-54733116D01*
X96788657Y-54733116D01*
X96788657Y-56433289D01*
X96759343Y-56433289D01*
X96759343Y-54733116D01*
X95059170Y-54733116D01*
X95059170Y-56433289D01*
X95029857Y-56433289D01*
X95029857Y-54733116D01*
X94582744Y-54733116D01*
X94392250Y-55176480D01*
X94346270Y-55283410D01*
X94303220Y-55382934D01*
X94269042Y-55460597D01*
X94242302Y-55519111D01*
X94221567Y-55561185D01*
X94205403Y-55589531D01*
X94192376Y-55606859D01*
X94181053Y-55615880D01*
X94170001Y-55619305D01*
X94157785Y-55619844D01*
X94147017Y-55619478D01*
X94135902Y-55616573D01*
X94124704Y-55608418D01*
X94111992Y-55592299D01*
X94096334Y-55565505D01*
X94076298Y-55525323D01*
X94050454Y-55469042D01*
X94017368Y-55393949D01*
X93975611Y-55297333D01*
X93923749Y-55176480D01*
X93739417Y-54746495D01*
X93871981Y-54746495D01*
X93874760Y-54755633D01*
X93887537Y-54788913D01*
X93909245Y-54842537D01*
X93938298Y-54912648D01*
X93973109Y-54995392D01*
X94012092Y-55086914D01*
X94040354Y-55152774D01*
X94076808Y-55237380D01*
X94108234Y-55309917D01*
X94133012Y-55366664D01*
X94149522Y-55403898D01*
X94156144Y-55417894D01*
X94161359Y-55408861D01*
X94176715Y-55376278D01*
X94200595Y-55323328D01*
X94231432Y-55253531D01*
X94267659Y-55170407D01*
X94307708Y-55077475D01*
X94455333Y-54733116D01*
X94163657Y-54733116D01*
X94156806Y-54733119D01*
X94064708Y-54733849D01*
X93986261Y-54735731D01*
X93925382Y-54738585D01*
X93885983Y-54742233D01*
X93871981Y-54746495D01*
X93739417Y-54746495D01*
X93733682Y-54733116D01*
X93329684Y-54733116D01*
X93329684Y-56135571D01*
X93211388Y-56135571D01*
X92861276Y-55936012D01*
X92473171Y-55681377D01*
X92100066Y-55401734D01*
X92096755Y-55399086D01*
X91736631Y-55093043D01*
X91400574Y-54770391D01*
X91366303Y-54733116D01*
X91447682Y-54733116D01*
X91504929Y-54791742D01*
X91529101Y-54816091D01*
X91554807Y-54840798D01*
X91566530Y-54850369D01*
X91567502Y-54848887D01*
X91569917Y-54828476D01*
X91570551Y-54804379D01*
X91600197Y-54804379D01*
X91600549Y-54828709D01*
X91603969Y-54854723D01*
X91614097Y-54878387D01*
X91634572Y-54905331D01*
X91669032Y-54941190D01*
X91721115Y-54991597D01*
X91812751Y-55077093D01*
X92015517Y-55252772D01*
X92238017Y-55429700D01*
X92474534Y-55603591D01*
X92719348Y-55770160D01*
X92966742Y-55925120D01*
X92987378Y-55937433D01*
X93060530Y-55980508D01*
X93129465Y-56020297D01*
X93187236Y-56052821D01*
X93226898Y-56074105D01*
X93300371Y-56111336D01*
X93300371Y-54733116D01*
X91600197Y-54733116D01*
X91600197Y-54804379D01*
X91570551Y-54804379D01*
X91570884Y-54791742D01*
X91570884Y-54733116D01*
X91447682Y-54733116D01*
X91366303Y-54733116D01*
X91088082Y-54430512D01*
X90798656Y-54072788D01*
X90531797Y-53696602D01*
X90287005Y-53301337D01*
X90126856Y-53003629D01*
X90192664Y-53003629D01*
X90229895Y-53077102D01*
X90235112Y-53087234D01*
X90267768Y-53147009D01*
X90311979Y-53224001D01*
X90364104Y-53312170D01*
X90420501Y-53405479D01*
X90477528Y-53497888D01*
X90531544Y-53583358D01*
X90578907Y-53655851D01*
X90733347Y-53877426D01*
X90995752Y-54218879D01*
X91282029Y-54552401D01*
X91416989Y-54701461D01*
X91493937Y-54702632D01*
X91570884Y-54703803D01*
X91600197Y-54703803D01*
X93300371Y-54703803D01*
X93329684Y-54703803D01*
X93722565Y-54703803D01*
X93532426Y-54260633D01*
X93502207Y-54190308D01*
X93458560Y-54089122D01*
X93419421Y-53998858D01*
X93386192Y-53922723D01*
X93360276Y-53863924D01*
X93343073Y-53825668D01*
X93335985Y-53811162D01*
X93335278Y-53813287D01*
X93333775Y-53837660D01*
X93332434Y-53886322D01*
X93331305Y-53955798D01*
X93330437Y-54042610D01*
X93329881Y-54143280D01*
X93329684Y-54254331D01*
X93329684Y-54703803D01*
X93300371Y-54703803D01*
X93299771Y-54209140D01*
X93299172Y-53714478D01*
X93203118Y-53489256D01*
X93329684Y-53489256D01*
X93589673Y-54096529D01*
X93849661Y-54703803D01*
X94469084Y-54703803D01*
X94473803Y-54692810D01*
X94605109Y-54692810D01*
X94607646Y-54694519D01*
X94632239Y-54698181D01*
X94678814Y-54701126D01*
X94742227Y-54703089D01*
X94817335Y-54703803D01*
X95029857Y-54703803D01*
X95029462Y-54201812D01*
X95029066Y-53699821D01*
X94817235Y-54190819D01*
X94817073Y-54191195D01*
X94768679Y-54303642D01*
X94724161Y-54407608D01*
X94684817Y-54500024D01*
X94651942Y-54577822D01*
X94626835Y-54637932D01*
X94610792Y-54677284D01*
X94605109Y-54692810D01*
X94473803Y-54692810D01*
X94749471Y-54050692D01*
X94931564Y-53626538D01*
X95059027Y-53626538D01*
X95059099Y-54165170D01*
X95059170Y-54703803D01*
X96759343Y-54703803D01*
X96788657Y-54703803D01*
X98488830Y-54703803D01*
X98518143Y-54703803D01*
X100218316Y-54703803D01*
X100247630Y-54703803D01*
X101947803Y-54703803D01*
X101977116Y-54703803D01*
X102048380Y-54703803D01*
X102072712Y-54703454D01*
X102098715Y-54700042D01*
X102122339Y-54689919D01*
X102149215Y-54669440D01*
X102184976Y-54634960D01*
X102235252Y-54582833D01*
X102321613Y-54489595D01*
X102452591Y-54339062D01*
X102588095Y-54173784D01*
X102722872Y-54000399D01*
X102851666Y-53825542D01*
X102969222Y-53655851D01*
X102979109Y-53640966D01*
X103028307Y-53564918D01*
X103083295Y-53477339D01*
X103140445Y-53384246D01*
X103196128Y-53291658D01*
X103246718Y-53205593D01*
X103288586Y-53132068D01*
X103318105Y-53077102D01*
X103355336Y-53003629D01*
X101977116Y-53003629D01*
X101977116Y-54703803D01*
X101947803Y-54703803D01*
X101947803Y-53003629D01*
X100247630Y-53003629D01*
X100247630Y-54703803D01*
X100218316Y-54703803D01*
X100218316Y-53003629D01*
X98518143Y-53003629D01*
X98518143Y-54703803D01*
X98488830Y-54703803D01*
X98488830Y-53003629D01*
X96788657Y-53003629D01*
X96788657Y-54703803D01*
X96759343Y-54703803D01*
X96759343Y-53003629D01*
X95326452Y-53003629D01*
X95317157Y-53025279D01*
X95192740Y-53315084D01*
X95157322Y-53397582D01*
X95059027Y-53626538D01*
X94931564Y-53626538D01*
X95029857Y-53397582D01*
X95029857Y-53157524D01*
X95059170Y-53157524D01*
X95059395Y-53206761D01*
X95060277Y-53260868D01*
X95061674Y-53297772D01*
X95063417Y-53311419D01*
X95070145Y-53299072D01*
X95085201Y-53266280D01*
X95105709Y-53219717D01*
X95128794Y-53166061D01*
X95151587Y-53111985D01*
X95171214Y-53064166D01*
X95184804Y-53029279D01*
X95186147Y-53025279D01*
X95185281Y-53011435D01*
X95167521Y-53005127D01*
X95126693Y-53003629D01*
X95059170Y-53003629D01*
X95059170Y-53157524D01*
X95029857Y-53157524D01*
X95029857Y-53003629D01*
X93329684Y-53003629D01*
X93329684Y-53489256D01*
X93203118Y-53489256D01*
X93149152Y-53362718D01*
X93002284Y-53018347D01*
X93132673Y-53018347D01*
X93138311Y-53036607D01*
X93147827Y-53059856D01*
X93166596Y-53104933D01*
X93191376Y-53164024D01*
X93219337Y-53230364D01*
X93245995Y-53292762D01*
X93269113Y-53345556D01*
X93285877Y-53382381D01*
X93293820Y-53397694D01*
X93294588Y-53397082D01*
X93296861Y-53377699D01*
X93298696Y-53335661D01*
X93299923Y-53276048D01*
X93300371Y-53203937D01*
X93300371Y-53003629D01*
X93212793Y-53003629D01*
X93205928Y-53003632D01*
X93160645Y-53004444D01*
X93138173Y-53008487D01*
X93132673Y-53018347D01*
X93002284Y-53018347D01*
X92999133Y-53010958D01*
X92299665Y-53007151D01*
X91600197Y-53003345D01*
X91600197Y-54703803D01*
X91570884Y-54703803D01*
X91570884Y-53003629D01*
X90192664Y-53003629D01*
X90126856Y-53003629D01*
X90063781Y-52886376D01*
X89893193Y-52524195D01*
X89808520Y-52316628D01*
X89870711Y-52316628D01*
X89934510Y-52465928D01*
X89962408Y-52529974D01*
X90001811Y-52618104D01*
X90043896Y-52710342D01*
X90083274Y-52794772D01*
X90168237Y-52974316D01*
X91570884Y-52974316D01*
X91600197Y-52974316D01*
X92290629Y-52974316D01*
X92306927Y-52974315D01*
X92470338Y-52974139D01*
X92606663Y-52973626D01*
X92717943Y-52972721D01*
X92806219Y-52971369D01*
X92873532Y-52969516D01*
X92921923Y-52967107D01*
X92953432Y-52964087D01*
X92970100Y-52960401D01*
X92973968Y-52955995D01*
X92973770Y-52955498D01*
X92965743Y-52936398D01*
X92947315Y-52892956D01*
X92919492Y-52827535D01*
X92883283Y-52742501D01*
X92839695Y-52640219D01*
X92789736Y-52523053D01*
X92734415Y-52393370D01*
X92674739Y-52253533D01*
X92611715Y-52105909D01*
X92264557Y-51292886D01*
X92397068Y-51292886D01*
X92397945Y-51300177D01*
X92398003Y-51300354D01*
X92405481Y-51319055D01*
X92423435Y-51362212D01*
X92450843Y-51427416D01*
X92486683Y-51512255D01*
X92529934Y-51614319D01*
X92579574Y-51731196D01*
X92634581Y-51860476D01*
X92693935Y-51999747D01*
X92756612Y-52146600D01*
X93102322Y-52955995D01*
X93107017Y-52966988D01*
X93203694Y-52971322D01*
X93300371Y-52975655D01*
X93300371Y-52974316D01*
X93329684Y-52974316D01*
X95029857Y-52974316D01*
X95059170Y-52974316D01*
X95136118Y-52974046D01*
X95213065Y-52973776D01*
X95572154Y-52137467D01*
X95581199Y-52116399D01*
X95644228Y-51969563D01*
X95703695Y-51830962D01*
X95758598Y-51702932D01*
X95807937Y-51587812D01*
X95850711Y-51487937D01*
X95885917Y-51405647D01*
X95912557Y-51343277D01*
X95929627Y-51303166D01*
X95936127Y-51287651D01*
X95936162Y-51287429D01*
X95921805Y-51283693D01*
X95880781Y-51280462D01*
X95815594Y-51277813D01*
X95728747Y-51275826D01*
X95622745Y-51274577D01*
X95500092Y-51274143D01*
X95059170Y-51274143D01*
X95059170Y-52974316D01*
X95338953Y-52974316D01*
X96759343Y-52974316D01*
X96788657Y-52974316D01*
X98488830Y-52974316D01*
X98518143Y-52974316D01*
X100218316Y-52974316D01*
X100247630Y-52974316D01*
X101947803Y-52974316D01*
X101977116Y-52974316D01*
X103379763Y-52974316D01*
X103464727Y-52794772D01*
X103498709Y-52722031D01*
X103540747Y-52630134D01*
X103580804Y-52540795D01*
X103613490Y-52465928D01*
X103677289Y-52316628D01*
X103677289Y-51274143D01*
X103706603Y-51274143D01*
X103706603Y-51750485D01*
X103706645Y-51823100D01*
X103706881Y-51932119D01*
X103707299Y-52029034D01*
X103707873Y-52110404D01*
X103708577Y-52172787D01*
X103709383Y-52212741D01*
X103710267Y-52226823D01*
X103717709Y-52215167D01*
X103732591Y-52179168D01*
X103753349Y-52122717D01*
X103778695Y-52049773D01*
X103807340Y-51964290D01*
X103837997Y-51870228D01*
X103869375Y-51771543D01*
X103900188Y-51672192D01*
X103929145Y-51576133D01*
X103954959Y-51487322D01*
X103976341Y-51409717D01*
X104012278Y-51274143D01*
X103706603Y-51274143D01*
X103677289Y-51274143D01*
X101977116Y-51274143D01*
X101977116Y-52974316D01*
X101947803Y-52974316D01*
X101947803Y-51274143D01*
X100247630Y-51274143D01*
X100247630Y-52974316D01*
X100218316Y-52974316D01*
X100218316Y-51274143D01*
X98518143Y-51274143D01*
X98518143Y-52974316D01*
X98488830Y-52974316D01*
X98488830Y-51274143D01*
X96788657Y-51274143D01*
X96788657Y-52974316D01*
X96759343Y-52974316D01*
X96759343Y-51273612D01*
X96413038Y-51277542D01*
X96066732Y-51281471D01*
X96064170Y-51287429D01*
X95745263Y-52028961D01*
X95712545Y-52105039D01*
X95652166Y-52245445D01*
X95594748Y-52378977D01*
X95541521Y-52502770D01*
X95493718Y-52613960D01*
X95452570Y-52709681D01*
X95419308Y-52787068D01*
X95395166Y-52843258D01*
X95381374Y-52875384D01*
X95338953Y-52974316D01*
X95059170Y-52974316D01*
X95029857Y-52974316D01*
X95029857Y-51274143D01*
X93329684Y-51274143D01*
X93329684Y-52974316D01*
X93300371Y-52974316D01*
X93300371Y-51274143D01*
X92831523Y-51274143D01*
X92706682Y-51274245D01*
X92607911Y-51274642D01*
X92532250Y-51275508D01*
X92476743Y-51277014D01*
X92438430Y-51279332D01*
X92414352Y-51282635D01*
X92401551Y-51287096D01*
X92397068Y-51292886D01*
X92264557Y-51292886D01*
X92256554Y-51274143D01*
X91600197Y-51274143D01*
X91600197Y-52974316D01*
X91570884Y-52974316D01*
X91570884Y-51274143D01*
X89870711Y-51274143D01*
X89870711Y-52316628D01*
X89808520Y-52316628D01*
X89729401Y-52122675D01*
X89591718Y-51718565D01*
X89479196Y-51308371D01*
X89471996Y-51274143D01*
X89535722Y-51274143D01*
X89571793Y-51409717D01*
X89589309Y-51473539D01*
X89613509Y-51558491D01*
X89640173Y-51649668D01*
X89666050Y-51735828D01*
X89690280Y-51812902D01*
X89722028Y-51909410D01*
X89753998Y-52002682D01*
X89781994Y-52080260D01*
X89839753Y-52234154D01*
X89840575Y-51754149D01*
X89841398Y-51274143D01*
X89535722Y-51274143D01*
X89471996Y-51274143D01*
X89390889Y-50888598D01*
X89325850Y-50455754D01*
X89283130Y-50006341D01*
X89278235Y-49913256D01*
X89274683Y-49788475D01*
X89273037Y-49647554D01*
X89273107Y-49588627D01*
X89328414Y-49588627D01*
X89328556Y-49636261D01*
X89329237Y-49690326D01*
X89335488Y-49845287D01*
X89347630Y-50019827D01*
X89364915Y-50207555D01*
X89386593Y-50402077D01*
X89411916Y-50597000D01*
X89440136Y-50785932D01*
X89470506Y-50962479D01*
X89502275Y-51120248D01*
X89528107Y-51237501D01*
X89684752Y-51241661D01*
X89841398Y-51245821D01*
X89841398Y-51244830D01*
X89870711Y-51244830D01*
X91570884Y-51244830D01*
X91600197Y-51244830D01*
X92243785Y-51244830D01*
X92201435Y-51145897D01*
X92188156Y-51114862D01*
X92164164Y-51058769D01*
X92131264Y-50981842D01*
X92090801Y-50887225D01*
X92044121Y-50778062D01*
X91992567Y-50657497D01*
X91937484Y-50528676D01*
X91880218Y-50394743D01*
X91601350Y-49742521D01*
X91600774Y-50493676D01*
X91600197Y-51244830D01*
X91570884Y-51244830D01*
X91570884Y-50454059D01*
X91570865Y-50393727D01*
X91570523Y-50211048D01*
X91569728Y-50055891D01*
X91568452Y-49926884D01*
X91566667Y-49822650D01*
X91564345Y-49741816D01*
X91561458Y-49683005D01*
X91557977Y-49644844D01*
X91553875Y-49625958D01*
X91536866Y-49588627D01*
X89870711Y-49588627D01*
X89870711Y-51244830D01*
X89841398Y-51244830D01*
X89841398Y-49588627D01*
X89328414Y-49588627D01*
X89273107Y-49588627D01*
X89273159Y-49544657D01*
X91644537Y-49544657D01*
X91678238Y-49621604D01*
X91685426Y-49638202D01*
X91704679Y-49683052D01*
X91733438Y-49750272D01*
X91770545Y-49837151D01*
X91814843Y-49940976D01*
X91865176Y-50059035D01*
X91920385Y-50188615D01*
X91979314Y-50327004D01*
X92040806Y-50471490D01*
X92369672Y-51244428D01*
X92835022Y-51244629D01*
X93300371Y-51244830D01*
X93329684Y-51244830D01*
X95029857Y-51244830D01*
X95029857Y-49544657D01*
X95059170Y-49544657D01*
X95059170Y-51244830D01*
X95954723Y-51244830D01*
X95961603Y-51228412D01*
X96089061Y-51228412D01*
X96096587Y-51234070D01*
X96119498Y-51238354D01*
X96160577Y-51241418D01*
X96222609Y-51243416D01*
X96308379Y-51244502D01*
X96420672Y-51244830D01*
X96759343Y-51244830D01*
X96788657Y-51244830D01*
X98488830Y-51244830D01*
X98518143Y-51244830D01*
X100218316Y-51244830D01*
X100247630Y-51244830D01*
X101947803Y-51244830D01*
X101977116Y-51244830D01*
X103677289Y-51244830D01*
X103677289Y-49588627D01*
X103706603Y-49588627D01*
X103706603Y-51244830D01*
X103860958Y-51244830D01*
X103912838Y-51244339D01*
X103972740Y-51241419D01*
X104008111Y-51235585D01*
X104021825Y-51226509D01*
X104022246Y-51225259D01*
X104029226Y-51197608D01*
X104040094Y-51147499D01*
X104053715Y-51080775D01*
X104068955Y-51003283D01*
X104084681Y-50920868D01*
X104099760Y-50839374D01*
X104113057Y-50764647D01*
X104123440Y-50702533D01*
X104127485Y-50676422D01*
X104144129Y-50556677D01*
X104160452Y-50421225D01*
X104175878Y-50276453D01*
X104189833Y-50128746D01*
X104201742Y-49984488D01*
X104211030Y-49850064D01*
X104217122Y-49731860D01*
X104219444Y-49636261D01*
X104219586Y-49588627D01*
X103706603Y-49588627D01*
X103677289Y-49588627D01*
X101977116Y-49588627D01*
X101977116Y-51244830D01*
X101947803Y-51244830D01*
X101947803Y-50424056D01*
X101947794Y-50307690D01*
X101947708Y-50149465D01*
X101947463Y-50016703D01*
X101946978Y-49907060D01*
X101946172Y-49818192D01*
X101944965Y-49747756D01*
X101943276Y-49693410D01*
X101941024Y-49652808D01*
X101938128Y-49623609D01*
X101934507Y-49603469D01*
X101930081Y-49590045D01*
X101924769Y-49580993D01*
X101918489Y-49573970D01*
X101914082Y-49569814D01*
X101906022Y-49564166D01*
X101894425Y-49559434D01*
X101876948Y-49555535D01*
X101851248Y-49552390D01*
X101814981Y-49549918D01*
X101765804Y-49548037D01*
X101701373Y-49546667D01*
X101619346Y-49545728D01*
X101517378Y-49545138D01*
X101393128Y-49544817D01*
X101244250Y-49544683D01*
X101068403Y-49544657D01*
X100247630Y-49544657D01*
X100247630Y-51244830D01*
X100218316Y-51244830D01*
X100218316Y-49544657D01*
X98518143Y-49544657D01*
X98518143Y-51244830D01*
X98488830Y-51244830D01*
X98488830Y-49544657D01*
X96806732Y-49544657D01*
X96797895Y-49577634D01*
X96796834Y-49587461D01*
X96795239Y-49625168D01*
X96793755Y-49687654D01*
X96792413Y-49772147D01*
X96791242Y-49875875D01*
X96790271Y-49996068D01*
X96789531Y-50129954D01*
X96789049Y-50274762D01*
X96788857Y-50427721D01*
X96788657Y-51244830D01*
X96759343Y-51244830D01*
X96759343Y-50465584D01*
X96759318Y-50393714D01*
X96759107Y-50250063D01*
X96758701Y-50117083D01*
X96758120Y-49997438D01*
X96757385Y-49893791D01*
X96756517Y-49808805D01*
X96755537Y-49745144D01*
X96754464Y-49705469D01*
X96753321Y-49692445D01*
X96747767Y-49704391D01*
X96731758Y-49740532D01*
X96706586Y-49797957D01*
X96673515Y-49873744D01*
X96633810Y-49964971D01*
X96588735Y-50068716D01*
X96539555Y-50182058D01*
X96487536Y-50302075D01*
X96433940Y-50425844D01*
X96380034Y-50550444D01*
X96327081Y-50672952D01*
X96276347Y-50790447D01*
X96229096Y-50900007D01*
X96186593Y-50998709D01*
X96150103Y-51083633D01*
X96120889Y-51151855D01*
X96100217Y-51200454D01*
X96089352Y-51226509D01*
X96089061Y-51228412D01*
X95961603Y-51228412D01*
X95974686Y-51197195D01*
X95979341Y-51186234D01*
X95995495Y-51148494D01*
X96021415Y-51088097D01*
X96055974Y-51007660D01*
X96098048Y-50909799D01*
X96146512Y-50797130D01*
X96200240Y-50672271D01*
X96258108Y-50537839D01*
X96318991Y-50396449D01*
X96357499Y-50307025D01*
X96416661Y-50169596D01*
X96472120Y-50040719D01*
X96522748Y-49923018D01*
X96567418Y-49819117D01*
X96605001Y-49731640D01*
X96634370Y-49663211D01*
X96654395Y-49616455D01*
X96663949Y-49593996D01*
X96684564Y-49544657D01*
X95059170Y-49544657D01*
X95029857Y-49544657D01*
X93329684Y-49544657D01*
X93329684Y-51244830D01*
X93300371Y-51244830D01*
X93300371Y-49544657D01*
X91644537Y-49544657D01*
X89273159Y-49544657D01*
X89273215Y-49496982D01*
X89273352Y-49486030D01*
X89328414Y-49486030D01*
X89841398Y-49486030D01*
X89870711Y-49486030D01*
X91570884Y-49486030D01*
X91570884Y-48647669D01*
X91600197Y-48647669D01*
X91600208Y-48699979D01*
X91600450Y-48881596D01*
X91601038Y-49036031D01*
X91602008Y-49164972D01*
X91603393Y-49270107D01*
X91605230Y-49353123D01*
X91607553Y-49415708D01*
X91610396Y-49459550D01*
X91613756Y-49486030D01*
X91613795Y-49486337D01*
X91617785Y-49497755D01*
X91619387Y-49498860D01*
X91634670Y-49502692D01*
X91665764Y-49505942D01*
X91714355Y-49508646D01*
X91782133Y-49510838D01*
X91870783Y-49512553D01*
X91981995Y-49513826D01*
X92117455Y-49514692D01*
X92278851Y-49515186D01*
X92467872Y-49515343D01*
X93300371Y-49515343D01*
X93329684Y-49515343D01*
X95029857Y-49515343D01*
X95059170Y-49515343D01*
X96697107Y-49515343D01*
X96701029Y-49506226D01*
X96832627Y-49506226D01*
X96840342Y-49507468D01*
X96874407Y-49509079D01*
X96933260Y-49510568D01*
X97014290Y-49511908D01*
X97114886Y-49513068D01*
X97232439Y-49514020D01*
X97364337Y-49514736D01*
X97507970Y-49515187D01*
X97660728Y-49515343D01*
X98488830Y-49515343D01*
X98518143Y-49515343D01*
X100218316Y-49515343D01*
X100247630Y-49515343D01*
X101062643Y-49515343D01*
X101097491Y-49515342D01*
X101267545Y-49515283D01*
X101410930Y-49515083D01*
X101529874Y-49514670D01*
X101626605Y-49513974D01*
X101703353Y-49512924D01*
X101762345Y-49511449D01*
X101805810Y-49509477D01*
X101835976Y-49506938D01*
X101855072Y-49503762D01*
X101865326Y-49499876D01*
X101868967Y-49495211D01*
X101868223Y-49489694D01*
X101868099Y-49489364D01*
X101860084Y-49470089D01*
X101841557Y-49426439D01*
X101813544Y-49360813D01*
X101777076Y-49275611D01*
X101733181Y-49173232D01*
X101682888Y-49056076D01*
X101627224Y-48926542D01*
X101567219Y-48787029D01*
X101503903Y-48639937D01*
X101149015Y-47815829D01*
X100698322Y-47815500D01*
X100247630Y-47815170D01*
X101274708Y-47815170D01*
X101323718Y-47928759D01*
X101338068Y-47962007D01*
X101363418Y-48020721D01*
X101397703Y-48100119D01*
X101439532Y-48196979D01*
X101487512Y-48308077D01*
X101540251Y-48430190D01*
X101596358Y-48560096D01*
X101654440Y-48694570D01*
X101659003Y-48705133D01*
X101714934Y-48834454D01*
X101767281Y-48955204D01*
X101814899Y-49064760D01*
X101856643Y-49160502D01*
X101891368Y-49239808D01*
X101917928Y-49300057D01*
X101935180Y-49338628D01*
X101941978Y-49352898D01*
X101942474Y-49350630D01*
X101943556Y-49325576D01*
X101944561Y-49275061D01*
X101945467Y-49201759D01*
X101946253Y-49108345D01*
X101946901Y-48997496D01*
X101947388Y-48871886D01*
X101947696Y-48734192D01*
X101947774Y-48627416D01*
X101977116Y-48627416D01*
X101977177Y-48722896D01*
X101977520Y-48870087D01*
X101978139Y-49007124D01*
X101979005Y-49131271D01*
X101980088Y-49239789D01*
X101981359Y-49329944D01*
X101982790Y-49398996D01*
X101984351Y-49444209D01*
X101986013Y-49462846D01*
X101988277Y-49466229D01*
X101996065Y-49470669D01*
X102011087Y-49474400D01*
X102035551Y-49477483D01*
X102071663Y-49479978D01*
X102121633Y-49481945D01*
X102187667Y-49483444D01*
X102271975Y-49484536D01*
X102376765Y-49485280D01*
X102504243Y-49485737D01*
X102656618Y-49485967D01*
X102836099Y-49486030D01*
X103677289Y-49486030D01*
X103706603Y-49486030D01*
X104222882Y-49486030D01*
X104213021Y-49277172D01*
X104197612Y-49026697D01*
X104172265Y-48746722D01*
X104139198Y-48473408D01*
X104099319Y-48214162D01*
X104053537Y-47976393D01*
X104020345Y-47822498D01*
X103706603Y-47814178D01*
X103706603Y-49486030D01*
X103677289Y-49486030D01*
X103677289Y-47815170D01*
X101977116Y-47815170D01*
X101977116Y-48627416D01*
X101947774Y-48627416D01*
X101947803Y-48587088D01*
X101947803Y-47815170D01*
X101274708Y-47815170D01*
X100247630Y-47815170D01*
X100247630Y-49515343D01*
X100218316Y-49515343D01*
X100218316Y-47815170D01*
X98518143Y-47815170D01*
X98518143Y-49515343D01*
X98488830Y-49515343D01*
X98488830Y-47815170D01*
X97556282Y-47815170D01*
X97551552Y-47826163D01*
X97194454Y-48656139D01*
X97183199Y-48682303D01*
X97120121Y-48829101D01*
X97060777Y-48967482D01*
X97006153Y-49095134D01*
X96957232Y-49209744D01*
X96914999Y-49308999D01*
X96880438Y-49390587D01*
X96854532Y-49452196D01*
X96838267Y-49491513D01*
X96832627Y-49506226D01*
X96701029Y-49506226D01*
X96728225Y-49443007D01*
X96730518Y-49437629D01*
X96737002Y-49421119D01*
X96742432Y-49403298D01*
X96746903Y-49381620D01*
X96750508Y-49353539D01*
X96753340Y-49316510D01*
X96755492Y-49267986D01*
X96757057Y-49205424D01*
X96758129Y-49126276D01*
X96758800Y-49027997D01*
X96759164Y-48908042D01*
X96759314Y-48763865D01*
X96759343Y-48592920D01*
X96759343Y-48548003D01*
X96788657Y-48548003D01*
X96788661Y-48579614D01*
X96788673Y-48592920D01*
X96788784Y-48721300D01*
X96789066Y-48853098D01*
X96789490Y-48972233D01*
X96790039Y-49075930D01*
X96790695Y-49161414D01*
X96791442Y-49225910D01*
X96792263Y-49266642D01*
X96793140Y-49280837D01*
X96798601Y-49270181D01*
X96814430Y-49235391D01*
X96839291Y-49179343D01*
X96871894Y-49105034D01*
X96910951Y-49015461D01*
X96955170Y-48913623D01*
X97003262Y-48802518D01*
X97053938Y-48685144D01*
X97105907Y-48564499D01*
X97157879Y-48443581D01*
X97208565Y-48325387D01*
X97256675Y-48212917D01*
X97300919Y-48109167D01*
X97340006Y-48017136D01*
X97372648Y-47939822D01*
X97397554Y-47880224D01*
X97413435Y-47841338D01*
X97419000Y-47826163D01*
X97416829Y-47824877D01*
X97392629Y-47821776D01*
X97344990Y-47819107D01*
X97278145Y-47817018D01*
X97196329Y-47815657D01*
X97103775Y-47815170D01*
X96788657Y-47815170D01*
X96788657Y-48548003D01*
X96759343Y-48548003D01*
X96759343Y-47815170D01*
X95059170Y-47815170D01*
X95059170Y-49515343D01*
X95029857Y-49515343D01*
X95029857Y-47815170D01*
X93329684Y-47815170D01*
X93329684Y-49515343D01*
X93300371Y-49515343D01*
X93300371Y-47815170D01*
X91600197Y-47815170D01*
X91600197Y-48647669D01*
X91570884Y-48647669D01*
X91570884Y-47815170D01*
X89870711Y-47815170D01*
X89870711Y-49486030D01*
X89841398Y-49486030D01*
X89841398Y-47814178D01*
X89684752Y-47818338D01*
X89528107Y-47822498D01*
X89502275Y-47939752D01*
X89492861Y-47983659D01*
X89460825Y-48150746D01*
X89430564Y-48334749D01*
X89402834Y-48529186D01*
X89378388Y-48727578D01*
X89357983Y-48923443D01*
X89342372Y-49110300D01*
X89332312Y-49281669D01*
X89328556Y-49431067D01*
X89328414Y-49486030D01*
X89273352Y-49486030D01*
X89275132Y-49343248D01*
X89278703Y-49192842D01*
X89283844Y-49052253D01*
X89290470Y-48927969D01*
X89298497Y-48826480D01*
X89328640Y-48565630D01*
X89404603Y-48100832D01*
X89476203Y-47785857D01*
X89535722Y-47785857D01*
X89841398Y-47785857D01*
X89870711Y-47785857D01*
X91570884Y-47785857D01*
X91600197Y-47785857D01*
X93300371Y-47785857D01*
X93329684Y-47785857D01*
X95029857Y-47785857D01*
X95059170Y-47785857D01*
X96759343Y-47785857D01*
X96788657Y-47785857D01*
X97114768Y-47785819D01*
X97440878Y-47785780D01*
X97799967Y-46949650D01*
X97808933Y-46928771D01*
X97871974Y-46781930D01*
X97931453Y-46643309D01*
X97986369Y-46515248D01*
X98035719Y-46400084D01*
X98078502Y-46300158D01*
X98113718Y-46217808D01*
X98140364Y-46155372D01*
X98157438Y-46115191D01*
X98163941Y-46099602D01*
X98162821Y-46098476D01*
X98140475Y-46095253D01*
X98090669Y-46092447D01*
X98014804Y-46090088D01*
X97914279Y-46088204D01*
X97790494Y-46086823D01*
X97644848Y-46085973D01*
X97478741Y-46085684D01*
X96788657Y-46085684D01*
X96788657Y-47785857D01*
X97567817Y-47785857D01*
X98488830Y-47785857D01*
X98518143Y-47785857D01*
X100218316Y-47785857D01*
X100247630Y-47785857D01*
X100688898Y-47785857D01*
X100803472Y-47785786D01*
X100904861Y-47785435D01*
X100982634Y-47784626D01*
X101039782Y-47783182D01*
X101079295Y-47780924D01*
X101104166Y-47777675D01*
X101117383Y-47773258D01*
X101121939Y-47767495D01*
X101120825Y-47760208D01*
X101120700Y-47759874D01*
X101112695Y-47740586D01*
X101094175Y-47696926D01*
X101066169Y-47631291D01*
X101029704Y-47546082D01*
X100985809Y-47443697D01*
X100935513Y-47326536D01*
X100879845Y-47196998D01*
X100819832Y-47057482D01*
X100756504Y-46910387D01*
X100401525Y-46086215D01*
X100324577Y-46085949D01*
X100247630Y-46085684D01*
X100527148Y-46085684D01*
X100554195Y-46147974D01*
X100560283Y-46162000D01*
X100586216Y-46221806D01*
X100620153Y-46300138D01*
X100660867Y-46394157D01*
X100707129Y-46501022D01*
X100757710Y-46617896D01*
X100811385Y-46741938D01*
X100866923Y-46870311D01*
X100923097Y-47000173D01*
X100978680Y-47128687D01*
X101032443Y-47253012D01*
X101083158Y-47370311D01*
X101129597Y-47477743D01*
X101170533Y-47572470D01*
X101204737Y-47651651D01*
X101230981Y-47712449D01*
X101248037Y-47752024D01*
X101254660Y-47767495D01*
X101254678Y-47767536D01*
X101254712Y-47767617D01*
X101264648Y-47773780D01*
X101290347Y-47778506D01*
X101334518Y-47781934D01*
X101399868Y-47784208D01*
X101489106Y-47785468D01*
X101604939Y-47785857D01*
X104012278Y-47785857D01*
X103976207Y-47650283D01*
X103974689Y-47644589D01*
X103936752Y-47508271D01*
X103894104Y-47364660D01*
X103849557Y-47222723D01*
X103805920Y-47091427D01*
X103766006Y-46979740D01*
X103708248Y-46825845D01*
X103707425Y-47305851D01*
X103706603Y-47785857D01*
X103677289Y-47785857D01*
X103677289Y-46743372D01*
X103613490Y-46594072D01*
X103585592Y-46530026D01*
X103546190Y-46441896D01*
X103504104Y-46349658D01*
X103464727Y-46265228D01*
X103379763Y-46085684D01*
X101977116Y-46085684D01*
X101977116Y-47785857D01*
X101947803Y-47785857D01*
X101947803Y-46085684D01*
X100527148Y-46085684D01*
X100247630Y-46085684D01*
X100247630Y-47785857D01*
X100218316Y-47785857D01*
X100218316Y-46085684D01*
X98518143Y-46085684D01*
X98518143Y-47785857D01*
X98488830Y-47785857D01*
X98488830Y-46084344D01*
X98295690Y-46093012D01*
X98292856Y-46099602D01*
X97931753Y-46939434D01*
X97567817Y-47785857D01*
X96788657Y-47785857D01*
X96759343Y-47785857D01*
X96759343Y-46085684D01*
X95059170Y-46085684D01*
X95059170Y-47785857D01*
X95029857Y-47785857D01*
X95029857Y-46085684D01*
X93329684Y-46085684D01*
X93329684Y-47785857D01*
X93300371Y-47785857D01*
X93300371Y-46085684D01*
X91600197Y-46085684D01*
X91600197Y-47785857D01*
X91570884Y-47785857D01*
X91570884Y-46085684D01*
X90168237Y-46085684D01*
X90083274Y-46265228D01*
X90049291Y-46337969D01*
X90007253Y-46429865D01*
X89967196Y-46519205D01*
X89934510Y-46594072D01*
X89870711Y-46743372D01*
X89870711Y-47785857D01*
X89841398Y-47785857D01*
X89840575Y-47305851D01*
X89839753Y-46825845D01*
X89781994Y-46979740D01*
X89780353Y-46984122D01*
X89740216Y-47096861D01*
X89696481Y-47228814D01*
X89651958Y-47371013D01*
X89609458Y-47514492D01*
X89571793Y-47650283D01*
X89535722Y-47785857D01*
X89476203Y-47785857D01*
X89508531Y-47643644D01*
X89640838Y-47192350D01*
X89801939Y-46745234D01*
X89848422Y-46633069D01*
X89912119Y-46490377D01*
X89985207Y-46335284D01*
X90064399Y-46174326D01*
X90124750Y-46056370D01*
X90192664Y-46056370D01*
X91570884Y-46056370D01*
X91570884Y-44356197D01*
X91600197Y-44356197D01*
X91600197Y-46056370D01*
X93300371Y-46056370D01*
X93329684Y-46056370D01*
X95029857Y-46056370D01*
X95059170Y-46056370D01*
X96759343Y-46056370D01*
X96788657Y-46056370D01*
X97483983Y-46056370D01*
X98312557Y-46056370D01*
X98488830Y-46056370D01*
X98518143Y-46056370D01*
X100218316Y-46056370D01*
X100247630Y-46056370D01*
X100313585Y-46056370D01*
X100333261Y-46056001D01*
X100366429Y-46053112D01*
X100379540Y-46048295D01*
X100376288Y-46037911D01*
X100363836Y-46005842D01*
X100344793Y-45959187D01*
X100322090Y-45904880D01*
X100298661Y-45849855D01*
X100277435Y-45801045D01*
X100261346Y-45765382D01*
X100253324Y-45749802D01*
X100251421Y-45756795D01*
X100249459Y-45787450D01*
X100248123Y-45837095D01*
X100247630Y-45900033D01*
X100247630Y-46056370D01*
X100218316Y-46056370D01*
X100218461Y-45862169D01*
X100218605Y-45667969D01*
X100119316Y-45437243D01*
X100247630Y-45437243D01*
X100347426Y-45667969D01*
X100381526Y-45746806D01*
X100511929Y-46048295D01*
X100515422Y-46056370D01*
X103355336Y-46056370D01*
X103318105Y-45982898D01*
X103312736Y-45972475D01*
X103280127Y-45912816D01*
X103235983Y-45835949D01*
X103183933Y-45747894D01*
X103127604Y-45654669D01*
X103070624Y-45562291D01*
X103016621Y-45476778D01*
X102969222Y-45404149D01*
X102888166Y-45285944D01*
X102762176Y-45111934D01*
X102628634Y-44937415D01*
X102492797Y-44769023D01*
X102359918Y-44613395D01*
X102235252Y-44477166D01*
X102196113Y-44436428D01*
X102157209Y-44397824D01*
X102128615Y-44374144D01*
X102104700Y-44361743D01*
X102079832Y-44356976D01*
X102048380Y-44356197D01*
X101977116Y-44356197D01*
X101977116Y-46056370D01*
X101947803Y-46056370D01*
X101947803Y-44356197D01*
X100247630Y-44356197D01*
X100247630Y-45437243D01*
X100119316Y-45437243D01*
X99936320Y-45012000D01*
X99654106Y-44356197D01*
X99780839Y-44356197D01*
X99994018Y-44850860D01*
X99995633Y-44854609D01*
X100044194Y-44967100D01*
X100089109Y-45070802D01*
X100129056Y-45162690D01*
X100162715Y-45239740D01*
X100188765Y-45298929D01*
X100205886Y-45337234D01*
X100212756Y-45351629D01*
X100213810Y-45343700D01*
X100215032Y-45309984D01*
X100216116Y-45252903D01*
X100217023Y-45175757D01*
X100217717Y-45081851D01*
X100218160Y-44974487D01*
X100218316Y-44856967D01*
X100218316Y-44356197D01*
X99780839Y-44356197D01*
X99654106Y-44356197D01*
X99654035Y-44356032D01*
X99346252Y-44359779D01*
X99038470Y-44363526D01*
X98779162Y-44964449D01*
X98614337Y-45346418D01*
X98519855Y-45565372D01*
X98518143Y-46056370D01*
X98488830Y-46056370D01*
X98488830Y-45856063D01*
X98488791Y-45832675D01*
X98488176Y-45763832D01*
X98486929Y-45709019D01*
X98485199Y-45673331D01*
X98483136Y-45661862D01*
X98482703Y-45662440D01*
X98473038Y-45682098D01*
X98452731Y-45727639D01*
X98422253Y-45797982D01*
X98382072Y-45892042D01*
X98332659Y-46008736D01*
X98312557Y-46056370D01*
X97483983Y-46056370D01*
X97622989Y-46056120D01*
X97753917Y-46055395D01*
X97872878Y-46054248D01*
X97976980Y-46052728D01*
X98063332Y-46050887D01*
X98129045Y-46048777D01*
X98171226Y-46046448D01*
X98186986Y-46043951D01*
X98192654Y-46031998D01*
X98208688Y-45996017D01*
X98233250Y-45939971D01*
X98264704Y-45867613D01*
X98301415Y-45782697D01*
X98341746Y-45688975D01*
X98488830Y-45346418D01*
X98488830Y-44600157D01*
X98520419Y-44600157D01*
X98520802Y-44701757D01*
X98521592Y-44813137D01*
X98525472Y-45259877D01*
X98717932Y-44811701D01*
X98910393Y-44363526D01*
X98719593Y-44359422D01*
X98706173Y-44359147D01*
X98636258Y-44358194D01*
X98578701Y-44358188D01*
X98539150Y-44359090D01*
X98523253Y-44360858D01*
X98522702Y-44363814D01*
X98521585Y-44390166D01*
X98520824Y-44440748D01*
X98520431Y-44511950D01*
X98520419Y-44600157D01*
X98488830Y-44600157D01*
X98488830Y-44356197D01*
X96788657Y-44356197D01*
X96788657Y-46056370D01*
X96759343Y-46056370D01*
X96759343Y-44356197D01*
X95059170Y-44356197D01*
X95059170Y-46056370D01*
X95029857Y-46056370D01*
X95029857Y-44356197D01*
X93329684Y-44356197D01*
X93329684Y-46056370D01*
X93300371Y-46056370D01*
X93300371Y-44356197D01*
X91600197Y-44356197D01*
X91570884Y-44356197D01*
X91493937Y-44357368D01*
X91416989Y-44358539D01*
X91282029Y-44507599D01*
X91095556Y-44720722D01*
X90824235Y-45059822D01*
X90578907Y-45404149D01*
X90569354Y-45418508D01*
X90520234Y-45494338D01*
X90465253Y-45581832D01*
X90408053Y-45674950D01*
X90352276Y-45767655D01*
X90301563Y-45853907D01*
X90259555Y-45927667D01*
X90229895Y-45982898D01*
X90192664Y-46056370D01*
X90124750Y-46056370D01*
X90146409Y-46014037D01*
X90227953Y-45860953D01*
X90305744Y-45721607D01*
X90376496Y-45602536D01*
X90377526Y-45600873D01*
X90640012Y-45204661D01*
X90923684Y-44828520D01*
X91228017Y-44472925D01*
X91368869Y-44327689D01*
X98518143Y-44327689D01*
X98724253Y-44323622D01*
X98865630Y-44320833D01*
X99060440Y-44320833D01*
X99060689Y-44321086D01*
X99078111Y-44322923D01*
X99119821Y-44324515D01*
X99181376Y-44325768D01*
X99258331Y-44326589D01*
X99346245Y-44326884D01*
X99358214Y-44326876D01*
X99444946Y-44326331D01*
X99520139Y-44325026D01*
X99579349Y-44323101D01*
X99618134Y-44320694D01*
X99632050Y-44317944D01*
X99632019Y-44317602D01*
X99625745Y-44299788D01*
X99609888Y-44260516D01*
X99586361Y-44204190D01*
X99557074Y-44135214D01*
X99523940Y-44057992D01*
X99488871Y-43976928D01*
X99453778Y-43896426D01*
X99420574Y-43820890D01*
X99391171Y-43754724D01*
X99367480Y-43702331D01*
X99351413Y-43668116D01*
X99344883Y-43656482D01*
X99338304Y-43670127D01*
X99322171Y-43706367D01*
X99298436Y-43760682D01*
X99269025Y-43828574D01*
X99235863Y-43905547D01*
X99200875Y-43987102D01*
X99165987Y-44068743D01*
X99133125Y-44145973D01*
X99104213Y-44214294D01*
X99081178Y-44269209D01*
X99065945Y-44306221D01*
X99060440Y-44320833D01*
X98865630Y-44320833D01*
X98930363Y-44319556D01*
X99116319Y-43887184D01*
X99130341Y-43854593D01*
X99179196Y-43741443D01*
X99218392Y-43651808D01*
X99249366Y-43582917D01*
X99273553Y-43532001D01*
X99292390Y-43496293D01*
X99307313Y-43473021D01*
X99319757Y-43459418D01*
X99331159Y-43452713D01*
X99342954Y-43450139D01*
X99348364Y-43449455D01*
X99358744Y-43448612D01*
X99368329Y-43450612D01*
X99378363Y-43457862D01*
X99390092Y-43472766D01*
X99404763Y-43497730D01*
X99423619Y-43535158D01*
X99447906Y-43587455D01*
X99478870Y-43657028D01*
X99517756Y-43746280D01*
X99565809Y-43857617D01*
X99624275Y-43993445D01*
X99763966Y-44317944D01*
X99767814Y-44326884D01*
X101947803Y-44326884D01*
X101977116Y-44326884D01*
X102100319Y-44326884D01*
X102043071Y-44268257D01*
X102018899Y-44243908D01*
X101993193Y-44219202D01*
X101981470Y-44209631D01*
X101980498Y-44211113D01*
X101978083Y-44231524D01*
X101977116Y-44268257D01*
X101977116Y-44326884D01*
X101947803Y-44326884D01*
X101947803Y-44255620D01*
X101947449Y-44231127D01*
X101944018Y-44205180D01*
X101933862Y-44181589D01*
X101913336Y-44154735D01*
X101878791Y-44118995D01*
X101826583Y-44068748D01*
X101768423Y-44014259D01*
X101592869Y-43859270D01*
X101399476Y-43700745D01*
X101195080Y-43544167D01*
X100986516Y-43395019D01*
X100967300Y-43381855D01*
X100877143Y-43321723D01*
X100776802Y-43256948D01*
X100672009Y-43191055D01*
X100568500Y-43127573D01*
X100472006Y-43070028D01*
X100388262Y-43021947D01*
X100323001Y-42986857D01*
X100247630Y-42948664D01*
X100247630Y-44326884D01*
X100218601Y-44326884D01*
X100214794Y-43627028D01*
X100210988Y-42927172D01*
X100059238Y-42851272D01*
X100004048Y-42824269D01*
X99914081Y-42781806D01*
X99819772Y-42738700D01*
X99734298Y-42701042D01*
X99561110Y-42626711D01*
X98518143Y-42626711D01*
X98518143Y-44327689D01*
X91368869Y-44327689D01*
X91373872Y-44322530D01*
X91453631Y-44322530D01*
X91455113Y-44323502D01*
X91475524Y-44325917D01*
X91512258Y-44326884D01*
X91570884Y-44326884D01*
X91600197Y-44326884D01*
X93300371Y-44326884D01*
X93329684Y-44326884D01*
X95029857Y-44326884D01*
X95059170Y-44326884D01*
X98488830Y-44326884D01*
X98488830Y-42626711D01*
X96788657Y-42626711D01*
X96788657Y-44326884D01*
X96759343Y-44326884D01*
X96759343Y-42626711D01*
X95059170Y-42626711D01*
X95059170Y-44326884D01*
X95029857Y-44326884D01*
X95029857Y-42626711D01*
X94505881Y-42626845D01*
X93981906Y-42626980D01*
X93820682Y-42697344D01*
X93769465Y-42719949D01*
X93676138Y-42761973D01*
X93579756Y-42806179D01*
X93494571Y-42846068D01*
X93329684Y-42924429D01*
X93329684Y-44326884D01*
X93300371Y-44326884D01*
X93300371Y-42948664D01*
X93226898Y-42985895D01*
X93114037Y-43046015D01*
X92944157Y-43145304D01*
X92763044Y-43259944D01*
X92575709Y-43386333D01*
X92387163Y-43520867D01*
X92202419Y-43659944D01*
X92026489Y-43799961D01*
X91864384Y-43937315D01*
X91721115Y-44068403D01*
X91680405Y-44107649D01*
X91641829Y-44146657D01*
X91618158Y-44175326D01*
X91605754Y-44199287D01*
X91604911Y-44203681D01*
X91600980Y-44224174D01*
X91600197Y-44255620D01*
X91600197Y-44326884D01*
X91570884Y-44326884D01*
X91570884Y-44203681D01*
X91512258Y-44260929D01*
X91487909Y-44285101D01*
X91463202Y-44310807D01*
X91453631Y-44322530D01*
X91373872Y-44322530D01*
X91552488Y-44138354D01*
X91896573Y-43825283D01*
X92259748Y-43534189D01*
X92641490Y-43265549D01*
X93041274Y-43019839D01*
X93458578Y-42797537D01*
X93484155Y-42784955D01*
X93897738Y-42597145D01*
X93929039Y-42585141D01*
X94105418Y-42585141D01*
X94114092Y-42588862D01*
X94136791Y-42591684D01*
X94176065Y-42593738D01*
X94234459Y-42595150D01*
X94314523Y-42596050D01*
X94418805Y-42596565D01*
X94549851Y-42596824D01*
X95029857Y-42597397D01*
X95058179Y-42597397D01*
X96759343Y-42597397D01*
X96759343Y-42084414D01*
X96788657Y-42084414D01*
X96788657Y-42597397D01*
X98489822Y-42597397D01*
X98518143Y-42597397D01*
X98998149Y-42596575D01*
X99478155Y-42595752D01*
X99324260Y-42537994D01*
X99319878Y-42536353D01*
X99207139Y-42496216D01*
X99075186Y-42452480D01*
X98932987Y-42407957D01*
X98789508Y-42365458D01*
X98653717Y-42327793D01*
X98518143Y-42291722D01*
X98518143Y-42597397D01*
X98489822Y-42597397D01*
X98485662Y-42440947D01*
X98481502Y-42284496D01*
X98356920Y-42257458D01*
X98229023Y-42231443D01*
X98035875Y-42197375D01*
X97830618Y-42166373D01*
X97619982Y-42139215D01*
X97410699Y-42116676D01*
X97209500Y-42099534D01*
X97023115Y-42088565D01*
X96858276Y-42084545D01*
X96788657Y-42084414D01*
X96759343Y-42084414D01*
X96759343Y-42080661D01*
X96535829Y-42090617D01*
X96295456Y-42104668D01*
X96009711Y-42129699D01*
X95730293Y-42162949D01*
X95464691Y-42203507D01*
X95220394Y-42250463D01*
X95066499Y-42283655D01*
X95066281Y-42291858D01*
X95058179Y-42597397D01*
X95029857Y-42597397D01*
X95029857Y-42291858D01*
X94835656Y-42343409D01*
X94805989Y-42351462D01*
X94722564Y-42375376D01*
X94626877Y-42404176D01*
X94524700Y-42435995D01*
X94421806Y-42468968D01*
X94323970Y-42501231D01*
X94236965Y-42530918D01*
X94166564Y-42556162D01*
X94118541Y-42575100D01*
X94108221Y-42580394D01*
X94105418Y-42585141D01*
X93929039Y-42585141D01*
X94316647Y-42436495D01*
X94743228Y-42302341D01*
X95179828Y-42194019D01*
X95628792Y-42110865D01*
X96092465Y-42052215D01*
X96104476Y-42051088D01*
X96190224Y-42045223D01*
X96299118Y-42040551D01*
X96425913Y-42037073D01*
X96565367Y-42034788D01*
X96712236Y-42033697D01*
X96861277Y-42033799D01*
X97007246Y-42035095D01*
X97144900Y-42037585D01*
X97268995Y-42041268D01*
X97374288Y-42046145D01*
X97455535Y-42052215D01*
X97492426Y-42055946D01*
X97682436Y-42080661D01*
X97915892Y-42111027D01*
X98333141Y-42187605D01*
X98738525Y-42284502D01*
X99126395Y-42400540D01*
X99249520Y-42442833D01*
X99563950Y-42562931D01*
X99639659Y-42595752D01*
X99881407Y-42700554D01*
X100195429Y-42852477D01*
G37*
D13*
X57430000Y-22980000D02*
X57430000Y-24980000D01*
X60230000Y-24980000D02*
X60230000Y-22980000D01*
X57430000Y-24980000D02*
X60230000Y-24980000D01*
X60230000Y-22980000D02*
X57430000Y-22980000D01*
M02*
