M48
; DRILL file {KiCad 6.0.7-f9a2dced07~116~ubuntu20.04.1} date Mo 05 Sep 2022 17:51:05 CEST
; FORMAT={3:3/ absolute / metric / suppress leading zeros}
; #@! TF.CreationDate,2022-09-05T17:51:05+02:00
; #@! TF.GenerationSoftware,Kicad,Pcbnew,6.0.7-f9a2dced07~116~ubuntu20.04.1
; #@! TF.FileFunction,Plated,1,2,PTH
FMAT,2
METRIC,TZ
; #@! TA.AperFunction,Plated,PTH,ComponentDrill
T1C0.800
; #@! TA.AperFunction,Plated,PTH,ComponentDrill
T2C0.900
; #@! TA.AperFunction,Plated,PTH,ComponentDrill
T3C1.000
; #@! TA.AperFunction,Plated,PTH,ComponentDrill
T4C1.190
; #@! TA.AperFunction,Plated,PTH,ComponentDrill
T5C1.200
%
G90
G05
T1
X32320Y-23020
X32320Y-28020
X44610Y-64950
X44610Y-67490
X44620Y-56080
X44620Y-61080
X44630Y-50985
X44630Y-53525
X44630Y-70050
X44630Y-75050
X73565Y-25620
X76105Y-25620
X82070Y-63655
X82070Y-66195
X82080Y-57200
X82080Y-59740
X88880Y-69940
X88880Y-74940
X95700Y-64920
X98240Y-64920
T2
X57775Y-71710
X57775Y-76590
X62855Y-71710
X62855Y-76590
T3
X26070Y-50990
X26070Y-53530
X26070Y-56070
X26070Y-58610
X26080Y-64960
X26080Y-67500
X26080Y-70040
X26080Y-72580
X26084Y-36720
X26084Y-39260
X26084Y-41800
X26084Y-44340
X31070Y-64956
X31070Y-67496
X31070Y-70036
X31070Y-72576
X31090Y-50990
X31090Y-53530
X31090Y-56070
X31090Y-58610
X31574Y-36720
X31574Y-39260
X31574Y-41800
X31574Y-44340
X32885Y-79200
X35425Y-79200
X35455Y-17130
X37162Y-36720
X37162Y-39260
X37162Y-41800
X37162Y-44340
X37965Y-79200
X37995Y-17130
X39350Y-50990
X39350Y-53530
X39350Y-56070
X39350Y-58610
X39360Y-64960
X39360Y-67500
X39360Y-70040
X39360Y-72580
X40535Y-17130
X42750Y-36720
X42750Y-39260
X42750Y-41800
X42750Y-44340
X50420Y-76590
X50590Y-17130
X51054Y-28194
X51054Y-30734
X51054Y-33274
X51054Y-35814
X51054Y-38354
X51054Y-40894
X51054Y-43434
X51054Y-45974
X51054Y-48514
X51054Y-51054
X51054Y-53594
X51054Y-56134
X51054Y-58674
X51054Y-61214
X51054Y-63754
X52960Y-76590
X53130Y-17130
X55670Y-17130
X60870Y-17130
X63410Y-17130
X65950Y-17130
X66294Y-28194
X66294Y-30734
X66294Y-33274
X66294Y-35814
X66294Y-38354
X66294Y-40894
X66294Y-43434
X66294Y-45974
X66294Y-48514
X66294Y-51054
X66294Y-53594
X66294Y-56134
X66294Y-58674
X66294Y-61214
X66294Y-63754
X68490Y-17130
X71030Y-17130
X71885Y-60090
X71885Y-63750
X73155Y-43460
X73160Y-47210
X73570Y-17130
X74425Y-60090
X74425Y-63750
X75685Y-34260
X75685Y-38030
X75695Y-43460
X75700Y-47210
X75710Y-52790
X76110Y-17130
X78225Y-34260
X78225Y-38030
X78235Y-43460
X78240Y-47210
X78250Y-52790
X78650Y-17130
X85590Y-28640
X85590Y-31180
X85590Y-33720
X85590Y-36260
X85590Y-38800
X85590Y-41340
X85590Y-43880
X85590Y-46420
X93160Y-35760
X93160Y-38300
X95700Y-35760
X95700Y-38300
X98240Y-35760
X98240Y-38300
X100780Y-35760
X100780Y-38300
X106580Y-64940
X106580Y-69940
X108450Y-28640
X108450Y-31180
X108450Y-33720
X108450Y-36260
X108450Y-38800
X108450Y-41340
X108450Y-43880
X108450Y-46420
T4
X25550Y-25470
X25550Y-28010
T5
X42080Y-22914
X42080Y-30414
X76790Y-70620
X76790Y-78120
T0
M30
