G04 #@! TF.GenerationSoftware,KiCad,Pcbnew,6.0.7-f9a2dced07~116~ubuntu20.04.1*
G04 #@! TF.CreationDate,2022-09-05T17:51:23+02:00*
G04 #@! TF.ProjectId,TaupunktLuefter,54617570-756e-46b7-944c-756566746572,1.5*
G04 #@! TF.SameCoordinates,Original*
G04 #@! TF.FileFunction,Legend,Top*
G04 #@! TF.FilePolarity,Positive*
%FSLAX46Y46*%
G04 Gerber Fmt 4.6, Leading zero omitted, Abs format (unit mm)*
G04 Created by KiCad (PCBNEW 6.0.7-f9a2dced07~116~ubuntu20.04.1) date 2022-09-05 17:51:23*
%MOMM*%
%LPD*%
G01*
G04 APERTURE LIST*
%ADD10C,0.120000*%
%ADD11C,0.150000*%
%ADD12C,0.300000*%
%ADD13C,0.220000*%
%ADD14C,0.110000*%
%ADD15C,0.200000*%
G04 APERTURE END LIST*
D10*
X96520000Y-81530000D02*
X103370000Y-81530000D01*
X103370000Y-81530000D02*
X103370000Y-83650000D01*
X103370000Y-83650000D02*
X96520000Y-83650000D01*
X96520000Y-83650000D02*
X96520000Y-81530000D01*
X90220000Y-40910000D02*
X103760000Y-40910000D01*
X103760000Y-40910000D02*
X103760000Y-48820000D01*
X103760000Y-48820000D02*
X90220000Y-48820000D01*
X90220000Y-48820000D02*
X90220000Y-40910000D01*
X90230000Y-44800000D02*
X103760000Y-44800000D01*
X97030000Y-40920000D02*
X97040000Y-48810000D01*
X103610000Y-40295000D02*
X90260000Y-40295000D01*
X90260000Y-40295000D02*
X90260000Y-16245000D01*
X90260000Y-16245000D02*
X103610000Y-16245000D01*
X103610000Y-16245000D02*
X103610000Y-40295000D01*
X93650000Y-40920000D02*
X93650000Y-48820000D01*
X100400000Y-40920000D02*
X100400000Y-48820000D01*
D11*
X102592380Y-43076666D02*
X102116190Y-43410000D01*
X102592380Y-43648095D02*
X101592380Y-43648095D01*
X101592380Y-43267142D01*
X101640000Y-43171904D01*
X101687619Y-43124285D01*
X101782857Y-43076666D01*
X101925714Y-43076666D01*
X102020952Y-43124285D01*
X102068571Y-43171904D01*
X102116190Y-43267142D01*
X102116190Y-43648095D01*
X101592380Y-42743333D02*
X102592380Y-42076666D01*
X101592380Y-42076666D02*
X102592380Y-42743333D01*
D12*
X72608571Y-49787142D02*
X73751428Y-49787142D01*
X73180000Y-50358571D02*
X73180000Y-49215714D01*
D13*
X21250714Y-24993809D02*
X21250714Y-25946190D01*
X21250714Y-27493809D02*
X21250714Y-28446190D01*
X20774523Y-27970000D02*
X21726904Y-27970000D01*
X22104285Y-36202857D02*
X22104285Y-37117142D01*
X21647142Y-36660000D02*
X22561428Y-36660000D01*
X22577142Y-72464285D02*
X21662857Y-72464285D01*
X21098571Y-70495714D02*
X21270000Y-70552857D01*
X21555714Y-70552857D01*
X21670000Y-70495714D01*
X21727142Y-70438571D01*
X21784285Y-70324285D01*
X21784285Y-70210000D01*
X21727142Y-70095714D01*
X21670000Y-70038571D01*
X21555714Y-69981428D01*
X21327142Y-69924285D01*
X21212857Y-69867142D01*
X21155714Y-69810000D01*
X21098571Y-69695714D01*
X21098571Y-69581428D01*
X21155714Y-69467142D01*
X21212857Y-69410000D01*
X21327142Y-69352857D01*
X21612857Y-69352857D01*
X21784285Y-69410000D01*
X22298571Y-70552857D02*
X22298571Y-69352857D01*
X22812857Y-70552857D02*
X22812857Y-69924285D01*
X22755714Y-69810000D01*
X22641428Y-69752857D01*
X22470000Y-69752857D01*
X22355714Y-69810000D01*
X22298571Y-69867142D01*
X23384285Y-70438571D02*
X23441428Y-70495714D01*
X23384285Y-70552857D01*
X23327142Y-70495714D01*
X23384285Y-70438571D01*
X23384285Y-70552857D01*
D14*
X61125114Y-21662857D02*
X61125114Y-21068571D01*
X61422257Y-21365714D02*
X60827971Y-21365714D01*
X60642257Y-20325714D02*
X60642257Y-20697142D01*
X61013685Y-20734285D01*
X60976542Y-20697142D01*
X60939400Y-20622857D01*
X60939400Y-20437142D01*
X60976542Y-20362857D01*
X61013685Y-20325714D01*
X61087971Y-20288571D01*
X61273685Y-20288571D01*
X61347971Y-20325714D01*
X61385114Y-20362857D01*
X61422257Y-20437142D01*
X61422257Y-20622857D01*
X61385114Y-20697142D01*
X61347971Y-20734285D01*
X60642257Y-20065714D02*
X61422257Y-19805714D01*
X60642257Y-19545714D01*
X63153857Y-21625714D02*
X63153857Y-21142857D01*
X63451000Y-21402857D01*
X63451000Y-21291428D01*
X63488142Y-21217142D01*
X63525285Y-21180000D01*
X63599571Y-21142857D01*
X63785285Y-21142857D01*
X63859571Y-21180000D01*
X63896714Y-21217142D01*
X63933857Y-21291428D01*
X63933857Y-21514285D01*
X63896714Y-21588571D01*
X63859571Y-21625714D01*
X63153857Y-20920000D02*
X63933857Y-20660000D01*
X63153857Y-20400000D01*
X63153857Y-20214285D02*
X63153857Y-19731428D01*
X63451000Y-19991428D01*
X63451000Y-19880000D01*
X63488142Y-19805714D01*
X63525285Y-19768571D01*
X63599571Y-19731428D01*
X63785285Y-19731428D01*
X63859571Y-19768571D01*
X63896714Y-19805714D01*
X63933857Y-19880000D01*
X63933857Y-20102857D01*
X63896714Y-20177142D01*
X63859571Y-20214285D01*
X66408314Y-21662857D02*
X66445457Y-21551428D01*
X66445457Y-21365714D01*
X66408314Y-21291428D01*
X66371171Y-21254285D01*
X66296885Y-21217142D01*
X66222600Y-21217142D01*
X66148314Y-21254285D01*
X66111171Y-21291428D01*
X66074028Y-21365714D01*
X66036885Y-21514285D01*
X65999742Y-21588571D01*
X65962600Y-21625714D01*
X65888314Y-21662857D01*
X65814028Y-21662857D01*
X65739742Y-21625714D01*
X65702600Y-21588571D01*
X65665457Y-21514285D01*
X65665457Y-21328571D01*
X65702600Y-21217142D01*
X66371171Y-20437142D02*
X66408314Y-20474285D01*
X66445457Y-20585714D01*
X66445457Y-20660000D01*
X66408314Y-20771428D01*
X66334028Y-20845714D01*
X66259742Y-20882857D01*
X66111171Y-20920000D01*
X65999742Y-20920000D01*
X65851171Y-20882857D01*
X65776885Y-20845714D01*
X65702600Y-20771428D01*
X65665457Y-20660000D01*
X65665457Y-20585714D01*
X65702600Y-20474285D01*
X65739742Y-20437142D01*
X66445457Y-20102857D02*
X65665457Y-20102857D01*
X66445457Y-19657142D02*
X65999742Y-19991428D01*
X65665457Y-19657142D02*
X66111171Y-20102857D01*
X68957057Y-21885714D02*
X68177057Y-21885714D01*
X68734200Y-21625714D01*
X68177057Y-21365714D01*
X68957057Y-21365714D01*
X68957057Y-20994285D02*
X68177057Y-20994285D01*
X68919914Y-20660000D02*
X68957057Y-20548571D01*
X68957057Y-20362857D01*
X68919914Y-20288571D01*
X68882771Y-20251428D01*
X68808485Y-20214285D01*
X68734200Y-20214285D01*
X68659914Y-20251428D01*
X68622771Y-20288571D01*
X68585628Y-20362857D01*
X68548485Y-20511428D01*
X68511342Y-20585714D01*
X68474200Y-20622857D01*
X68399914Y-20660000D01*
X68325628Y-20660000D01*
X68251342Y-20622857D01*
X68214200Y-20585714D01*
X68177057Y-20511428D01*
X68177057Y-20325714D01*
X68214200Y-20214285D01*
X68177057Y-19731428D02*
X68177057Y-19582857D01*
X68214200Y-19508571D01*
X68288485Y-19434285D01*
X68437057Y-19397142D01*
X68697057Y-19397142D01*
X68845628Y-19434285D01*
X68919914Y-19508571D01*
X68957057Y-19582857D01*
X68957057Y-19731428D01*
X68919914Y-19805714D01*
X68845628Y-19880000D01*
X68697057Y-19917142D01*
X68437057Y-19917142D01*
X68288485Y-19880000D01*
X68214200Y-19805714D01*
X68177057Y-19731428D01*
X71468657Y-21885714D02*
X70688657Y-21885714D01*
X71245800Y-21625714D01*
X70688657Y-21365714D01*
X71468657Y-21365714D01*
X70688657Y-20845714D02*
X70688657Y-20697142D01*
X70725800Y-20622857D01*
X70800085Y-20548571D01*
X70948657Y-20511428D01*
X71208657Y-20511428D01*
X71357228Y-20548571D01*
X71431514Y-20622857D01*
X71468657Y-20697142D01*
X71468657Y-20845714D01*
X71431514Y-20920000D01*
X71357228Y-20994285D01*
X71208657Y-21031428D01*
X70948657Y-21031428D01*
X70800085Y-20994285D01*
X70725800Y-20920000D01*
X70688657Y-20845714D01*
X71431514Y-20214285D02*
X71468657Y-20102857D01*
X71468657Y-19917142D01*
X71431514Y-19842857D01*
X71394371Y-19805714D01*
X71320085Y-19768571D01*
X71245800Y-19768571D01*
X71171514Y-19805714D01*
X71134371Y-19842857D01*
X71097228Y-19917142D01*
X71060085Y-20065714D01*
X71022942Y-20140000D01*
X70985800Y-20177142D01*
X70911514Y-20214285D01*
X70837228Y-20214285D01*
X70762942Y-20177142D01*
X70725800Y-20140000D01*
X70688657Y-20065714D01*
X70688657Y-19880000D01*
X70725800Y-19768571D01*
X71468657Y-19434285D02*
X70688657Y-19434285D01*
X73943114Y-21551428D02*
X73980257Y-21440000D01*
X73980257Y-21254285D01*
X73943114Y-21180000D01*
X73905971Y-21142857D01*
X73831685Y-21105714D01*
X73757400Y-21105714D01*
X73683114Y-21142857D01*
X73645971Y-21180000D01*
X73608828Y-21254285D01*
X73571685Y-21402857D01*
X73534542Y-21477142D01*
X73497400Y-21514285D01*
X73423114Y-21551428D01*
X73348828Y-21551428D01*
X73274542Y-21514285D01*
X73237400Y-21477142D01*
X73200257Y-21402857D01*
X73200257Y-21217142D01*
X73237400Y-21105714D01*
X73571685Y-20771428D02*
X73571685Y-20511428D01*
X73980257Y-20400000D02*
X73980257Y-20771428D01*
X73200257Y-20771428D01*
X73200257Y-20400000D01*
X73980257Y-19694285D02*
X73980257Y-20065714D01*
X73200257Y-20065714D01*
X76491857Y-21700000D02*
X76491857Y-22071428D01*
X75711857Y-22071428D01*
X76491857Y-21440000D02*
X75711857Y-21440000D01*
X75749000Y-20660000D02*
X75711857Y-20734285D01*
X75711857Y-20845714D01*
X75749000Y-20957142D01*
X75823285Y-21031428D01*
X75897571Y-21068571D01*
X76046142Y-21105714D01*
X76157571Y-21105714D01*
X76306142Y-21068571D01*
X76380428Y-21031428D01*
X76454714Y-20957142D01*
X76491857Y-20845714D01*
X76491857Y-20771428D01*
X76454714Y-20660000D01*
X76417571Y-20622857D01*
X76157571Y-20622857D01*
X76157571Y-20771428D01*
X76491857Y-20288571D02*
X75711857Y-20288571D01*
X76083285Y-20288571D02*
X76083285Y-19842857D01*
X76491857Y-19842857D02*
X75711857Y-19842857D01*
X75711857Y-19582857D02*
X75711857Y-19137142D01*
X76491857Y-19360000D02*
X75711857Y-19360000D01*
X78260600Y-21254285D02*
X78223457Y-21328571D01*
X78223457Y-21440000D01*
X78260600Y-21551428D01*
X78334885Y-21625714D01*
X78409171Y-21662857D01*
X78557742Y-21700000D01*
X78669171Y-21700000D01*
X78817742Y-21662857D01*
X78892028Y-21625714D01*
X78966314Y-21551428D01*
X79003457Y-21440000D01*
X79003457Y-21365714D01*
X78966314Y-21254285D01*
X78929171Y-21217142D01*
X78669171Y-21217142D01*
X78669171Y-21365714D01*
X79003457Y-20882857D02*
X78223457Y-20882857D01*
X79003457Y-20437142D01*
X78223457Y-20437142D01*
X79003457Y-20065714D02*
X78223457Y-20065714D01*
X78223457Y-19880000D01*
X78260600Y-19768571D01*
X78334885Y-19694285D01*
X78409171Y-19657142D01*
X78557742Y-19620000D01*
X78669171Y-19620000D01*
X78817742Y-19657142D01*
X78892028Y-19694285D01*
X78966314Y-19768571D01*
X79003457Y-19880000D01*
X79003457Y-20065714D01*
D11*
X42920000Y-83060000D02*
X43920000Y-83060000D01*
X42720000Y-83660000D02*
X43420000Y-81560000D01*
X44120000Y-83660000D01*
X44820000Y-83660000D02*
X44820000Y-82260000D01*
X44820000Y-82660000D02*
X44920000Y-82460000D01*
X45020000Y-82360000D01*
X45220000Y-82260000D01*
X45420000Y-82260000D01*
X47020000Y-83660000D02*
X47020000Y-81560000D01*
X47020000Y-83560000D02*
X46820000Y-83660000D01*
X46420000Y-83660000D01*
X46220000Y-83560000D01*
X46120000Y-83460000D01*
X46020000Y-83260000D01*
X46020000Y-82660000D01*
X46120000Y-82460000D01*
X46220000Y-82360000D01*
X46420000Y-82260000D01*
X46820000Y-82260000D01*
X47020000Y-82360000D01*
X48920000Y-82260000D02*
X48920000Y-83660000D01*
X48020000Y-82260000D02*
X48020000Y-83360000D01*
X48120000Y-83560000D01*
X48320000Y-83660000D01*
X48620000Y-83660000D01*
X48820000Y-83560000D01*
X48920000Y-83460000D01*
X49920000Y-83660000D02*
X49920000Y-82260000D01*
X49920000Y-81560000D02*
X49820000Y-81660000D01*
X49920000Y-81760000D01*
X50020000Y-81660000D01*
X49920000Y-81560000D01*
X49920000Y-81760000D01*
X50920000Y-82260000D02*
X50920000Y-83660000D01*
X50920000Y-82460000D02*
X51020000Y-82360000D01*
X51220000Y-82260000D01*
X51520000Y-82260000D01*
X51720000Y-82360000D01*
X51820000Y-82560000D01*
X51820000Y-83660000D01*
X53120000Y-83660000D02*
X52920000Y-83560000D01*
X52820000Y-83460000D01*
X52720000Y-83260000D01*
X52720000Y-82660000D01*
X52820000Y-82460000D01*
X52920000Y-82360000D01*
X53120000Y-82260000D01*
X53420000Y-82260000D01*
X53620000Y-82360000D01*
X53720000Y-82460000D01*
X53820000Y-82660000D01*
X53820000Y-83260000D01*
X53720000Y-83460000D01*
X53620000Y-83560000D01*
X53420000Y-83660000D01*
X53120000Y-83660000D01*
X56320000Y-83660000D02*
X56320000Y-81560000D01*
X57520000Y-83660000D01*
X57520000Y-81560000D01*
X59420000Y-83660000D02*
X59420000Y-82560000D01*
X59320000Y-82360000D01*
X59120000Y-82260000D01*
X58720000Y-82260000D01*
X58520000Y-82360000D01*
X59420000Y-83560000D02*
X59220000Y-83660000D01*
X58720000Y-83660000D01*
X58520000Y-83560000D01*
X58420000Y-83360000D01*
X58420000Y-83160000D01*
X58520000Y-82960000D01*
X58720000Y-82860000D01*
X59220000Y-82860000D01*
X59420000Y-82760000D01*
X60420000Y-82260000D02*
X60420000Y-83660000D01*
X60420000Y-82460000D02*
X60520000Y-82360000D01*
X60720000Y-82260000D01*
X61020000Y-82260000D01*
X61220000Y-82360000D01*
X61320000Y-82560000D01*
X61320000Y-83660000D01*
X62620000Y-83660000D02*
X62420000Y-83560000D01*
X62320000Y-83460000D01*
X62220000Y-83260000D01*
X62220000Y-82660000D01*
X62320000Y-82460000D01*
X62420000Y-82360000D01*
X62620000Y-82260000D01*
X62920000Y-82260000D01*
X63120000Y-82360000D01*
X63220000Y-82460000D01*
X63320000Y-82660000D01*
X63320000Y-83260000D01*
X63220000Y-83460000D01*
X63120000Y-83560000D01*
X62920000Y-83660000D01*
X62620000Y-83660000D01*
X65820000Y-81560000D02*
X65820000Y-83260000D01*
X65920000Y-83460000D01*
X66020000Y-83560000D01*
X66220000Y-83660000D01*
X66620000Y-83660000D01*
X66820000Y-83560000D01*
X66920000Y-83460000D01*
X67020000Y-83260000D01*
X67020000Y-81560000D01*
X68020000Y-82260000D02*
X68020000Y-83660000D01*
X68020000Y-82460000D02*
X68120000Y-82360000D01*
X68320000Y-82260000D01*
X68620000Y-82260000D01*
X68820000Y-82360000D01*
X68920000Y-82560000D01*
X68920000Y-83660000D01*
X69920000Y-83660000D02*
X69920000Y-82260000D01*
X69920000Y-81560000D02*
X69820000Y-81660000D01*
X69920000Y-81760000D01*
X70020000Y-81660000D01*
X69920000Y-81560000D01*
X69920000Y-81760000D01*
X70720000Y-82260000D02*
X71220000Y-83660000D01*
X71720000Y-82260000D01*
X73320000Y-83560000D02*
X73120000Y-83660000D01*
X72720000Y-83660000D01*
X72520000Y-83560000D01*
X72420000Y-83360000D01*
X72420000Y-82560000D01*
X72520000Y-82360000D01*
X72720000Y-82260000D01*
X73120000Y-82260000D01*
X73320000Y-82360000D01*
X73420000Y-82560000D01*
X73420000Y-82760000D01*
X72420000Y-82960000D01*
X74320000Y-83660000D02*
X74320000Y-82260000D01*
X74320000Y-82660000D02*
X74420000Y-82460000D01*
X74520000Y-82360000D01*
X74720000Y-82260000D01*
X74920000Y-82260000D01*
X75520000Y-83560000D02*
X75720000Y-83660000D01*
X76120000Y-83660000D01*
X76320000Y-83560000D01*
X76420000Y-83360000D01*
X76420000Y-83260000D01*
X76320000Y-83060000D01*
X76120000Y-82960000D01*
X75820000Y-82960000D01*
X75620000Y-82860000D01*
X75520000Y-82660000D01*
X75520000Y-82560000D01*
X75620000Y-82360000D01*
X75820000Y-82260000D01*
X76120000Y-82260000D01*
X76320000Y-82360000D01*
X78220000Y-83660000D02*
X78220000Y-82560000D01*
X78120000Y-82360000D01*
X77920000Y-82260000D01*
X77520000Y-82260000D01*
X77320000Y-82360000D01*
X78220000Y-83560000D02*
X78020000Y-83660000D01*
X77520000Y-83660000D01*
X77320000Y-83560000D01*
X77220000Y-83360000D01*
X77220000Y-83160000D01*
X77320000Y-82960000D01*
X77520000Y-82860000D01*
X78020000Y-82860000D01*
X78220000Y-82760000D01*
X79520000Y-83660000D02*
X79320000Y-83560000D01*
X79220000Y-83360000D01*
X79220000Y-81560000D01*
X82620000Y-82560000D02*
X82920000Y-82660000D01*
X83020000Y-82760000D01*
X83120000Y-82960000D01*
X83120000Y-83260000D01*
X83020000Y-83460000D01*
X82920000Y-83560000D01*
X82720000Y-83660000D01*
X81920000Y-83660000D01*
X81920000Y-81560000D01*
X82620000Y-81560000D01*
X82820000Y-81660000D01*
X82920000Y-81760000D01*
X83020000Y-81960000D01*
X83020000Y-82160000D01*
X82920000Y-82360000D01*
X82820000Y-82460000D01*
X82620000Y-82560000D01*
X81920000Y-82560000D01*
X84320000Y-83660000D02*
X84120000Y-83560000D01*
X84020000Y-83460000D01*
X83920000Y-83260000D01*
X83920000Y-82660000D01*
X84020000Y-82460000D01*
X84120000Y-82360000D01*
X84320000Y-82260000D01*
X84620000Y-82260000D01*
X84820000Y-82360000D01*
X84920000Y-82460000D01*
X85020000Y-82660000D01*
X85020000Y-83260000D01*
X84920000Y-83460000D01*
X84820000Y-83560000D01*
X84620000Y-83660000D01*
X84320000Y-83660000D01*
X86820000Y-83660000D02*
X86820000Y-82560000D01*
X86720000Y-82360000D01*
X86520000Y-82260000D01*
X86120000Y-82260000D01*
X85920000Y-82360000D01*
X86820000Y-83560000D02*
X86620000Y-83660000D01*
X86120000Y-83660000D01*
X85920000Y-83560000D01*
X85820000Y-83360000D01*
X85820000Y-83160000D01*
X85920000Y-82960000D01*
X86120000Y-82860000D01*
X86620000Y-82860000D01*
X86820000Y-82760000D01*
X87820000Y-83660000D02*
X87820000Y-82260000D01*
X87820000Y-82660000D02*
X87920000Y-82460000D01*
X88020000Y-82360000D01*
X88220000Y-82260000D01*
X88420000Y-82260000D01*
X90020000Y-83660000D02*
X90020000Y-81560000D01*
X90020000Y-83560000D02*
X89820000Y-83660000D01*
X89420000Y-83660000D01*
X89220000Y-83560000D01*
X89120000Y-83460000D01*
X89020000Y-83260000D01*
X89020000Y-82660000D01*
X89120000Y-82460000D01*
X89220000Y-82360000D01*
X89420000Y-82260000D01*
X89820000Y-82260000D01*
X90020000Y-82360000D01*
D15*
X20611428Y-42315714D02*
X20782857Y-42372857D01*
X21068571Y-42372857D01*
X21182857Y-42315714D01*
X21240000Y-42258571D01*
X21297142Y-42144285D01*
X21297142Y-42030000D01*
X21240000Y-41915714D01*
X21182857Y-41858571D01*
X21068571Y-41801428D01*
X20840000Y-41744285D01*
X20725714Y-41687142D01*
X20668571Y-41630000D01*
X20611428Y-41515714D01*
X20611428Y-41401428D01*
X20668571Y-41287142D01*
X20725714Y-41230000D01*
X20840000Y-41172857D01*
X21125714Y-41172857D01*
X21297142Y-41230000D01*
X22497142Y-42258571D02*
X22440000Y-42315714D01*
X22268571Y-42372857D01*
X22154285Y-42372857D01*
X21982857Y-42315714D01*
X21868571Y-42201428D01*
X21811428Y-42087142D01*
X21754285Y-41858571D01*
X21754285Y-41687142D01*
X21811428Y-41458571D01*
X21868571Y-41344285D01*
X21982857Y-41230000D01*
X22154285Y-41172857D01*
X22268571Y-41172857D01*
X22440000Y-41230000D01*
X22497142Y-41287142D01*
X23582857Y-42372857D02*
X23011428Y-42372857D01*
X23011428Y-41172857D01*
X20582857Y-39605714D02*
X20754285Y-39662857D01*
X21040000Y-39662857D01*
X21154285Y-39605714D01*
X21211428Y-39548571D01*
X21268571Y-39434285D01*
X21268571Y-39320000D01*
X21211428Y-39205714D01*
X21154285Y-39148571D01*
X21040000Y-39091428D01*
X20811428Y-39034285D01*
X20697142Y-38977142D01*
X20640000Y-38920000D01*
X20582857Y-38805714D01*
X20582857Y-38691428D01*
X20640000Y-38577142D01*
X20697142Y-38520000D01*
X20811428Y-38462857D01*
X21097142Y-38462857D01*
X21268571Y-38520000D01*
X21782857Y-39662857D02*
X21782857Y-38462857D01*
X22068571Y-38462857D01*
X22240000Y-38520000D01*
X22354285Y-38634285D01*
X22411428Y-38748571D01*
X22468571Y-38977142D01*
X22468571Y-39148571D01*
X22411428Y-39377142D01*
X22354285Y-39491428D01*
X22240000Y-39605714D01*
X22068571Y-39662857D01*
X21782857Y-39662857D01*
X22925714Y-39320000D02*
X23497142Y-39320000D01*
X22811428Y-39662857D02*
X23211428Y-38462857D01*
X23611428Y-39662857D01*
D11*
X91462380Y-47631904D02*
X91462380Y-47060476D01*
X92462380Y-47346190D02*
X91462380Y-47346190D01*
X91462380Y-46822380D02*
X92462380Y-46155714D01*
X91462380Y-46155714D02*
X92462380Y-46822380D01*
D12*
X77688571Y-49727142D02*
X78831428Y-49727142D01*
D11*
X95358571Y-47618095D02*
X95358571Y-47284761D01*
X95882380Y-47141904D02*
X95882380Y-47618095D01*
X94882380Y-47618095D01*
X94882380Y-47141904D01*
X95882380Y-46713333D02*
X94882380Y-46713333D01*
X95882380Y-46141904D01*
X94882380Y-46141904D01*
D13*
X20308571Y-68012857D02*
X20308571Y-66812857D01*
X20594285Y-66812857D01*
X20765714Y-66870000D01*
X20880000Y-66984285D01*
X20937142Y-67098571D01*
X20994285Y-67327142D01*
X20994285Y-67498571D01*
X20937142Y-67727142D01*
X20880000Y-67841428D01*
X20765714Y-67955714D01*
X20594285Y-68012857D01*
X20308571Y-68012857D01*
X21451428Y-67670000D02*
X22022857Y-67670000D01*
X21337142Y-68012857D02*
X21737142Y-66812857D01*
X22137142Y-68012857D01*
X22365714Y-66812857D02*
X23051428Y-66812857D01*
X22708571Y-68012857D02*
X22708571Y-66812857D01*
X23394285Y-67670000D02*
X23965714Y-67670000D01*
X23280000Y-68012857D02*
X23680000Y-66812857D01*
X24080000Y-68012857D01*
D11*
X91480000Y-43631904D02*
X91432380Y-43727142D01*
X91432380Y-43870000D01*
X91480000Y-44012857D01*
X91575238Y-44108095D01*
X91670476Y-44155714D01*
X91860952Y-44203333D01*
X92003809Y-44203333D01*
X92194285Y-44155714D01*
X92289523Y-44108095D01*
X92384761Y-44012857D01*
X92432380Y-43870000D01*
X92432380Y-43774761D01*
X92384761Y-43631904D01*
X92337142Y-43584285D01*
X92003809Y-43584285D01*
X92003809Y-43774761D01*
X92432380Y-43155714D02*
X91432380Y-43155714D01*
X92432380Y-42584285D01*
X91432380Y-42584285D01*
X92432380Y-42108095D02*
X91432380Y-42108095D01*
X91432380Y-41870000D01*
X91480000Y-41727142D01*
X91575238Y-41631904D01*
X91670476Y-41584285D01*
X91860952Y-41536666D01*
X92003809Y-41536666D01*
X92194285Y-41584285D01*
X92289523Y-41631904D01*
X92384761Y-41727142D01*
X92432380Y-41870000D01*
X92432380Y-42108095D01*
D13*
X22144285Y-50502857D02*
X22144285Y-51417142D01*
X21687142Y-50960000D02*
X22601428Y-50960000D01*
D11*
X97590476Y-83072380D02*
X97257142Y-82596190D01*
X97019047Y-83072380D02*
X97019047Y-82072380D01*
X97400000Y-82072380D01*
X97495238Y-82120000D01*
X97542857Y-82167619D01*
X97590476Y-82262857D01*
X97590476Y-82405714D01*
X97542857Y-82500952D01*
X97495238Y-82548571D01*
X97400000Y-82596190D01*
X97019047Y-82596190D01*
X98400000Y-83024761D02*
X98304761Y-83072380D01*
X98114285Y-83072380D01*
X98019047Y-83024761D01*
X97971428Y-82929523D01*
X97971428Y-82548571D01*
X98019047Y-82453333D01*
X98114285Y-82405714D01*
X98304761Y-82405714D01*
X98400000Y-82453333D01*
X98447619Y-82548571D01*
X98447619Y-82643809D01*
X97971428Y-82739047D01*
X98780952Y-82405714D02*
X99019047Y-83072380D01*
X99257142Y-82405714D01*
X99638095Y-82977142D02*
X99685714Y-83024761D01*
X99638095Y-83072380D01*
X99590476Y-83024761D01*
X99638095Y-82977142D01*
X99638095Y-83072380D01*
X101400000Y-83072380D02*
X100828571Y-83072380D01*
X101114285Y-83072380D02*
X101114285Y-82072380D01*
X101019047Y-82215238D01*
X100923809Y-82310476D01*
X100828571Y-82358095D01*
X101828571Y-82977142D02*
X101876190Y-83024761D01*
X101828571Y-83072380D01*
X101780952Y-83024761D01*
X101828571Y-82977142D01*
X101828571Y-83072380D01*
X102780952Y-82072380D02*
X102304761Y-82072380D01*
X102257142Y-82548571D01*
X102304761Y-82500952D01*
X102400000Y-82453333D01*
X102638095Y-82453333D01*
X102733333Y-82500952D01*
X102780952Y-82548571D01*
X102828571Y-82643809D01*
X102828571Y-82881904D01*
X102780952Y-82977142D01*
X102733333Y-83024761D01*
X102638095Y-83072380D01*
X102400000Y-83072380D01*
X102304761Y-83024761D01*
X102257142Y-82977142D01*
X99232380Y-47327619D02*
X98756190Y-47660952D01*
X99232380Y-47899047D02*
X98232380Y-47899047D01*
X98232380Y-47518095D01*
X98280000Y-47422857D01*
X98327619Y-47375238D01*
X98422857Y-47327619D01*
X98565714Y-47327619D01*
X98660952Y-47375238D01*
X98708571Y-47422857D01*
X98756190Y-47518095D01*
X98756190Y-47899047D01*
X99184761Y-46946666D02*
X99232380Y-46803809D01*
X99232380Y-46565714D01*
X99184761Y-46470476D01*
X99137142Y-46422857D01*
X99041904Y-46375238D01*
X98946666Y-46375238D01*
X98851428Y-46422857D01*
X98803809Y-46470476D01*
X98756190Y-46565714D01*
X98708571Y-46756190D01*
X98660952Y-46851428D01*
X98613333Y-46899047D01*
X98518095Y-46946666D01*
X98422857Y-46946666D01*
X98327619Y-46899047D01*
X98280000Y-46851428D01*
X98232380Y-46756190D01*
X98232380Y-46518095D01*
X98280000Y-46375238D01*
X98232380Y-46089523D02*
X98232380Y-45518095D01*
X99232380Y-45803809D02*
X98232380Y-45803809D01*
X94025000Y-43208095D02*
X93977380Y-43303333D01*
X93977380Y-43446190D01*
X94025000Y-43589047D01*
X94120238Y-43684285D01*
X94215476Y-43731904D01*
X94405952Y-43779523D01*
X94548809Y-43779523D01*
X94739285Y-43731904D01*
X94834523Y-43684285D01*
X94929761Y-43589047D01*
X94977380Y-43446190D01*
X94977380Y-43350952D01*
X94929761Y-43208095D01*
X94882142Y-43160476D01*
X94548809Y-43160476D01*
X94548809Y-43350952D01*
X94977380Y-42731904D02*
X93977380Y-42731904D01*
X93977380Y-42350952D01*
X94025000Y-42255714D01*
X94072619Y-42208095D01*
X94167857Y-42160476D01*
X94310714Y-42160476D01*
X94405952Y-42208095D01*
X94453571Y-42255714D01*
X94501190Y-42350952D01*
X94501190Y-42731904D01*
X96587380Y-43970000D02*
X95587380Y-43970000D01*
X95587380Y-43303333D02*
X95587380Y-43112857D01*
X95635000Y-43017619D01*
X95730238Y-42922380D01*
X95920714Y-42874761D01*
X96254047Y-42874761D01*
X96444523Y-42922380D01*
X96539761Y-43017619D01*
X96587380Y-43112857D01*
X96587380Y-43303333D01*
X96539761Y-43398571D01*
X96444523Y-43493809D01*
X96254047Y-43541428D01*
X95920714Y-43541428D01*
X95730238Y-43493809D01*
X95635000Y-43398571D01*
X95587380Y-43303333D01*
X95682619Y-42493809D02*
X95635000Y-42446190D01*
X95587380Y-42350952D01*
X95587380Y-42112857D01*
X95635000Y-42017619D01*
X95682619Y-41970000D01*
X95777857Y-41922380D01*
X95873095Y-41922380D01*
X96015952Y-41970000D01*
X96587380Y-42541428D01*
X96587380Y-41922380D01*
X101592380Y-48043333D02*
X102592380Y-47710000D01*
X101592380Y-47376666D01*
X102497142Y-46471904D02*
X102544761Y-46519523D01*
X102592380Y-46662380D01*
X102592380Y-46757619D01*
X102544761Y-46900476D01*
X102449523Y-46995714D01*
X102354285Y-47043333D01*
X102163809Y-47090952D01*
X102020952Y-47090952D01*
X101830476Y-47043333D01*
X101735238Y-46995714D01*
X101640000Y-46900476D01*
X101592380Y-46757619D01*
X101592380Y-46662380D01*
X101640000Y-46519523D01*
X101687619Y-46471904D01*
X102497142Y-45471904D02*
X102544761Y-45519523D01*
X102592380Y-45662380D01*
X102592380Y-45757619D01*
X102544761Y-45900476D01*
X102449523Y-45995714D01*
X102354285Y-46043333D01*
X102163809Y-46090952D01*
X102020952Y-46090952D01*
X101830476Y-46043333D01*
X101735238Y-45995714D01*
X101640000Y-45900476D01*
X101592380Y-45757619D01*
X101592380Y-45662380D01*
X101640000Y-45519523D01*
X101687619Y-45471904D01*
D13*
X22607142Y-44364285D02*
X21692857Y-44364285D01*
X22607142Y-58494285D02*
X21692857Y-58494285D01*
X20338571Y-54042857D02*
X20338571Y-52842857D01*
X20624285Y-52842857D01*
X20795714Y-52900000D01*
X20910000Y-53014285D01*
X20967142Y-53128571D01*
X21024285Y-53357142D01*
X21024285Y-53528571D01*
X20967142Y-53757142D01*
X20910000Y-53871428D01*
X20795714Y-53985714D01*
X20624285Y-54042857D01*
X20338571Y-54042857D01*
X21481428Y-53700000D02*
X22052857Y-53700000D01*
X21367142Y-54042857D02*
X21767142Y-52842857D01*
X22167142Y-54042857D01*
X22395714Y-52842857D02*
X23081428Y-52842857D01*
X22738571Y-54042857D02*
X22738571Y-52842857D01*
X23424285Y-53700000D02*
X23995714Y-53700000D01*
X23310000Y-54042857D02*
X23710000Y-52842857D01*
X24110000Y-54042857D01*
D11*
X97445000Y-43198095D02*
X97397380Y-43293333D01*
X97397380Y-43436190D01*
X97445000Y-43579047D01*
X97540238Y-43674285D01*
X97635476Y-43721904D01*
X97825952Y-43769523D01*
X97968809Y-43769523D01*
X98159285Y-43721904D01*
X98254523Y-43674285D01*
X98349761Y-43579047D01*
X98397380Y-43436190D01*
X98397380Y-43340952D01*
X98349761Y-43198095D01*
X98302142Y-43150476D01*
X97968809Y-43150476D01*
X97968809Y-43340952D01*
X98397380Y-42721904D02*
X97397380Y-42721904D01*
X97397380Y-42340952D01*
X97445000Y-42245714D01*
X97492619Y-42198095D01*
X97587857Y-42150476D01*
X97730714Y-42150476D01*
X97825952Y-42198095D01*
X97873571Y-42245714D01*
X97921190Y-42340952D01*
X97921190Y-42721904D01*
X100007380Y-43960000D02*
X99007380Y-43960000D01*
X99007380Y-43293333D02*
X99007380Y-43102857D01*
X99055000Y-43007619D01*
X99150238Y-42912380D01*
X99340714Y-42864761D01*
X99674047Y-42864761D01*
X99864523Y-42912380D01*
X99959761Y-43007619D01*
X100007380Y-43102857D01*
X100007380Y-43293333D01*
X99959761Y-43388571D01*
X99864523Y-43483809D01*
X99674047Y-43531428D01*
X99340714Y-43531428D01*
X99150238Y-43483809D01*
X99055000Y-43388571D01*
X99007380Y-43293333D01*
X99007380Y-42245714D02*
X99007380Y-42150476D01*
X99055000Y-42055238D01*
X99102619Y-42007619D01*
X99197857Y-41960000D01*
X99388333Y-41912380D01*
X99626428Y-41912380D01*
X99816904Y-41960000D01*
X99912142Y-42007619D01*
X99959761Y-42055238D01*
X100007380Y-42150476D01*
X100007380Y-42245714D01*
X99959761Y-42340952D01*
X99912142Y-42388571D01*
X99816904Y-42436190D01*
X99626428Y-42483809D01*
X99388333Y-42483809D01*
X99197857Y-42436190D01*
X99102619Y-42388571D01*
X99055000Y-42340952D01*
X99007380Y-42245714D01*
X50206666Y-14758571D02*
X51044761Y-14758571D01*
X50625714Y-15177619D02*
X50625714Y-14339523D01*
X52354285Y-14863333D02*
X52878095Y-14863333D01*
X52249523Y-15177619D02*
X52616190Y-14077619D01*
X52982857Y-15177619D01*
X53925714Y-15177619D02*
X53297142Y-15177619D01*
X53611428Y-15177619D02*
X53611428Y-14077619D01*
X53506666Y-14234761D01*
X53401904Y-14339523D01*
X53297142Y-14391904D01*
X55235238Y-14758571D02*
X56073333Y-14758571D01*
D13*
X22114285Y-64472857D02*
X22114285Y-65387142D01*
X21657142Y-64930000D02*
X22571428Y-64930000D01*
X21128571Y-56525714D02*
X21300000Y-56582857D01*
X21585714Y-56582857D01*
X21700000Y-56525714D01*
X21757142Y-56468571D01*
X21814285Y-56354285D01*
X21814285Y-56240000D01*
X21757142Y-56125714D01*
X21700000Y-56068571D01*
X21585714Y-56011428D01*
X21357142Y-55954285D01*
X21242857Y-55897142D01*
X21185714Y-55840000D01*
X21128571Y-55725714D01*
X21128571Y-55611428D01*
X21185714Y-55497142D01*
X21242857Y-55440000D01*
X21357142Y-55382857D01*
X21642857Y-55382857D01*
X21814285Y-55440000D01*
X22328571Y-56582857D02*
X22328571Y-55382857D01*
X22842857Y-56582857D02*
X22842857Y-55954285D01*
X22785714Y-55840000D01*
X22671428Y-55782857D01*
X22500000Y-55782857D01*
X22385714Y-55840000D01*
X22328571Y-55897142D01*
X23414285Y-56468571D02*
X23471428Y-56525714D01*
X23414285Y-56582857D01*
X23357142Y-56525714D01*
X23414285Y-56468571D01*
X23414285Y-56582857D01*
D11*
X57959714Y-66968666D02*
X58435904Y-66968666D01*
X57864476Y-67254380D02*
X58197809Y-66254380D01*
X58531142Y-67254380D01*
X59388285Y-67254380D02*
X58816857Y-67254380D01*
X59102571Y-67254380D02*
X59102571Y-66254380D01*
X59007333Y-66397238D01*
X58912095Y-66492476D01*
X58816857Y-66540095D01*
X58625666Y-53982095D02*
X58625666Y-53505904D01*
X58911380Y-54077333D02*
X57911380Y-53744000D01*
X58911380Y-53410666D01*
X58911380Y-53077333D02*
X58244714Y-53077333D01*
X58435190Y-53077333D02*
X58339952Y-53029714D01*
X58292333Y-52982095D01*
X58244714Y-52886857D01*
X58244714Y-52791619D01*
X58911380Y-52029714D02*
X57911380Y-52029714D01*
X58863761Y-52029714D02*
X58911380Y-52124952D01*
X58911380Y-52315428D01*
X58863761Y-52410666D01*
X58816142Y-52458285D01*
X58720904Y-52505904D01*
X58435190Y-52505904D01*
X58339952Y-52458285D01*
X58292333Y-52410666D01*
X58244714Y-52315428D01*
X58244714Y-52124952D01*
X58292333Y-52029714D01*
X58244714Y-51124952D02*
X58911380Y-51124952D01*
X58244714Y-51553523D02*
X58768523Y-51553523D01*
X58863761Y-51505904D01*
X58911380Y-51410666D01*
X58911380Y-51267809D01*
X58863761Y-51172571D01*
X58816142Y-51124952D01*
X58911380Y-50648761D02*
X58244714Y-50648761D01*
X57911380Y-50648761D02*
X57959000Y-50696380D01*
X58006619Y-50648761D01*
X57959000Y-50601142D01*
X57911380Y-50648761D01*
X58006619Y-50648761D01*
X58244714Y-50172571D02*
X58911380Y-50172571D01*
X58339952Y-50172571D02*
X58292333Y-50124952D01*
X58244714Y-50029714D01*
X58244714Y-49886857D01*
X58292333Y-49791619D01*
X58387571Y-49744000D01*
X58911380Y-49744000D01*
X58911380Y-49124952D02*
X58863761Y-49220190D01*
X58816142Y-49267809D01*
X58720904Y-49315428D01*
X58435190Y-49315428D01*
X58339952Y-49267809D01*
X58292333Y-49220190D01*
X58244714Y-49124952D01*
X58244714Y-48982095D01*
X58292333Y-48886857D01*
X58339952Y-48839238D01*
X58435190Y-48791619D01*
X58720904Y-48791619D01*
X58816142Y-48839238D01*
X58863761Y-48886857D01*
X58911380Y-48982095D01*
X58911380Y-49124952D01*
X59006619Y-48601142D02*
X59006619Y-47839238D01*
X58911380Y-47601142D02*
X57911380Y-47601142D01*
X58911380Y-47029714D01*
X57911380Y-47029714D01*
X58911380Y-46124952D02*
X58387571Y-46124952D01*
X58292333Y-46172571D01*
X58244714Y-46267809D01*
X58244714Y-46458285D01*
X58292333Y-46553523D01*
X58863761Y-46124952D02*
X58911380Y-46220190D01*
X58911380Y-46458285D01*
X58863761Y-46553523D01*
X58768523Y-46601142D01*
X58673285Y-46601142D01*
X58578047Y-46553523D01*
X58530428Y-46458285D01*
X58530428Y-46220190D01*
X58482809Y-46124952D01*
X58244714Y-45648761D02*
X58911380Y-45648761D01*
X58339952Y-45648761D02*
X58292333Y-45601142D01*
X58244714Y-45505904D01*
X58244714Y-45363047D01*
X58292333Y-45267809D01*
X58387571Y-45220190D01*
X58911380Y-45220190D01*
X58911380Y-44601142D02*
X58863761Y-44696380D01*
X58816142Y-44744000D01*
X58720904Y-44791619D01*
X58435190Y-44791619D01*
X58339952Y-44744000D01*
X58292333Y-44696380D01*
X58244714Y-44601142D01*
X58244714Y-44458285D01*
X58292333Y-44363047D01*
X58339952Y-44315428D01*
X58435190Y-44267809D01*
X58720904Y-44267809D01*
X58816142Y-44315428D01*
X58863761Y-44363047D01*
X58911380Y-44458285D01*
X58911380Y-44601142D01*
X59006619Y-44077333D02*
X59006619Y-43315428D01*
X58244714Y-43172571D02*
X58911380Y-42934476D01*
X58244714Y-42696380D01*
X57911380Y-42410666D02*
X57911380Y-41791619D01*
X58292333Y-42124952D01*
X58292333Y-41982095D01*
X58339952Y-41886857D01*
X58387571Y-41839238D01*
X58482809Y-41791619D01*
X58720904Y-41791619D01*
X58816142Y-41839238D01*
X58863761Y-41886857D01*
X58911380Y-41982095D01*
X58911380Y-42267809D01*
X58863761Y-42363047D01*
X58816142Y-42410666D01*
X58816142Y-41363047D02*
X58863761Y-41315428D01*
X58911380Y-41363047D01*
X58863761Y-41410666D01*
X58816142Y-41363047D01*
X58911380Y-41363047D01*
X58911380Y-40982095D02*
X58244714Y-40458285D01*
X58244714Y-40982095D02*
X58911380Y-40458285D01*
X24974476Y-22382380D02*
X24974476Y-23096666D01*
X24926857Y-23239523D01*
X24831619Y-23334761D01*
X24688761Y-23382380D01*
X24593523Y-23382380D01*
X25974476Y-23382380D02*
X25403047Y-23382380D01*
X25688761Y-23382380D02*
X25688761Y-22382380D01*
X25593523Y-22525238D01*
X25498285Y-22620476D01*
X25403047Y-22668095D01*
X26450666Y-23382380D02*
X26641142Y-23382380D01*
X26736380Y-23334761D01*
X26784000Y-23287142D01*
X26879238Y-23144285D01*
X26926857Y-22953809D01*
X26926857Y-22572857D01*
X26879238Y-22477619D01*
X26831619Y-22430000D01*
X26736380Y-22382380D01*
X26545904Y-22382380D01*
X26450666Y-22430000D01*
X26403047Y-22477619D01*
X26355428Y-22572857D01*
X26355428Y-22810952D01*
X26403047Y-22906190D01*
X26450666Y-22953809D01*
X26545904Y-23001428D01*
X26736380Y-23001428D01*
X26831619Y-22953809D01*
X26879238Y-22906190D01*
X26926857Y-22810952D01*
X30052380Y-30131904D02*
X29052380Y-30131904D01*
X29052380Y-29750952D01*
X29100000Y-29655714D01*
X29147619Y-29608095D01*
X29242857Y-29560476D01*
X29385714Y-29560476D01*
X29480952Y-29608095D01*
X29528571Y-29655714D01*
X29576190Y-29750952D01*
X29576190Y-30131904D01*
X30052380Y-28989047D02*
X30004761Y-29084285D01*
X29957142Y-29131904D01*
X29861904Y-29179523D01*
X29576190Y-29179523D01*
X29480952Y-29131904D01*
X29433333Y-29084285D01*
X29385714Y-28989047D01*
X29385714Y-28846190D01*
X29433333Y-28750952D01*
X29480952Y-28703333D01*
X29576190Y-28655714D01*
X29861904Y-28655714D01*
X29957142Y-28703333D01*
X30004761Y-28750952D01*
X30052380Y-28846190D01*
X30052380Y-28989047D01*
X29385714Y-28322380D02*
X30052380Y-28131904D01*
X29576190Y-27941428D01*
X30052380Y-27750952D01*
X29385714Y-27560476D01*
X30004761Y-26798571D02*
X30052380Y-26893809D01*
X30052380Y-27084285D01*
X30004761Y-27179523D01*
X29909523Y-27227142D01*
X29528571Y-27227142D01*
X29433333Y-27179523D01*
X29385714Y-27084285D01*
X29385714Y-26893809D01*
X29433333Y-26798571D01*
X29528571Y-26750952D01*
X29623809Y-26750952D01*
X29719047Y-27227142D01*
X30052380Y-26322380D02*
X29385714Y-26322380D01*
X29576190Y-26322380D02*
X29480952Y-26274761D01*
X29433333Y-26227142D01*
X29385714Y-26131904D01*
X29385714Y-26036666D01*
X29052380Y-24465238D02*
X29052380Y-24941428D01*
X29528571Y-24989047D01*
X29480952Y-24941428D01*
X29433333Y-24846190D01*
X29433333Y-24608095D01*
X29480952Y-24512857D01*
X29528571Y-24465238D01*
X29623809Y-24417619D01*
X29861904Y-24417619D01*
X29957142Y-24465238D01*
X30004761Y-24512857D01*
X30052380Y-24608095D01*
X30052380Y-24846190D01*
X30004761Y-24941428D01*
X29957142Y-24989047D01*
X29052380Y-24131904D02*
X30052380Y-23798571D01*
X29052380Y-23465238D01*
X44977142Y-58746666D02*
X45024761Y-58794285D01*
X45072380Y-58937142D01*
X45072380Y-59032380D01*
X45024761Y-59175238D01*
X44929523Y-59270476D01*
X44834285Y-59318095D01*
X44643809Y-59365714D01*
X44500952Y-59365714D01*
X44310476Y-59318095D01*
X44215238Y-59270476D01*
X44120000Y-59175238D01*
X44072380Y-59032380D01*
X44072380Y-58937142D01*
X44120000Y-58794285D01*
X44167619Y-58746666D01*
X44405714Y-57889523D02*
X45072380Y-57889523D01*
X44024761Y-58127619D02*
X44739047Y-58365714D01*
X44739047Y-57746666D01*
X46375714Y-59746666D02*
X47042380Y-59746666D01*
X45994761Y-59984761D02*
X46709047Y-60222857D01*
X46709047Y-59603809D01*
X46042380Y-59318095D02*
X46042380Y-58651428D01*
X47042380Y-59080000D01*
X46375714Y-58270476D02*
X47375714Y-58270476D01*
X46423333Y-58270476D02*
X46375714Y-58175238D01*
X46375714Y-57984761D01*
X46423333Y-57889523D01*
X46470952Y-57841904D01*
X46566190Y-57794285D01*
X46851904Y-57794285D01*
X46947142Y-57841904D01*
X46994761Y-57889523D01*
X47042380Y-57984761D01*
X47042380Y-58175238D01*
X46994761Y-58270476D01*
X46518571Y-57032380D02*
X46518571Y-57365714D01*
X47042380Y-57365714D02*
X46042380Y-57365714D01*
X46042380Y-56889523D01*
X70067142Y-74526666D02*
X70114761Y-74574285D01*
X70162380Y-74717142D01*
X70162380Y-74812380D01*
X70114761Y-74955238D01*
X70019523Y-75050476D01*
X69924285Y-75098095D01*
X69733809Y-75145714D01*
X69590952Y-75145714D01*
X69400476Y-75098095D01*
X69305238Y-75050476D01*
X69210000Y-74955238D01*
X69162380Y-74812380D01*
X69162380Y-74717142D01*
X69210000Y-74574285D01*
X69257619Y-74526666D01*
X69162380Y-74193333D02*
X69162380Y-73526666D01*
X70162380Y-73955238D01*
X84392380Y-76403809D02*
X84392380Y-76975238D01*
X84392380Y-76689523D02*
X83392380Y-76689523D01*
X83535238Y-76784761D01*
X83630476Y-76880000D01*
X83678095Y-76975238D01*
X83392380Y-75784761D02*
X83392380Y-75689523D01*
X83440000Y-75594285D01*
X83487619Y-75546666D01*
X83582857Y-75499047D01*
X83773333Y-75451428D01*
X84011428Y-75451428D01*
X84201904Y-75499047D01*
X84297142Y-75546666D01*
X84344761Y-75594285D01*
X84392380Y-75689523D01*
X84392380Y-75784761D01*
X84344761Y-75880000D01*
X84297142Y-75927619D01*
X84201904Y-75975238D01*
X84011428Y-76022857D01*
X83773333Y-76022857D01*
X83582857Y-75975238D01*
X83487619Y-75927619D01*
X83440000Y-75880000D01*
X83392380Y-75784761D01*
X83392380Y-74832380D02*
X83392380Y-74737142D01*
X83440000Y-74641904D01*
X83487619Y-74594285D01*
X83582857Y-74546666D01*
X83773333Y-74499047D01*
X84011428Y-74499047D01*
X84201904Y-74546666D01*
X84297142Y-74594285D01*
X84344761Y-74641904D01*
X84392380Y-74737142D01*
X84392380Y-74832380D01*
X84344761Y-74927619D01*
X84297142Y-74975238D01*
X84201904Y-75022857D01*
X84011428Y-75070476D01*
X83773333Y-75070476D01*
X83582857Y-75022857D01*
X83487619Y-74975238D01*
X83440000Y-74927619D01*
X83392380Y-74832380D01*
X83392380Y-73880000D02*
X83392380Y-73784761D01*
X83440000Y-73689523D01*
X83487619Y-73641904D01*
X83582857Y-73594285D01*
X83773333Y-73546666D01*
X84011428Y-73546666D01*
X84201904Y-73594285D01*
X84297142Y-73641904D01*
X84344761Y-73689523D01*
X84392380Y-73784761D01*
X84392380Y-73880000D01*
X84344761Y-73975238D01*
X84297142Y-74022857D01*
X84201904Y-74070476D01*
X84011428Y-74118095D01*
X83773333Y-74118095D01*
X83582857Y-74070476D01*
X83487619Y-74022857D01*
X83440000Y-73975238D01*
X83392380Y-73880000D01*
X83725714Y-72689523D02*
X84392380Y-72689523D01*
X83725714Y-73118095D02*
X84249523Y-73118095D01*
X84344761Y-73070476D01*
X84392380Y-72975238D01*
X84392380Y-72832380D01*
X84344761Y-72737142D01*
X84297142Y-72689523D01*
X83868571Y-71880000D02*
X83868571Y-72213333D01*
X84392380Y-72213333D02*
X83392380Y-72213333D01*
X83392380Y-71737142D01*
X69007380Y-64583333D02*
X69721666Y-64583333D01*
X69864523Y-64630952D01*
X69959761Y-64726190D01*
X70007380Y-64869047D01*
X70007380Y-64964285D01*
X70007380Y-64107142D02*
X69007380Y-64107142D01*
X69007380Y-63726190D01*
X69055000Y-63630952D01*
X69102619Y-63583333D01*
X69197857Y-63535714D01*
X69340714Y-63535714D01*
X69435952Y-63583333D01*
X69483571Y-63630952D01*
X69531190Y-63726190D01*
X69531190Y-64107142D01*
X69102619Y-63154761D02*
X69055000Y-63107142D01*
X69007380Y-63011904D01*
X69007380Y-62773809D01*
X69055000Y-62678571D01*
X69102619Y-62630952D01*
X69197857Y-62583333D01*
X69293095Y-62583333D01*
X69435952Y-62630952D01*
X70007380Y-63202380D01*
X70007380Y-62583333D01*
X69540952Y-65662380D02*
X70112380Y-65662380D01*
X69826666Y-66662380D02*
X69826666Y-65662380D01*
X70350476Y-65662380D02*
X71017142Y-66662380D01*
X71017142Y-65662380D02*
X70350476Y-66662380D01*
X72540952Y-66614761D02*
X72445714Y-66662380D01*
X72255238Y-66662380D01*
X72160000Y-66614761D01*
X72112380Y-66519523D01*
X72112380Y-66138571D01*
X72160000Y-66043333D01*
X72255238Y-65995714D01*
X72445714Y-65995714D01*
X72540952Y-66043333D01*
X72588571Y-66138571D01*
X72588571Y-66233809D01*
X72112380Y-66329047D01*
X73017142Y-65995714D02*
X73017142Y-66662380D01*
X73017142Y-66090952D02*
X73064761Y-66043333D01*
X73160000Y-65995714D01*
X73302857Y-65995714D01*
X73398095Y-66043333D01*
X73445714Y-66138571D01*
X73445714Y-66662380D01*
X74350476Y-66662380D02*
X74350476Y-66138571D01*
X74302857Y-66043333D01*
X74207619Y-65995714D01*
X74017142Y-65995714D01*
X73921904Y-66043333D01*
X74350476Y-66614761D02*
X74255238Y-66662380D01*
X74017142Y-66662380D01*
X73921904Y-66614761D01*
X73874285Y-66519523D01*
X73874285Y-66424285D01*
X73921904Y-66329047D01*
X74017142Y-66281428D01*
X74255238Y-66281428D01*
X74350476Y-66233809D01*
X74826666Y-66662380D02*
X74826666Y-65662380D01*
X74826666Y-66043333D02*
X74921904Y-65995714D01*
X75112380Y-65995714D01*
X75207619Y-66043333D01*
X75255238Y-66090952D01*
X75302857Y-66186190D01*
X75302857Y-66471904D01*
X75255238Y-66567142D01*
X75207619Y-66614761D01*
X75112380Y-66662380D01*
X74921904Y-66662380D01*
X74826666Y-66614761D01*
X75874285Y-66662380D02*
X75779047Y-66614761D01*
X75731428Y-66519523D01*
X75731428Y-65662380D01*
X76636190Y-66614761D02*
X76540952Y-66662380D01*
X76350476Y-66662380D01*
X76255238Y-66614761D01*
X76207619Y-66519523D01*
X76207619Y-66138571D01*
X76255238Y-66043333D01*
X76350476Y-65995714D01*
X76540952Y-65995714D01*
X76636190Y-66043333D01*
X76683809Y-66138571D01*
X76683809Y-66233809D01*
X76207619Y-66329047D01*
X73744761Y-54123333D02*
X73792380Y-53980476D01*
X73792380Y-53742380D01*
X73744761Y-53647142D01*
X73697142Y-53599523D01*
X73601904Y-53551904D01*
X73506666Y-53551904D01*
X73411428Y-53599523D01*
X73363809Y-53647142D01*
X73316190Y-53742380D01*
X73268571Y-53932857D01*
X73220952Y-54028095D01*
X73173333Y-54075714D01*
X73078095Y-54123333D01*
X72982857Y-54123333D01*
X72887619Y-54075714D01*
X72840000Y-54028095D01*
X72792380Y-53932857D01*
X72792380Y-53694761D01*
X72840000Y-53551904D01*
X72792380Y-53218571D02*
X73792380Y-52980476D01*
X73078095Y-52790000D01*
X73792380Y-52599523D01*
X72792380Y-52361428D01*
X73792380Y-51456666D02*
X73792380Y-52028095D01*
X73792380Y-51742380D02*
X72792380Y-51742380D01*
X72935238Y-51837619D01*
X73030476Y-51932857D01*
X73078095Y-52028095D01*
X80182380Y-54698571D02*
X80182380Y-54127142D01*
X81182380Y-54412857D02*
X80182380Y-54412857D01*
X81182380Y-53793809D02*
X80515714Y-53793809D01*
X80182380Y-53793809D02*
X80230000Y-53841428D01*
X80277619Y-53793809D01*
X80230000Y-53746190D01*
X80182380Y-53793809D01*
X80277619Y-53793809D01*
X81182380Y-53317619D02*
X80515714Y-53317619D01*
X80610952Y-53317619D02*
X80563333Y-53270000D01*
X80515714Y-53174761D01*
X80515714Y-53031904D01*
X80563333Y-52936666D01*
X80658571Y-52889047D01*
X81182380Y-52889047D01*
X80658571Y-52889047D02*
X80563333Y-52841428D01*
X80515714Y-52746190D01*
X80515714Y-52603333D01*
X80563333Y-52508095D01*
X80658571Y-52460476D01*
X81182380Y-52460476D01*
X81134761Y-51603333D02*
X81182380Y-51698571D01*
X81182380Y-51889047D01*
X81134761Y-51984285D01*
X81039523Y-52031904D01*
X80658571Y-52031904D01*
X80563333Y-51984285D01*
X80515714Y-51889047D01*
X80515714Y-51698571D01*
X80563333Y-51603333D01*
X80658571Y-51555714D01*
X80753809Y-51555714D01*
X80849047Y-52031904D01*
X81182380Y-51127142D02*
X80515714Y-51127142D01*
X80706190Y-51127142D02*
X80610952Y-51079523D01*
X80563333Y-51031904D01*
X80515714Y-50936666D01*
X80515714Y-50841428D01*
X90452380Y-37263333D02*
X91166666Y-37263333D01*
X91309523Y-37310952D01*
X91404761Y-37406190D01*
X91452380Y-37549047D01*
X91452380Y-37644285D01*
X91452380Y-36263333D02*
X91452380Y-36834761D01*
X91452380Y-36549047D02*
X90452380Y-36549047D01*
X90595238Y-36644285D01*
X90690476Y-36739523D01*
X90738095Y-36834761D01*
X104248571Y-39172857D02*
X104248571Y-38839523D01*
X104772380Y-38696666D02*
X104772380Y-39172857D01*
X103772380Y-39172857D01*
X103772380Y-38696666D01*
X104724761Y-38315714D02*
X104772380Y-38172857D01*
X104772380Y-37934761D01*
X104724761Y-37839523D01*
X104677142Y-37791904D01*
X104581904Y-37744285D01*
X104486666Y-37744285D01*
X104391428Y-37791904D01*
X104343809Y-37839523D01*
X104296190Y-37934761D01*
X104248571Y-38125238D01*
X104200952Y-38220476D01*
X104153333Y-38268095D01*
X104058095Y-38315714D01*
X103962857Y-38315714D01*
X103867619Y-38268095D01*
X103820000Y-38220476D01*
X103772380Y-38125238D01*
X103772380Y-37887142D01*
X103820000Y-37744285D01*
X104772380Y-37315714D02*
X103772380Y-37315714D01*
X103772380Y-36934761D01*
X103820000Y-36839523D01*
X103867619Y-36791904D01*
X103962857Y-36744285D01*
X104105714Y-36744285D01*
X104200952Y-36791904D01*
X104248571Y-36839523D01*
X104296190Y-36934761D01*
X104296190Y-37315714D01*
X103772380Y-36125238D02*
X103772380Y-36030000D01*
X103820000Y-35934761D01*
X103867619Y-35887142D01*
X103962857Y-35839523D01*
X104153333Y-35791904D01*
X104391428Y-35791904D01*
X104581904Y-35839523D01*
X104677142Y-35887142D01*
X104724761Y-35934761D01*
X104772380Y-36030000D01*
X104772380Y-36125238D01*
X104724761Y-36220476D01*
X104677142Y-36268095D01*
X104581904Y-36315714D01*
X104391428Y-36363333D01*
X104153333Y-36363333D01*
X103962857Y-36315714D01*
X103867619Y-36268095D01*
X103820000Y-36220476D01*
X103772380Y-36125238D01*
X104772380Y-34839523D02*
X104772380Y-35410952D01*
X104772380Y-35125238D02*
X103772380Y-35125238D01*
X103915238Y-35220476D01*
X104010476Y-35315714D01*
X104058095Y-35410952D01*
X70222380Y-43793333D02*
X70936666Y-43793333D01*
X71079523Y-43840952D01*
X71174761Y-43936190D01*
X71222380Y-44079047D01*
X71222380Y-44174285D01*
X70555714Y-42888571D02*
X71222380Y-42888571D01*
X70174761Y-43126666D02*
X70889047Y-43364761D01*
X70889047Y-42745714D01*
X81122380Y-44317142D02*
X80646190Y-44650476D01*
X81122380Y-44888571D02*
X80122380Y-44888571D01*
X80122380Y-44507619D01*
X80170000Y-44412380D01*
X80217619Y-44364761D01*
X80312857Y-44317142D01*
X80455714Y-44317142D01*
X80550952Y-44364761D01*
X80598571Y-44412380D01*
X80646190Y-44507619D01*
X80646190Y-44888571D01*
X81074761Y-43507619D02*
X81122380Y-43602857D01*
X81122380Y-43793333D01*
X81074761Y-43888571D01*
X80979523Y-43936190D01*
X80598571Y-43936190D01*
X80503333Y-43888571D01*
X80455714Y-43793333D01*
X80455714Y-43602857D01*
X80503333Y-43507619D01*
X80598571Y-43460000D01*
X80693809Y-43460000D01*
X80789047Y-43936190D01*
X81122380Y-42888571D02*
X81074761Y-42983809D01*
X80979523Y-43031428D01*
X80122380Y-43031428D01*
X80217619Y-42555238D02*
X80170000Y-42507619D01*
X80122380Y-42412380D01*
X80122380Y-42174285D01*
X80170000Y-42079047D01*
X80217619Y-42031428D01*
X80312857Y-41983809D01*
X80408095Y-41983809D01*
X80550952Y-42031428D01*
X81122380Y-42602857D01*
X81122380Y-41983809D01*
X80462380Y-58636666D02*
X79986190Y-58970000D01*
X80462380Y-59208095D02*
X79462380Y-59208095D01*
X79462380Y-58827142D01*
X79510000Y-58731904D01*
X79557619Y-58684285D01*
X79652857Y-58636666D01*
X79795714Y-58636666D01*
X79890952Y-58684285D01*
X79938571Y-58731904D01*
X79986190Y-58827142D01*
X79986190Y-59208095D01*
X79462380Y-58303333D02*
X79462380Y-57684285D01*
X79843333Y-58017619D01*
X79843333Y-57874761D01*
X79890952Y-57779523D01*
X79938571Y-57731904D01*
X80033809Y-57684285D01*
X80271904Y-57684285D01*
X80367142Y-57731904D01*
X80414761Y-57779523D01*
X80462380Y-57874761D01*
X80462380Y-58160476D01*
X80414761Y-58255714D01*
X80367142Y-58303333D01*
X84692380Y-58384047D02*
X84692380Y-58955476D01*
X84692380Y-58669761D02*
X83692380Y-58669761D01*
X83835238Y-58765000D01*
X83930476Y-58860238D01*
X83978095Y-58955476D01*
X84692380Y-57955476D02*
X83692380Y-57955476D01*
X84311428Y-57860238D02*
X84692380Y-57574523D01*
X84025714Y-57574523D02*
X84406666Y-57955476D01*
X42992380Y-66396666D02*
X42516190Y-66730000D01*
X42992380Y-66968095D02*
X41992380Y-66968095D01*
X41992380Y-66587142D01*
X42040000Y-66491904D01*
X42087619Y-66444285D01*
X42182857Y-66396666D01*
X42325714Y-66396666D01*
X42420952Y-66444285D01*
X42468571Y-66491904D01*
X42516190Y-66587142D01*
X42516190Y-66968095D01*
X41992380Y-65491904D02*
X41992380Y-65968095D01*
X42468571Y-66015714D01*
X42420952Y-65968095D01*
X42373333Y-65872857D01*
X42373333Y-65634761D01*
X42420952Y-65539523D01*
X42468571Y-65491904D01*
X42563809Y-65444285D01*
X42801904Y-65444285D01*
X42897142Y-65491904D01*
X42944761Y-65539523D01*
X42992380Y-65634761D01*
X42992380Y-65872857D01*
X42944761Y-65968095D01*
X42897142Y-66015714D01*
X47232380Y-66705238D02*
X47232380Y-67276666D01*
X47232380Y-66990952D02*
X46232380Y-66990952D01*
X46375238Y-67086190D01*
X46470476Y-67181428D01*
X46518095Y-67276666D01*
X46232380Y-66086190D02*
X46232380Y-65990952D01*
X46280000Y-65895714D01*
X46327619Y-65848095D01*
X46422857Y-65800476D01*
X46613333Y-65752857D01*
X46851428Y-65752857D01*
X47041904Y-65800476D01*
X47137142Y-65848095D01*
X47184761Y-65895714D01*
X47232380Y-65990952D01*
X47232380Y-66086190D01*
X47184761Y-66181428D01*
X47137142Y-66229047D01*
X47041904Y-66276666D01*
X46851428Y-66324285D01*
X46613333Y-66324285D01*
X46422857Y-66276666D01*
X46327619Y-66229047D01*
X46280000Y-66181428D01*
X46232380Y-66086190D01*
X47232380Y-65324285D02*
X46232380Y-65324285D01*
X46851428Y-65229047D02*
X47232380Y-64943333D01*
X46565714Y-64943333D02*
X46946666Y-65324285D01*
X71952380Y-25786666D02*
X71476190Y-26120000D01*
X71952380Y-26358095D02*
X70952380Y-26358095D01*
X70952380Y-25977142D01*
X71000000Y-25881904D01*
X71047619Y-25834285D01*
X71142857Y-25786666D01*
X71285714Y-25786666D01*
X71380952Y-25834285D01*
X71428571Y-25881904D01*
X71476190Y-25977142D01*
X71476190Y-26358095D01*
X70952380Y-24929523D02*
X70952380Y-25120000D01*
X71000000Y-25215238D01*
X71047619Y-25262857D01*
X71190476Y-25358095D01*
X71380952Y-25405714D01*
X71761904Y-25405714D01*
X71857142Y-25358095D01*
X71904761Y-25310476D01*
X71952380Y-25215238D01*
X71952380Y-25024761D01*
X71904761Y-24929523D01*
X71857142Y-24881904D01*
X71761904Y-24834285D01*
X71523809Y-24834285D01*
X71428571Y-24881904D01*
X71380952Y-24929523D01*
X71333333Y-25024761D01*
X71333333Y-25215238D01*
X71380952Y-25310476D01*
X71428571Y-25358095D01*
X71523809Y-25405714D01*
X78272380Y-26286666D02*
X78272380Y-26858095D01*
X78272380Y-26572380D02*
X77272380Y-26572380D01*
X77415238Y-26667619D01*
X77510476Y-26762857D01*
X77558095Y-26858095D01*
X77272380Y-25667619D02*
X77272380Y-25572380D01*
X77320000Y-25477142D01*
X77367619Y-25429523D01*
X77462857Y-25381904D01*
X77653333Y-25334285D01*
X77891428Y-25334285D01*
X78081904Y-25381904D01*
X78177142Y-25429523D01*
X78224761Y-25477142D01*
X78272380Y-25572380D01*
X78272380Y-25667619D01*
X78224761Y-25762857D01*
X78177142Y-25810476D01*
X78081904Y-25858095D01*
X77891428Y-25905714D01*
X77653333Y-25905714D01*
X77462857Y-25858095D01*
X77367619Y-25810476D01*
X77320000Y-25762857D01*
X77272380Y-25667619D01*
X77272380Y-24715238D02*
X77272380Y-24620000D01*
X77320000Y-24524761D01*
X77367619Y-24477142D01*
X77462857Y-24429523D01*
X77653333Y-24381904D01*
X77891428Y-24381904D01*
X78081904Y-24429523D01*
X78177142Y-24477142D01*
X78224761Y-24524761D01*
X78272380Y-24620000D01*
X78272380Y-24715238D01*
X78224761Y-24810476D01*
X78177142Y-24858095D01*
X78081904Y-24905714D01*
X77891428Y-24953333D01*
X77653333Y-24953333D01*
X77462857Y-24905714D01*
X77367619Y-24858095D01*
X77320000Y-24810476D01*
X77272380Y-24715238D01*
X56522380Y-77328095D02*
X55522380Y-77328095D01*
X55522380Y-77090000D01*
X55570000Y-76947142D01*
X55665238Y-76851904D01*
X55760476Y-76804285D01*
X55950952Y-76756666D01*
X56093809Y-76756666D01*
X56284285Y-76804285D01*
X56379523Y-76851904D01*
X56474761Y-76947142D01*
X56522380Y-77090000D01*
X56522380Y-77328095D01*
X55617619Y-76375714D02*
X55570000Y-76328095D01*
X55522380Y-76232857D01*
X55522380Y-75994761D01*
X55570000Y-75899523D01*
X55617619Y-75851904D01*
X55712857Y-75804285D01*
X55808095Y-75804285D01*
X55950952Y-75851904D01*
X56522380Y-76423333D01*
X56522380Y-75804285D01*
X58517142Y-79352380D02*
X57945714Y-79352380D01*
X58231428Y-79352380D02*
X58231428Y-78352380D01*
X58136190Y-78495238D01*
X58040952Y-78590476D01*
X57945714Y-78638095D01*
X58945714Y-79352380D02*
X58945714Y-78352380D01*
X59517142Y-79352380D01*
X59517142Y-78352380D01*
X60421904Y-78685714D02*
X60421904Y-79352380D01*
X60183809Y-78304761D02*
X59945714Y-79019047D01*
X60564761Y-79019047D01*
X61469523Y-79352380D02*
X60898095Y-79352380D01*
X61183809Y-79352380D02*
X61183809Y-78352380D01*
X61088571Y-78495238D01*
X60993333Y-78590476D01*
X60898095Y-78638095D01*
X62326666Y-78685714D02*
X62326666Y-79352380D01*
X62088571Y-78304761D02*
X61850476Y-79019047D01*
X62469523Y-79019047D01*
X62993333Y-78780952D02*
X62898095Y-78733333D01*
X62850476Y-78685714D01*
X62802857Y-78590476D01*
X62802857Y-78542857D01*
X62850476Y-78447619D01*
X62898095Y-78400000D01*
X62993333Y-78352380D01*
X63183809Y-78352380D01*
X63279047Y-78400000D01*
X63326666Y-78447619D01*
X63374285Y-78542857D01*
X63374285Y-78590476D01*
X63326666Y-78685714D01*
X63279047Y-78733333D01*
X63183809Y-78780952D01*
X62993333Y-78780952D01*
X62898095Y-78828571D01*
X62850476Y-78876190D01*
X62802857Y-78971428D01*
X62802857Y-79161904D01*
X62850476Y-79257142D01*
X62898095Y-79304761D01*
X62993333Y-79352380D01*
X63183809Y-79352380D01*
X63279047Y-79304761D01*
X63326666Y-79257142D01*
X63374285Y-79161904D01*
X63374285Y-78971428D01*
X63326666Y-78876190D01*
X63279047Y-78828571D01*
X63183809Y-78780952D01*
X59113095Y-77942380D02*
X59113095Y-76942380D01*
X59684523Y-77942380D02*
X59255952Y-77370952D01*
X59684523Y-76942380D02*
X59113095Y-77513809D01*
X32605142Y-25550707D02*
X32652761Y-25598326D01*
X32700380Y-25741183D01*
X32700380Y-25836421D01*
X32652761Y-25979279D01*
X32557523Y-26074517D01*
X32462285Y-26122136D01*
X32271809Y-26169755D01*
X32128952Y-26169755D01*
X31938476Y-26122136D01*
X31843238Y-26074517D01*
X31748000Y-25979279D01*
X31700380Y-25836421D01*
X31700380Y-25741183D01*
X31748000Y-25598326D01*
X31795619Y-25550707D01*
X31700380Y-24693564D02*
X31700380Y-24884041D01*
X31748000Y-24979279D01*
X31795619Y-25026898D01*
X31938476Y-25122136D01*
X32128952Y-25169755D01*
X32509904Y-25169755D01*
X32605142Y-25122136D01*
X32652761Y-25074517D01*
X32700380Y-24979279D01*
X32700380Y-24788802D01*
X32652761Y-24693564D01*
X32605142Y-24645945D01*
X32509904Y-24598326D01*
X32271809Y-24598326D01*
X32176571Y-24645945D01*
X32128952Y-24693564D01*
X32081333Y-24788802D01*
X32081333Y-24979279D01*
X32128952Y-25074517D01*
X32176571Y-25122136D01*
X32271809Y-25169755D01*
X30812380Y-21552380D02*
X30240952Y-21552380D01*
X30526666Y-21552380D02*
X30526666Y-20552380D01*
X30431428Y-20695238D01*
X30336190Y-20790476D01*
X30240952Y-20838095D01*
X31431428Y-20552380D02*
X31526666Y-20552380D01*
X31621904Y-20600000D01*
X31669523Y-20647619D01*
X31717142Y-20742857D01*
X31764761Y-20933333D01*
X31764761Y-21171428D01*
X31717142Y-21361904D01*
X31669523Y-21457142D01*
X31621904Y-21504761D01*
X31526666Y-21552380D01*
X31431428Y-21552380D01*
X31336190Y-21504761D01*
X31288571Y-21457142D01*
X31240952Y-21361904D01*
X31193333Y-21171428D01*
X31193333Y-20933333D01*
X31240952Y-20742857D01*
X31288571Y-20647619D01*
X31336190Y-20600000D01*
X31431428Y-20552380D01*
X32383809Y-20552380D02*
X32479047Y-20552380D01*
X32574285Y-20600000D01*
X32621904Y-20647619D01*
X32669523Y-20742857D01*
X32717142Y-20933333D01*
X32717142Y-21171428D01*
X32669523Y-21361904D01*
X32621904Y-21457142D01*
X32574285Y-21504761D01*
X32479047Y-21552380D01*
X32383809Y-21552380D01*
X32288571Y-21504761D01*
X32240952Y-21457142D01*
X32193333Y-21361904D01*
X32145714Y-21171428D01*
X32145714Y-20933333D01*
X32193333Y-20742857D01*
X32240952Y-20647619D01*
X32288571Y-20600000D01*
X32383809Y-20552380D01*
X33145714Y-20885714D02*
X33145714Y-21552380D01*
X33145714Y-20980952D02*
X33193333Y-20933333D01*
X33288571Y-20885714D01*
X33431428Y-20885714D01*
X33526666Y-20933333D01*
X33574285Y-21028571D01*
X33574285Y-21552380D01*
X34383809Y-21028571D02*
X34050476Y-21028571D01*
X34050476Y-21552380D02*
X34050476Y-20552380D01*
X34526666Y-20552380D01*
X44987142Y-72716666D02*
X45034761Y-72764285D01*
X45082380Y-72907142D01*
X45082380Y-73002380D01*
X45034761Y-73145238D01*
X44939523Y-73240476D01*
X44844285Y-73288095D01*
X44653809Y-73335714D01*
X44510952Y-73335714D01*
X44320476Y-73288095D01*
X44225238Y-73240476D01*
X44130000Y-73145238D01*
X44082380Y-73002380D01*
X44082380Y-72907142D01*
X44130000Y-72764285D01*
X44177619Y-72716666D01*
X44082380Y-71811904D02*
X44082380Y-72288095D01*
X44558571Y-72335714D01*
X44510952Y-72288095D01*
X44463333Y-72192857D01*
X44463333Y-71954761D01*
X44510952Y-71859523D01*
X44558571Y-71811904D01*
X44653809Y-71764285D01*
X44891904Y-71764285D01*
X44987142Y-71811904D01*
X45034761Y-71859523D01*
X45082380Y-71954761D01*
X45082380Y-72192857D01*
X45034761Y-72288095D01*
X44987142Y-72335714D01*
X46375714Y-73696666D02*
X47042380Y-73696666D01*
X45994761Y-73934761D02*
X46709047Y-74172857D01*
X46709047Y-73553809D01*
X46042380Y-73268095D02*
X46042380Y-72601428D01*
X47042380Y-73030000D01*
X46375714Y-72220476D02*
X47375714Y-72220476D01*
X46423333Y-72220476D02*
X46375714Y-72125238D01*
X46375714Y-71934761D01*
X46423333Y-71839523D01*
X46470952Y-71791904D01*
X46566190Y-71744285D01*
X46851904Y-71744285D01*
X46947142Y-71791904D01*
X46994761Y-71839523D01*
X47042380Y-71934761D01*
X47042380Y-72125238D01*
X46994761Y-72220476D01*
X46518571Y-70982380D02*
X46518571Y-71315714D01*
X47042380Y-71315714D02*
X46042380Y-71315714D01*
X46042380Y-70839523D01*
X25270476Y-61938380D02*
X25270476Y-62652666D01*
X25222857Y-62795523D01*
X25127619Y-62890761D01*
X24984761Y-62938380D01*
X24889523Y-62938380D01*
X26270476Y-62938380D02*
X25699047Y-62938380D01*
X25984761Y-62938380D02*
X25984761Y-61938380D01*
X25889523Y-62081238D01*
X25794285Y-62176476D01*
X25699047Y-62224095D01*
X26889523Y-61938380D02*
X26984761Y-61938380D01*
X27080000Y-61986000D01*
X27127619Y-62033619D01*
X27175238Y-62128857D01*
X27222857Y-62319333D01*
X27222857Y-62557428D01*
X27175238Y-62747904D01*
X27127619Y-62843142D01*
X27080000Y-62890761D01*
X26984761Y-62938380D01*
X26889523Y-62938380D01*
X26794285Y-62890761D01*
X26746666Y-62843142D01*
X26699047Y-62747904D01*
X26651428Y-62557428D01*
X26651428Y-62319333D01*
X26699047Y-62128857D01*
X26746666Y-62033619D01*
X26794285Y-61986000D01*
X26889523Y-61938380D01*
X27992380Y-74110952D02*
X28992380Y-73872857D01*
X28278095Y-73682380D01*
X28992380Y-73491904D01*
X27992380Y-73253809D01*
X28706666Y-72920476D02*
X28706666Y-72444285D01*
X28992380Y-73015714D02*
X27992380Y-72682380D01*
X28992380Y-72349047D01*
X28040000Y-71491904D02*
X27992380Y-71587142D01*
X27992380Y-71730000D01*
X28040000Y-71872857D01*
X28135238Y-71968095D01*
X28230476Y-72015714D01*
X28420952Y-72063333D01*
X28563809Y-72063333D01*
X28754285Y-72015714D01*
X28849523Y-71968095D01*
X28944761Y-71872857D01*
X28992380Y-71730000D01*
X28992380Y-71634761D01*
X28944761Y-71491904D01*
X28897142Y-71444285D01*
X28563809Y-71444285D01*
X28563809Y-71634761D01*
X27992380Y-70825238D02*
X27992380Y-70634761D01*
X28040000Y-70539523D01*
X28135238Y-70444285D01*
X28325714Y-70396666D01*
X28659047Y-70396666D01*
X28849523Y-70444285D01*
X28944761Y-70539523D01*
X28992380Y-70634761D01*
X28992380Y-70825238D01*
X28944761Y-70920476D01*
X28849523Y-71015714D01*
X28659047Y-71063333D01*
X28325714Y-71063333D01*
X28135238Y-71015714D01*
X28040000Y-70920476D01*
X27992380Y-70825238D01*
X28706666Y-69253809D02*
X28706666Y-68777619D01*
X28992380Y-69349047D02*
X27992380Y-69015714D01*
X28992380Y-68682380D01*
X28325714Y-67920476D02*
X28992380Y-67920476D01*
X28325714Y-68349047D02*
X28849523Y-68349047D01*
X28944761Y-68301428D01*
X28992380Y-68206190D01*
X28992380Y-68063333D01*
X28944761Y-67968095D01*
X28897142Y-67920476D01*
X28992380Y-67444285D02*
X28182857Y-67444285D01*
X28087619Y-67396666D01*
X28040000Y-67349047D01*
X27992380Y-67253809D01*
X27992380Y-67110952D01*
X28040000Y-67015714D01*
X28087619Y-66968095D01*
X28182857Y-66920476D01*
X28325714Y-66920476D01*
X28325714Y-67063333D01*
X28373333Y-67158571D01*
X28468571Y-67206190D01*
X28516190Y-67206190D01*
X28611428Y-67158571D01*
X28659047Y-67063333D01*
X28659047Y-66920476D01*
X28706666Y-66825238D01*
X28801904Y-66777619D01*
X28849523Y-66777619D01*
X28944761Y-66825238D01*
X28992380Y-66920476D01*
X28992380Y-67110952D01*
X28944761Y-67206190D01*
X28944761Y-65968095D02*
X28992380Y-66063333D01*
X28992380Y-66253809D01*
X28944761Y-66349047D01*
X28849523Y-66396666D01*
X28468571Y-66396666D01*
X28373333Y-66349047D01*
X28325714Y-66253809D01*
X28325714Y-66063333D01*
X28373333Y-65968095D01*
X28468571Y-65920476D01*
X28563809Y-65920476D01*
X28659047Y-66396666D01*
X28325714Y-65491904D02*
X28992380Y-65491904D01*
X28420952Y-65491904D02*
X28373333Y-65444285D01*
X28325714Y-65349047D01*
X28325714Y-65206190D01*
X28373333Y-65110952D01*
X28468571Y-65063333D01*
X28992380Y-65063333D01*
X28706666Y-63872857D02*
X28706666Y-63396666D01*
X28992380Y-63968095D02*
X27992380Y-63634761D01*
X28992380Y-63301428D01*
X39026666Y-61942380D02*
X39026666Y-62656666D01*
X38979047Y-62799523D01*
X38883809Y-62894761D01*
X38740952Y-62942380D01*
X38645714Y-62942380D01*
X39550476Y-62942380D02*
X39740952Y-62942380D01*
X39836190Y-62894761D01*
X39883809Y-62847142D01*
X39979047Y-62704285D01*
X40026666Y-62513809D01*
X40026666Y-62132857D01*
X39979047Y-62037619D01*
X39931428Y-61990000D01*
X39836190Y-61942380D01*
X39645714Y-61942380D01*
X39550476Y-61990000D01*
X39502857Y-62037619D01*
X39455238Y-62132857D01*
X39455238Y-62370952D01*
X39502857Y-62466190D01*
X39550476Y-62513809D01*
X39645714Y-62561428D01*
X39836190Y-62561428D01*
X39931428Y-62513809D01*
X39979047Y-62466190D01*
X40026666Y-62370952D01*
X37442380Y-72627142D02*
X36442380Y-72627142D01*
X36442380Y-72389047D01*
X36490000Y-72246190D01*
X36585238Y-72150952D01*
X36680476Y-72103333D01*
X36870952Y-72055714D01*
X37013809Y-72055714D01*
X37204285Y-72103333D01*
X37299523Y-72150952D01*
X37394761Y-72246190D01*
X37442380Y-72389047D01*
X37442380Y-72627142D01*
X37442380Y-71627142D02*
X36442380Y-71627142D01*
X36918571Y-71627142D02*
X36918571Y-71055714D01*
X37442380Y-71055714D02*
X36442380Y-71055714D01*
X36442380Y-70722380D02*
X36442380Y-70150952D01*
X37442380Y-70436666D02*
X36442380Y-70436666D01*
X37156666Y-69103333D02*
X37156666Y-68627142D01*
X37442380Y-69198571D02*
X36442380Y-68865238D01*
X37442380Y-68531904D01*
X36775714Y-67770000D02*
X37442380Y-67770000D01*
X36775714Y-68198571D02*
X37299523Y-68198571D01*
X37394761Y-68150952D01*
X37442380Y-68055714D01*
X37442380Y-67912857D01*
X37394761Y-67817619D01*
X37347142Y-67770000D01*
X37442380Y-67293809D02*
X36632857Y-67293809D01*
X36537619Y-67246190D01*
X36490000Y-67198571D01*
X36442380Y-67103333D01*
X36442380Y-66960476D01*
X36490000Y-66865238D01*
X36537619Y-66817619D01*
X36632857Y-66770000D01*
X36775714Y-66770000D01*
X36775714Y-66912857D01*
X36823333Y-67008095D01*
X36918571Y-67055714D01*
X36966190Y-67055714D01*
X37061428Y-67008095D01*
X37109047Y-66912857D01*
X37109047Y-66770000D01*
X37156666Y-66674761D01*
X37251904Y-66627142D01*
X37299523Y-66627142D01*
X37394761Y-66674761D01*
X37442380Y-66770000D01*
X37442380Y-66960476D01*
X37394761Y-67055714D01*
X37394761Y-65817619D02*
X37442380Y-65912857D01*
X37442380Y-66103333D01*
X37394761Y-66198571D01*
X37299523Y-66246190D01*
X36918571Y-66246190D01*
X36823333Y-66198571D01*
X36775714Y-66103333D01*
X36775714Y-65912857D01*
X36823333Y-65817619D01*
X36918571Y-65770000D01*
X37013809Y-65770000D01*
X37109047Y-66246190D01*
X36775714Y-65341428D02*
X37442380Y-65341428D01*
X36870952Y-65341428D02*
X36823333Y-65293809D01*
X36775714Y-65198571D01*
X36775714Y-65055714D01*
X36823333Y-64960476D01*
X36918571Y-64912857D01*
X37442380Y-64912857D01*
X106453333Y-73707142D02*
X106405714Y-73754761D01*
X106262857Y-73802380D01*
X106167619Y-73802380D01*
X106024761Y-73754761D01*
X105929523Y-73659523D01*
X105881904Y-73564285D01*
X105834285Y-73373809D01*
X105834285Y-73230952D01*
X105881904Y-73040476D01*
X105929523Y-72945238D01*
X106024761Y-72850000D01*
X106167619Y-72802380D01*
X106262857Y-72802380D01*
X106405714Y-72850000D01*
X106453333Y-72897619D01*
X107405714Y-73802380D02*
X106834285Y-73802380D01*
X107120000Y-73802380D02*
X107120000Y-72802380D01*
X107024761Y-72945238D01*
X106929523Y-73040476D01*
X106834285Y-73088095D01*
X104867142Y-61415714D02*
X104867142Y-62082380D01*
X104629047Y-61034761D02*
X104390952Y-61749047D01*
X105010000Y-61749047D01*
X105295714Y-61082380D02*
X105962380Y-61082380D01*
X105533809Y-62082380D01*
X106533809Y-61082380D02*
X106629047Y-61082380D01*
X106724285Y-61130000D01*
X106771904Y-61177619D01*
X106819523Y-61272857D01*
X106867142Y-61463333D01*
X106867142Y-61701428D01*
X106819523Y-61891904D01*
X106771904Y-61987142D01*
X106724285Y-62034761D01*
X106629047Y-62082380D01*
X106533809Y-62082380D01*
X106438571Y-62034761D01*
X106390952Y-61987142D01*
X106343333Y-61891904D01*
X106295714Y-61701428D01*
X106295714Y-61463333D01*
X106343333Y-61272857D01*
X106390952Y-61177619D01*
X106438571Y-61130000D01*
X106533809Y-61082380D01*
X107724285Y-61415714D02*
X107724285Y-62082380D01*
X107295714Y-61415714D02*
X107295714Y-61939523D01*
X107343333Y-62034761D01*
X107438571Y-62082380D01*
X107581428Y-62082380D01*
X107676666Y-62034761D01*
X107724285Y-61987142D01*
X108533809Y-61558571D02*
X108200476Y-61558571D01*
X108200476Y-62082380D02*
X108200476Y-61082380D01*
X108676666Y-61082380D01*
X36350476Y-33812380D02*
X36350476Y-34526666D01*
X36302857Y-34669523D01*
X36207619Y-34764761D01*
X36064761Y-34812380D01*
X35969523Y-34812380D01*
X37350476Y-34812380D02*
X36779047Y-34812380D01*
X37064761Y-34812380D02*
X37064761Y-33812380D01*
X36969523Y-33955238D01*
X36874285Y-34050476D01*
X36779047Y-34098095D01*
X37683809Y-33812380D02*
X38302857Y-33812380D01*
X37969523Y-34193333D01*
X38112380Y-34193333D01*
X38207619Y-34240952D01*
X38255238Y-34288571D01*
X38302857Y-34383809D01*
X38302857Y-34621904D01*
X38255238Y-34717142D01*
X38207619Y-34764761D01*
X38112380Y-34812380D01*
X37826666Y-34812380D01*
X37731428Y-34764761D01*
X37683809Y-34717142D01*
X40062380Y-43781904D02*
X39062380Y-43781904D01*
X39157619Y-43353333D02*
X39110000Y-43305714D01*
X39062380Y-43210476D01*
X39062380Y-42972380D01*
X39110000Y-42877142D01*
X39157619Y-42829523D01*
X39252857Y-42781904D01*
X39348095Y-42781904D01*
X39490952Y-42829523D01*
X40062380Y-43400952D01*
X40062380Y-42781904D01*
X39967142Y-41781904D02*
X40014761Y-41829523D01*
X40062380Y-41972380D01*
X40062380Y-42067619D01*
X40014761Y-42210476D01*
X39919523Y-42305714D01*
X39824285Y-42353333D01*
X39633809Y-42400952D01*
X39490952Y-42400952D01*
X39300476Y-42353333D01*
X39205238Y-42305714D01*
X39110000Y-42210476D01*
X39062380Y-42067619D01*
X39062380Y-41972380D01*
X39110000Y-41829523D01*
X39157619Y-41781904D01*
X39776666Y-40639047D02*
X39776666Y-40162857D01*
X40062380Y-40734285D02*
X39062380Y-40400952D01*
X40062380Y-40067619D01*
X39062380Y-39734285D02*
X39871904Y-39734285D01*
X39967142Y-39686666D01*
X40014761Y-39639047D01*
X40062380Y-39543809D01*
X40062380Y-39353333D01*
X40014761Y-39258095D01*
X39967142Y-39210476D01*
X39871904Y-39162857D01*
X39062380Y-39162857D01*
X39062380Y-38781904D02*
X40062380Y-38115238D01*
X39062380Y-38115238D02*
X40062380Y-38781904D01*
X39157619Y-37781904D02*
X39110000Y-37734285D01*
X39062380Y-37639047D01*
X39062380Y-37400952D01*
X39110000Y-37305714D01*
X39157619Y-37258095D01*
X39252857Y-37210476D01*
X39348095Y-37210476D01*
X39490952Y-37258095D01*
X40062380Y-37829523D01*
X40062380Y-37210476D01*
X93472380Y-62203333D02*
X94186666Y-62203333D01*
X94329523Y-62250952D01*
X94424761Y-62346190D01*
X94472380Y-62489047D01*
X94472380Y-62584285D01*
X94472380Y-61727142D02*
X93472380Y-61727142D01*
X93472380Y-61346190D01*
X93520000Y-61250952D01*
X93567619Y-61203333D01*
X93662857Y-61155714D01*
X93805714Y-61155714D01*
X93900952Y-61203333D01*
X93948571Y-61250952D01*
X93996190Y-61346190D01*
X93996190Y-61727142D01*
X93805714Y-60298571D02*
X94472380Y-60298571D01*
X93424761Y-60536666D02*
X94139047Y-60774761D01*
X94139047Y-60155714D01*
X89732380Y-66441428D02*
X89732380Y-65822380D01*
X90113333Y-66155714D01*
X90113333Y-66012857D01*
X90160952Y-65917619D01*
X90208571Y-65870000D01*
X90303809Y-65822380D01*
X90541904Y-65822380D01*
X90637142Y-65870000D01*
X90684761Y-65917619D01*
X90732380Y-66012857D01*
X90732380Y-66298571D01*
X90684761Y-66393809D01*
X90637142Y-66441428D01*
X89732380Y-65536666D02*
X90732380Y-65203333D01*
X89732380Y-64870000D01*
X89732380Y-64631904D02*
X89732380Y-64012857D01*
X90113333Y-64346190D01*
X90113333Y-64203333D01*
X90160952Y-64108095D01*
X90208571Y-64060476D01*
X90303809Y-64012857D01*
X90541904Y-64012857D01*
X90637142Y-64060476D01*
X90684761Y-64108095D01*
X90732380Y-64203333D01*
X90732380Y-64489047D01*
X90684761Y-64584285D01*
X90637142Y-64631904D01*
X90684761Y-62870000D02*
X90732380Y-62727142D01*
X90732380Y-62489047D01*
X90684761Y-62393809D01*
X90637142Y-62346190D01*
X90541904Y-62298571D01*
X90446666Y-62298571D01*
X90351428Y-62346190D01*
X90303809Y-62393809D01*
X90256190Y-62489047D01*
X90208571Y-62679523D01*
X90160952Y-62774761D01*
X90113333Y-62822380D01*
X90018095Y-62870000D01*
X89922857Y-62870000D01*
X89827619Y-62822380D01*
X89780000Y-62774761D01*
X89732380Y-62679523D01*
X89732380Y-62441428D01*
X89780000Y-62298571D01*
X90684761Y-61489047D02*
X90732380Y-61584285D01*
X90732380Y-61774761D01*
X90684761Y-61870000D01*
X90589523Y-61917619D01*
X90208571Y-61917619D01*
X90113333Y-61870000D01*
X90065714Y-61774761D01*
X90065714Y-61584285D01*
X90113333Y-61489047D01*
X90208571Y-61441428D01*
X90303809Y-61441428D01*
X90399047Y-61917619D01*
X90732380Y-60870000D02*
X90684761Y-60965238D01*
X90589523Y-61012857D01*
X89732380Y-61012857D01*
X90732380Y-59203333D02*
X90732380Y-59774761D01*
X90732380Y-59489047D02*
X89732380Y-59489047D01*
X89875238Y-59584285D01*
X89970476Y-59679523D01*
X90018095Y-59774761D01*
X90732380Y-58250952D02*
X90732380Y-58822380D01*
X90732380Y-58536666D02*
X89732380Y-58536666D01*
X89875238Y-58631904D01*
X89970476Y-58727142D01*
X90018095Y-58822380D01*
X90732380Y-57298571D02*
X90732380Y-57870000D01*
X90732380Y-57584285D02*
X89732380Y-57584285D01*
X89875238Y-57679523D01*
X89970476Y-57774761D01*
X90018095Y-57870000D01*
X89732380Y-56965238D02*
X89732380Y-56298571D01*
X90732380Y-56727142D01*
X69007380Y-60923333D02*
X69721666Y-60923333D01*
X69864523Y-60970952D01*
X69959761Y-61066190D01*
X70007380Y-61209047D01*
X70007380Y-61304285D01*
X70007380Y-60447142D02*
X69007380Y-60447142D01*
X69007380Y-60066190D01*
X69055000Y-59970952D01*
X69102619Y-59923333D01*
X69197857Y-59875714D01*
X69340714Y-59875714D01*
X69435952Y-59923333D01*
X69483571Y-59970952D01*
X69531190Y-60066190D01*
X69531190Y-60447142D01*
X70007380Y-58923333D02*
X70007380Y-59494761D01*
X70007380Y-59209047D02*
X69007380Y-59209047D01*
X69150238Y-59304285D01*
X69245476Y-59399523D01*
X69293095Y-59494761D01*
X70146190Y-58172380D02*
X69812857Y-57696190D01*
X69574761Y-58172380D02*
X69574761Y-57172380D01*
X69955714Y-57172380D01*
X70050952Y-57220000D01*
X70098571Y-57267619D01*
X70146190Y-57362857D01*
X70146190Y-57505714D01*
X70098571Y-57600952D01*
X70050952Y-57648571D01*
X69955714Y-57696190D01*
X69574761Y-57696190D01*
X70479523Y-57172380D02*
X71146190Y-58172380D01*
X71146190Y-57172380D02*
X70479523Y-58172380D01*
X72670000Y-58124761D02*
X72574761Y-58172380D01*
X72384285Y-58172380D01*
X72289047Y-58124761D01*
X72241428Y-58029523D01*
X72241428Y-57648571D01*
X72289047Y-57553333D01*
X72384285Y-57505714D01*
X72574761Y-57505714D01*
X72670000Y-57553333D01*
X72717619Y-57648571D01*
X72717619Y-57743809D01*
X72241428Y-57839047D01*
X73146190Y-57505714D02*
X73146190Y-58172380D01*
X73146190Y-57600952D02*
X73193809Y-57553333D01*
X73289047Y-57505714D01*
X73431904Y-57505714D01*
X73527142Y-57553333D01*
X73574761Y-57648571D01*
X73574761Y-58172380D01*
X74479523Y-58172380D02*
X74479523Y-57648571D01*
X74431904Y-57553333D01*
X74336666Y-57505714D01*
X74146190Y-57505714D01*
X74050952Y-57553333D01*
X74479523Y-58124761D02*
X74384285Y-58172380D01*
X74146190Y-58172380D01*
X74050952Y-58124761D01*
X74003333Y-58029523D01*
X74003333Y-57934285D01*
X74050952Y-57839047D01*
X74146190Y-57791428D01*
X74384285Y-57791428D01*
X74479523Y-57743809D01*
X74955714Y-58172380D02*
X74955714Y-57172380D01*
X74955714Y-57553333D02*
X75050952Y-57505714D01*
X75241428Y-57505714D01*
X75336666Y-57553333D01*
X75384285Y-57600952D01*
X75431904Y-57696190D01*
X75431904Y-57981904D01*
X75384285Y-58077142D01*
X75336666Y-58124761D01*
X75241428Y-58172380D01*
X75050952Y-58172380D01*
X74955714Y-58124761D01*
X76003333Y-58172380D02*
X75908095Y-58124761D01*
X75860476Y-58029523D01*
X75860476Y-57172380D01*
X76765238Y-58124761D02*
X76670000Y-58172380D01*
X76479523Y-58172380D01*
X76384285Y-58124761D01*
X76336666Y-58029523D01*
X76336666Y-57648571D01*
X76384285Y-57553333D01*
X76479523Y-57505714D01*
X76670000Y-57505714D01*
X76765238Y-57553333D01*
X76812857Y-57648571D01*
X76812857Y-57743809D01*
X76336666Y-57839047D01*
X50216666Y-74634761D02*
X50359523Y-74682380D01*
X50597619Y-74682380D01*
X50692857Y-74634761D01*
X50740476Y-74587142D01*
X50788095Y-74491904D01*
X50788095Y-74396666D01*
X50740476Y-74301428D01*
X50692857Y-74253809D01*
X50597619Y-74206190D01*
X50407142Y-74158571D01*
X50311904Y-74110952D01*
X50264285Y-74063333D01*
X50216666Y-73968095D01*
X50216666Y-73872857D01*
X50264285Y-73777619D01*
X50311904Y-73730000D01*
X50407142Y-73682380D01*
X50645238Y-73682380D01*
X50788095Y-73730000D01*
X51121428Y-73682380D02*
X51359523Y-74682380D01*
X51550000Y-73968095D01*
X51740476Y-74682380D01*
X51978571Y-73682380D01*
X52311904Y-73777619D02*
X52359523Y-73730000D01*
X52454761Y-73682380D01*
X52692857Y-73682380D01*
X52788095Y-73730000D01*
X52835714Y-73777619D01*
X52883333Y-73872857D01*
X52883333Y-73968095D01*
X52835714Y-74110952D01*
X52264285Y-74682380D01*
X52883333Y-74682380D01*
X50421904Y-79502380D02*
X50088571Y-79026190D01*
X49850476Y-79502380D02*
X49850476Y-78502380D01*
X50231428Y-78502380D01*
X50326666Y-78550000D01*
X50374285Y-78597619D01*
X50421904Y-78692857D01*
X50421904Y-78835714D01*
X50374285Y-78930952D01*
X50326666Y-78978571D01*
X50231428Y-79026190D01*
X49850476Y-79026190D01*
X51231428Y-79454761D02*
X51136190Y-79502380D01*
X50945714Y-79502380D01*
X50850476Y-79454761D01*
X50802857Y-79359523D01*
X50802857Y-78978571D01*
X50850476Y-78883333D01*
X50945714Y-78835714D01*
X51136190Y-78835714D01*
X51231428Y-78883333D01*
X51279047Y-78978571D01*
X51279047Y-79073809D01*
X50802857Y-79169047D01*
X51660000Y-79454761D02*
X51755238Y-79502380D01*
X51945714Y-79502380D01*
X52040952Y-79454761D01*
X52088571Y-79359523D01*
X52088571Y-79311904D01*
X52040952Y-79216666D01*
X51945714Y-79169047D01*
X51802857Y-79169047D01*
X51707619Y-79121428D01*
X51660000Y-79026190D01*
X51660000Y-78978571D01*
X51707619Y-78883333D01*
X51802857Y-78835714D01*
X51945714Y-78835714D01*
X52040952Y-78883333D01*
X52898095Y-79454761D02*
X52802857Y-79502380D01*
X52612380Y-79502380D01*
X52517142Y-79454761D01*
X52469523Y-79359523D01*
X52469523Y-78978571D01*
X52517142Y-78883333D01*
X52612380Y-78835714D01*
X52802857Y-78835714D01*
X52898095Y-78883333D01*
X52945714Y-78978571D01*
X52945714Y-79073809D01*
X52469523Y-79169047D01*
X53231428Y-78835714D02*
X53612380Y-78835714D01*
X53374285Y-78502380D02*
X53374285Y-79359523D01*
X53421904Y-79454761D01*
X53517142Y-79502380D01*
X53612380Y-79502380D01*
X94308095Y-70242380D02*
X94308095Y-71051904D01*
X94355714Y-71147142D01*
X94403333Y-71194761D01*
X94498571Y-71242380D01*
X94689047Y-71242380D01*
X94784285Y-71194761D01*
X94831904Y-71147142D01*
X94879523Y-71051904D01*
X94879523Y-70242380D01*
X95308095Y-70337619D02*
X95355714Y-70290000D01*
X95450952Y-70242380D01*
X95689047Y-70242380D01*
X95784285Y-70290000D01*
X95831904Y-70337619D01*
X95879523Y-70432857D01*
X95879523Y-70528095D01*
X95831904Y-70670952D01*
X95260476Y-71242380D01*
X95879523Y-71242380D01*
X90905714Y-79386666D02*
X91381904Y-79386666D01*
X90810476Y-79672380D02*
X91143809Y-78672380D01*
X91477142Y-79672380D01*
X91810476Y-79672380D02*
X91810476Y-78672380D01*
X92191428Y-78672380D01*
X92286666Y-78720000D01*
X92334285Y-78767619D01*
X92381904Y-78862857D01*
X92381904Y-79005714D01*
X92334285Y-79100952D01*
X92286666Y-79148571D01*
X92191428Y-79196190D01*
X91810476Y-79196190D01*
X93334285Y-79672380D02*
X92762857Y-79672380D01*
X93048571Y-79672380D02*
X93048571Y-78672380D01*
X92953333Y-78815238D01*
X92858095Y-78910476D01*
X92762857Y-78958095D01*
X94286666Y-79672380D02*
X93715238Y-79672380D01*
X94000952Y-79672380D02*
X94000952Y-78672380D01*
X93905714Y-78815238D01*
X93810476Y-78910476D01*
X93715238Y-78958095D01*
X95239047Y-79672380D02*
X94667619Y-79672380D01*
X94953333Y-79672380D02*
X94953333Y-78672380D01*
X94858095Y-78815238D01*
X94762857Y-78910476D01*
X94667619Y-78958095D01*
X95572380Y-78672380D02*
X96239047Y-78672380D01*
X95810476Y-79672380D01*
X96620000Y-79291428D02*
X97381904Y-79291428D01*
X97762857Y-78672380D02*
X98381904Y-78672380D01*
X98048571Y-79053333D01*
X98191428Y-79053333D01*
X98286666Y-79100952D01*
X98334285Y-79148571D01*
X98381904Y-79243809D01*
X98381904Y-79481904D01*
X98334285Y-79577142D01*
X98286666Y-79624761D01*
X98191428Y-79672380D01*
X97905714Y-79672380D01*
X97810476Y-79624761D01*
X97762857Y-79577142D01*
X98715238Y-78672380D02*
X99334285Y-78672380D01*
X99000952Y-79053333D01*
X99143809Y-79053333D01*
X99239047Y-79100952D01*
X99286666Y-79148571D01*
X99334285Y-79243809D01*
X99334285Y-79481904D01*
X99286666Y-79577142D01*
X99239047Y-79624761D01*
X99143809Y-79672380D01*
X98858095Y-79672380D01*
X98762857Y-79624761D01*
X98715238Y-79577142D01*
X57992380Y-17939523D02*
X58706666Y-17939523D01*
X58849523Y-17987142D01*
X58944761Y-18082380D01*
X58992380Y-18225238D01*
X58992380Y-18320476D01*
X58992380Y-16939523D02*
X58992380Y-17510952D01*
X58992380Y-17225238D02*
X57992380Y-17225238D01*
X58135238Y-17320476D01*
X58230476Y-17415714D01*
X58278095Y-17510952D01*
X58087619Y-16558571D02*
X58040000Y-16510952D01*
X57992380Y-16415714D01*
X57992380Y-16177619D01*
X58040000Y-16082380D01*
X58087619Y-16034761D01*
X58182857Y-15987142D01*
X58278095Y-15987142D01*
X58420952Y-16034761D01*
X58992380Y-16606190D01*
X58992380Y-15987142D01*
X64383809Y-14212380D02*
X63907619Y-14212380D01*
X63860000Y-14688571D01*
X63907619Y-14640952D01*
X64002857Y-14593333D01*
X64240952Y-14593333D01*
X64336190Y-14640952D01*
X64383809Y-14688571D01*
X64431428Y-14783809D01*
X64431428Y-15021904D01*
X64383809Y-15117142D01*
X64336190Y-15164761D01*
X64240952Y-15212380D01*
X64002857Y-15212380D01*
X63907619Y-15164761D01*
X63860000Y-15117142D01*
X64717142Y-14212380D02*
X65050476Y-15212380D01*
X65383809Y-14212380D01*
X66431428Y-15164761D02*
X66574285Y-15212380D01*
X66812380Y-15212380D01*
X66907619Y-15164761D01*
X66955238Y-15117142D01*
X67002857Y-15021904D01*
X67002857Y-14926666D01*
X66955238Y-14831428D01*
X66907619Y-14783809D01*
X66812380Y-14736190D01*
X66621904Y-14688571D01*
X66526666Y-14640952D01*
X66479047Y-14593333D01*
X66431428Y-14498095D01*
X66431428Y-14402857D01*
X66479047Y-14307619D01*
X66526666Y-14260000D01*
X66621904Y-14212380D01*
X66859999Y-14212380D01*
X67002857Y-14260000D01*
X67431428Y-15212380D02*
X67431428Y-14212380D01*
X67812380Y-14212380D01*
X67907619Y-14260000D01*
X67955238Y-14307619D01*
X68002857Y-14402857D01*
X68002857Y-14545714D01*
X67955238Y-14640952D01*
X67907619Y-14688571D01*
X67812380Y-14736190D01*
X67431428Y-14736190D01*
X68431428Y-15212380D02*
X68431428Y-14212380D01*
X69669523Y-15212380D02*
X69669523Y-14212380D01*
X70145714Y-14545714D02*
X70145714Y-15212380D01*
X70145714Y-14640952D02*
X70193333Y-14593333D01*
X70288571Y-14545714D01*
X70431428Y-14545714D01*
X70526666Y-14593333D01*
X70574285Y-14688571D01*
X70574285Y-15212380D01*
X70907619Y-14545714D02*
X71288571Y-14545714D01*
X71050476Y-14212380D02*
X71050476Y-15069523D01*
X71098095Y-15164761D01*
X71193333Y-15212380D01*
X71288571Y-15212380D01*
X72002857Y-15164761D02*
X71907619Y-15212380D01*
X71717142Y-15212380D01*
X71621904Y-15164761D01*
X71574285Y-15069523D01*
X71574285Y-14688571D01*
X71621904Y-14593333D01*
X71717142Y-14545714D01*
X71907619Y-14545714D01*
X72002857Y-14593333D01*
X72050476Y-14688571D01*
X72050476Y-14783809D01*
X71574285Y-14879047D01*
X72479047Y-15212380D02*
X72479047Y-14545714D01*
X72479047Y-14736190D02*
X72526666Y-14640952D01*
X72574285Y-14593333D01*
X72669523Y-14545714D01*
X72764761Y-14545714D01*
X72955238Y-14545714D02*
X73336190Y-14545714D01*
X73098095Y-15212380D02*
X73098095Y-14355238D01*
X73145714Y-14260000D01*
X73240952Y-14212380D01*
X73336190Y-14212380D01*
X74098095Y-15212380D02*
X74098095Y-14688571D01*
X74050476Y-14593333D01*
X73955238Y-14545714D01*
X73764761Y-14545714D01*
X73669523Y-14593333D01*
X74098095Y-15164761D02*
X74002857Y-15212380D01*
X73764761Y-15212380D01*
X73669523Y-15164761D01*
X73621904Y-15069523D01*
X73621904Y-14974285D01*
X73669523Y-14879047D01*
X73764761Y-14831428D01*
X74002857Y-14831428D01*
X74098095Y-14783809D01*
X75002857Y-15164761D02*
X74907619Y-15212380D01*
X74717142Y-15212380D01*
X74621904Y-15164761D01*
X74574285Y-15117142D01*
X74526666Y-15021904D01*
X74526666Y-14736190D01*
X74574285Y-14640952D01*
X74621904Y-14593333D01*
X74717142Y-14545714D01*
X74907619Y-14545714D01*
X75002857Y-14593333D01*
X75812380Y-15164761D02*
X75717142Y-15212380D01*
X75526666Y-15212380D01*
X75431428Y-15164761D01*
X75383809Y-15069523D01*
X75383809Y-14688571D01*
X75431428Y-14593333D01*
X75526666Y-14545714D01*
X75717142Y-14545714D01*
X75812380Y-14593333D01*
X75860000Y-14688571D01*
X75860000Y-14783809D01*
X75383809Y-14879047D01*
X39016666Y-47972380D02*
X39016666Y-48686666D01*
X38969047Y-48829523D01*
X38873809Y-48924761D01*
X38730952Y-48972380D01*
X38635714Y-48972380D01*
X39921428Y-47972380D02*
X39730952Y-47972380D01*
X39635714Y-48020000D01*
X39588095Y-48067619D01*
X39492857Y-48210476D01*
X39445238Y-48400952D01*
X39445238Y-48781904D01*
X39492857Y-48877142D01*
X39540476Y-48924761D01*
X39635714Y-48972380D01*
X39826190Y-48972380D01*
X39921428Y-48924761D01*
X39969047Y-48877142D01*
X40016666Y-48781904D01*
X40016666Y-48543809D01*
X39969047Y-48448571D01*
X39921428Y-48400952D01*
X39826190Y-48353333D01*
X39635714Y-48353333D01*
X39540476Y-48400952D01*
X39492857Y-48448571D01*
X39445238Y-48543809D01*
X37432380Y-58361428D02*
X36432380Y-58361428D01*
X36432380Y-58123333D01*
X36480000Y-57980476D01*
X36575238Y-57885238D01*
X36670476Y-57837619D01*
X36860952Y-57790000D01*
X37003809Y-57790000D01*
X37194285Y-57837619D01*
X37289523Y-57885238D01*
X37384761Y-57980476D01*
X37432380Y-58123333D01*
X37432380Y-58361428D01*
X37432380Y-57361428D02*
X36432380Y-57361428D01*
X36908571Y-57361428D02*
X36908571Y-56790000D01*
X37432380Y-56790000D02*
X36432380Y-56790000D01*
X36432380Y-56456666D02*
X36432380Y-55885238D01*
X37432380Y-56170952D02*
X36432380Y-56170952D01*
X37432380Y-54790000D02*
X36432380Y-54790000D01*
X36765714Y-54313809D02*
X37432380Y-54313809D01*
X36860952Y-54313809D02*
X36813333Y-54266190D01*
X36765714Y-54170952D01*
X36765714Y-54028095D01*
X36813333Y-53932857D01*
X36908571Y-53885238D01*
X37432380Y-53885238D01*
X36765714Y-53409047D02*
X37432380Y-53409047D01*
X36860952Y-53409047D02*
X36813333Y-53361428D01*
X36765714Y-53266190D01*
X36765714Y-53123333D01*
X36813333Y-53028095D01*
X36908571Y-52980476D01*
X37432380Y-52980476D01*
X37384761Y-52123333D02*
X37432380Y-52218571D01*
X37432380Y-52409047D01*
X37384761Y-52504285D01*
X37289523Y-52551904D01*
X36908571Y-52551904D01*
X36813333Y-52504285D01*
X36765714Y-52409047D01*
X36765714Y-52218571D01*
X36813333Y-52123333D01*
X36908571Y-52075714D01*
X37003809Y-52075714D01*
X37099047Y-52551904D01*
X36765714Y-51647142D02*
X37432380Y-51647142D01*
X36860952Y-51647142D02*
X36813333Y-51599523D01*
X36765714Y-51504285D01*
X36765714Y-51361428D01*
X36813333Y-51266190D01*
X36908571Y-51218571D01*
X37432380Y-51218571D01*
X41940476Y-33812380D02*
X41940476Y-34526666D01*
X41892857Y-34669523D01*
X41797619Y-34764761D01*
X41654761Y-34812380D01*
X41559523Y-34812380D01*
X42940476Y-34812380D02*
X42369047Y-34812380D01*
X42654761Y-34812380D02*
X42654761Y-33812380D01*
X42559523Y-33955238D01*
X42464285Y-34050476D01*
X42369047Y-34098095D01*
X43797619Y-34145714D02*
X43797619Y-34812380D01*
X43559523Y-33764761D02*
X43321428Y-34479047D01*
X43940476Y-34479047D01*
X45662380Y-43801904D02*
X44662380Y-43801904D01*
X44757619Y-43373333D02*
X44710000Y-43325714D01*
X44662380Y-43230476D01*
X44662380Y-42992380D01*
X44710000Y-42897142D01*
X44757619Y-42849523D01*
X44852857Y-42801904D01*
X44948095Y-42801904D01*
X45090952Y-42849523D01*
X45662380Y-43420952D01*
X45662380Y-42801904D01*
X45567142Y-41801904D02*
X45614761Y-41849523D01*
X45662380Y-41992380D01*
X45662380Y-42087619D01*
X45614761Y-42230476D01*
X45519523Y-42325714D01*
X45424285Y-42373333D01*
X45233809Y-42420952D01*
X45090952Y-42420952D01*
X44900476Y-42373333D01*
X44805238Y-42325714D01*
X44710000Y-42230476D01*
X44662380Y-42087619D01*
X44662380Y-41992380D01*
X44710000Y-41849523D01*
X44757619Y-41801904D01*
X45376666Y-40659047D02*
X45376666Y-40182857D01*
X45662380Y-40754285D02*
X44662380Y-40420952D01*
X45662380Y-40087619D01*
X44662380Y-39754285D02*
X45471904Y-39754285D01*
X45567142Y-39706666D01*
X45614761Y-39659047D01*
X45662380Y-39563809D01*
X45662380Y-39373333D01*
X45614761Y-39278095D01*
X45567142Y-39230476D01*
X45471904Y-39182857D01*
X44662380Y-39182857D01*
X44662380Y-38801904D02*
X45662380Y-38135238D01*
X44662380Y-38135238D02*
X45662380Y-38801904D01*
X45662380Y-37230476D02*
X45662380Y-37801904D01*
X45662380Y-37516190D02*
X44662380Y-37516190D01*
X44805238Y-37611428D01*
X44900476Y-37706666D01*
X44948095Y-37801904D01*
X30756666Y-47982380D02*
X30756666Y-48696666D01*
X30709047Y-48839523D01*
X30613809Y-48934761D01*
X30470952Y-48982380D01*
X30375714Y-48982380D01*
X31375714Y-48410952D02*
X31280476Y-48363333D01*
X31232857Y-48315714D01*
X31185238Y-48220476D01*
X31185238Y-48172857D01*
X31232857Y-48077619D01*
X31280476Y-48030000D01*
X31375714Y-47982380D01*
X31566190Y-47982380D01*
X31661428Y-48030000D01*
X31709047Y-48077619D01*
X31756666Y-48172857D01*
X31756666Y-48220476D01*
X31709047Y-48315714D01*
X31661428Y-48363333D01*
X31566190Y-48410952D01*
X31375714Y-48410952D01*
X31280476Y-48458571D01*
X31232857Y-48506190D01*
X31185238Y-48601428D01*
X31185238Y-48791904D01*
X31232857Y-48887142D01*
X31280476Y-48934761D01*
X31375714Y-48982380D01*
X31566190Y-48982380D01*
X31661428Y-48934761D01*
X31709047Y-48887142D01*
X31756666Y-48791904D01*
X31756666Y-48601428D01*
X31709047Y-48506190D01*
X31661428Y-48458571D01*
X31566190Y-48410952D01*
X33002380Y-59966666D02*
X34002380Y-59728571D01*
X33288095Y-59538095D01*
X34002380Y-59347619D01*
X33002380Y-59109523D01*
X33716666Y-58776190D02*
X33716666Y-58300000D01*
X34002380Y-58871428D02*
X33002380Y-58538095D01*
X34002380Y-58204761D01*
X33050000Y-57347619D02*
X33002380Y-57442857D01*
X33002380Y-57585714D01*
X33050000Y-57728571D01*
X33145238Y-57823809D01*
X33240476Y-57871428D01*
X33430952Y-57919047D01*
X33573809Y-57919047D01*
X33764285Y-57871428D01*
X33859523Y-57823809D01*
X33954761Y-57728571D01*
X34002380Y-57585714D01*
X34002380Y-57490476D01*
X33954761Y-57347619D01*
X33907142Y-57300000D01*
X33573809Y-57300000D01*
X33573809Y-57490476D01*
X33002380Y-56680952D02*
X33002380Y-56490476D01*
X33050000Y-56395238D01*
X33145238Y-56300000D01*
X33335714Y-56252380D01*
X33669047Y-56252380D01*
X33859523Y-56300000D01*
X33954761Y-56395238D01*
X34002380Y-56490476D01*
X34002380Y-56680952D01*
X33954761Y-56776190D01*
X33859523Y-56871428D01*
X33669047Y-56919047D01*
X33335714Y-56919047D01*
X33145238Y-56871428D01*
X33050000Y-56776190D01*
X33002380Y-56680952D01*
X34002380Y-55061904D02*
X33002380Y-55061904D01*
X33335714Y-54585714D02*
X34002380Y-54585714D01*
X33430952Y-54585714D02*
X33383333Y-54538095D01*
X33335714Y-54442857D01*
X33335714Y-54300000D01*
X33383333Y-54204761D01*
X33478571Y-54157142D01*
X34002380Y-54157142D01*
X33335714Y-53680952D02*
X34002380Y-53680952D01*
X33430952Y-53680952D02*
X33383333Y-53633333D01*
X33335714Y-53538095D01*
X33335714Y-53395238D01*
X33383333Y-53300000D01*
X33478571Y-53252380D01*
X34002380Y-53252380D01*
X33954761Y-52395238D02*
X34002380Y-52490476D01*
X34002380Y-52680952D01*
X33954761Y-52776190D01*
X33859523Y-52823809D01*
X33478571Y-52823809D01*
X33383333Y-52776190D01*
X33335714Y-52680952D01*
X33335714Y-52490476D01*
X33383333Y-52395238D01*
X33478571Y-52347619D01*
X33573809Y-52347619D01*
X33669047Y-52823809D01*
X33335714Y-51919047D02*
X34002380Y-51919047D01*
X33430952Y-51919047D02*
X33383333Y-51871428D01*
X33335714Y-51776190D01*
X33335714Y-51633333D01*
X33383333Y-51538095D01*
X33478571Y-51490476D01*
X34002380Y-51490476D01*
X33478571Y-49919047D02*
X33526190Y-49776190D01*
X33573809Y-49728571D01*
X33669047Y-49680952D01*
X33811904Y-49680952D01*
X33907142Y-49728571D01*
X33954761Y-49776190D01*
X34002380Y-49871428D01*
X34002380Y-50252380D01*
X33002380Y-50252380D01*
X33002380Y-49919047D01*
X33050000Y-49823809D01*
X33097619Y-49776190D01*
X33192857Y-49728571D01*
X33288095Y-49728571D01*
X33383333Y-49776190D01*
X33430952Y-49823809D01*
X33478571Y-49919047D01*
X33478571Y-50252380D01*
X56522380Y-72448095D02*
X55522380Y-72448095D01*
X55522380Y-72210000D01*
X55570000Y-72067142D01*
X55665238Y-71971904D01*
X55760476Y-71924285D01*
X55950952Y-71876666D01*
X56093809Y-71876666D01*
X56284285Y-71924285D01*
X56379523Y-71971904D01*
X56474761Y-72067142D01*
X56522380Y-72210000D01*
X56522380Y-72448095D01*
X56522380Y-70924285D02*
X56522380Y-71495714D01*
X56522380Y-71210000D02*
X55522380Y-71210000D01*
X55665238Y-71305238D01*
X55760476Y-71400476D01*
X55808095Y-71495714D01*
X58517142Y-74472380D02*
X57945714Y-74472380D01*
X58231428Y-74472380D02*
X58231428Y-73472380D01*
X58136190Y-73615238D01*
X58040952Y-73710476D01*
X57945714Y-73758095D01*
X58945714Y-74472380D02*
X58945714Y-73472380D01*
X59517142Y-74472380D01*
X59517142Y-73472380D01*
X60421904Y-73805714D02*
X60421904Y-74472380D01*
X60183809Y-73424761D02*
X59945714Y-74139047D01*
X60564761Y-74139047D01*
X61469523Y-74472380D02*
X60898095Y-74472380D01*
X61183809Y-74472380D02*
X61183809Y-73472380D01*
X61088571Y-73615238D01*
X60993333Y-73710476D01*
X60898095Y-73758095D01*
X62326666Y-73805714D02*
X62326666Y-74472380D01*
X62088571Y-73424761D02*
X61850476Y-74139047D01*
X62469523Y-74139047D01*
X62993333Y-73900952D02*
X62898095Y-73853333D01*
X62850476Y-73805714D01*
X62802857Y-73710476D01*
X62802857Y-73662857D01*
X62850476Y-73567619D01*
X62898095Y-73520000D01*
X62993333Y-73472380D01*
X63183809Y-73472380D01*
X63279047Y-73520000D01*
X63326666Y-73567619D01*
X63374285Y-73662857D01*
X63374285Y-73710476D01*
X63326666Y-73805714D01*
X63279047Y-73853333D01*
X63183809Y-73900952D01*
X62993333Y-73900952D01*
X62898095Y-73948571D01*
X62850476Y-73996190D01*
X62802857Y-74091428D01*
X62802857Y-74281904D01*
X62850476Y-74377142D01*
X62898095Y-74424761D01*
X62993333Y-74472380D01*
X63183809Y-74472380D01*
X63279047Y-74424761D01*
X63326666Y-74377142D01*
X63374285Y-74281904D01*
X63374285Y-74091428D01*
X63326666Y-73996190D01*
X63279047Y-73948571D01*
X63183809Y-73900952D01*
X59113095Y-73062380D02*
X59113095Y-72062380D01*
X59684523Y-73062380D02*
X59255952Y-72490952D01*
X59684523Y-72062380D02*
X59113095Y-72633809D01*
X34937142Y-26830625D02*
X34984761Y-26878244D01*
X35032380Y-27021101D01*
X35032380Y-27116339D01*
X34984761Y-27259197D01*
X34889523Y-27354435D01*
X34794285Y-27402054D01*
X34603809Y-27449673D01*
X34460952Y-27449673D01*
X34270476Y-27402054D01*
X34175238Y-27354435D01*
X34080000Y-27259197D01*
X34032380Y-27116339D01*
X34032380Y-27021101D01*
X34080000Y-26878244D01*
X34127619Y-26830625D01*
X34032380Y-26497292D02*
X34032380Y-25878244D01*
X34413333Y-26211578D01*
X34413333Y-26068720D01*
X34460952Y-25973482D01*
X34508571Y-25925863D01*
X34603809Y-25878244D01*
X34841904Y-25878244D01*
X34937142Y-25925863D01*
X34984761Y-25973482D01*
X35032380Y-26068720D01*
X35032380Y-26354435D01*
X34984761Y-26449673D01*
X34937142Y-26497292D01*
X32436190Y-31882380D02*
X31864761Y-31882380D01*
X32150476Y-31882380D02*
X32150476Y-30882380D01*
X32055238Y-31025238D01*
X31960000Y-31120476D01*
X31864761Y-31168095D01*
X33055238Y-30882380D02*
X33150476Y-30882380D01*
X33245714Y-30930000D01*
X33293333Y-30977619D01*
X33340952Y-31072857D01*
X33388571Y-31263333D01*
X33388571Y-31501428D01*
X33340952Y-31691904D01*
X33293333Y-31787142D01*
X33245714Y-31834761D01*
X33150476Y-31882380D01*
X33055238Y-31882380D01*
X32960000Y-31834761D01*
X32912380Y-31787142D01*
X32864761Y-31691904D01*
X32817142Y-31501428D01*
X32817142Y-31263333D01*
X32864761Y-31072857D01*
X32912380Y-30977619D01*
X32960000Y-30930000D01*
X33055238Y-30882380D01*
X34007619Y-30882380D02*
X34102857Y-30882380D01*
X34198095Y-30930000D01*
X34245714Y-30977619D01*
X34293333Y-31072857D01*
X34340952Y-31263333D01*
X34340952Y-31501428D01*
X34293333Y-31691904D01*
X34245714Y-31787142D01*
X34198095Y-31834761D01*
X34102857Y-31882380D01*
X34007619Y-31882380D01*
X33912380Y-31834761D01*
X33864761Y-31787142D01*
X33817142Y-31691904D01*
X33769523Y-31501428D01*
X33769523Y-31263333D01*
X33817142Y-31072857D01*
X33864761Y-30977619D01*
X33912380Y-30930000D01*
X34007619Y-30882380D01*
X34960000Y-30882380D02*
X35055238Y-30882380D01*
X35150476Y-30930000D01*
X35198095Y-30977619D01*
X35245714Y-31072857D01*
X35293333Y-31263333D01*
X35293333Y-31501428D01*
X35245714Y-31691904D01*
X35198095Y-31787142D01*
X35150476Y-31834761D01*
X35055238Y-31882380D01*
X34960000Y-31882380D01*
X34864761Y-31834761D01*
X34817142Y-31787142D01*
X34769523Y-31691904D01*
X34721904Y-31501428D01*
X34721904Y-31263333D01*
X34769523Y-31072857D01*
X34817142Y-30977619D01*
X34864761Y-30930000D01*
X34960000Y-30882380D01*
X36150476Y-31215714D02*
X36150476Y-31882380D01*
X35721904Y-31215714D02*
X35721904Y-31739523D01*
X35769523Y-31834761D01*
X35864761Y-31882380D01*
X36007619Y-31882380D01*
X36102857Y-31834761D01*
X36150476Y-31787142D01*
X36960000Y-31358571D02*
X36626666Y-31358571D01*
X36626666Y-31882380D02*
X36626666Y-30882380D01*
X37102857Y-30882380D01*
X25274476Y-33812380D02*
X25274476Y-34526666D01*
X25226857Y-34669523D01*
X25131619Y-34764761D01*
X24988761Y-34812380D01*
X24893523Y-34812380D01*
X26274476Y-34812380D02*
X25703047Y-34812380D01*
X25988761Y-34812380D02*
X25988761Y-33812380D01*
X25893523Y-33955238D01*
X25798285Y-34050476D01*
X25703047Y-34098095D01*
X26845904Y-34240952D02*
X26750666Y-34193333D01*
X26703047Y-34145714D01*
X26655428Y-34050476D01*
X26655428Y-34002857D01*
X26703047Y-33907619D01*
X26750666Y-33860000D01*
X26845904Y-33812380D01*
X27036380Y-33812380D01*
X27131619Y-33860000D01*
X27179238Y-33907619D01*
X27226857Y-34002857D01*
X27226857Y-34050476D01*
X27179238Y-34145714D01*
X27131619Y-34193333D01*
X27036380Y-34240952D01*
X26845904Y-34240952D01*
X26750666Y-34288571D01*
X26703047Y-34336190D01*
X26655428Y-34431428D01*
X26655428Y-34621904D01*
X26703047Y-34717142D01*
X26750666Y-34764761D01*
X26845904Y-34812380D01*
X27036380Y-34812380D01*
X27131619Y-34764761D01*
X27179238Y-34717142D01*
X27226857Y-34621904D01*
X27226857Y-34431428D01*
X27179238Y-34336190D01*
X27131619Y-34288571D01*
X27036380Y-34240952D01*
X28992380Y-44577619D02*
X27992380Y-44577619D01*
X28087619Y-44149047D02*
X28040000Y-44101428D01*
X27992380Y-44006190D01*
X27992380Y-43768095D01*
X28040000Y-43672857D01*
X28087619Y-43625238D01*
X28182857Y-43577619D01*
X28278095Y-43577619D01*
X28420952Y-43625238D01*
X28992380Y-44196666D01*
X28992380Y-43577619D01*
X28897142Y-42577619D02*
X28944761Y-42625238D01*
X28992380Y-42768095D01*
X28992380Y-42863333D01*
X28944761Y-43006190D01*
X28849523Y-43101428D01*
X28754285Y-43149047D01*
X28563809Y-43196666D01*
X28420952Y-43196666D01*
X28230476Y-43149047D01*
X28135238Y-43101428D01*
X28040000Y-43006190D01*
X27992380Y-42863333D01*
X27992380Y-42768095D01*
X28040000Y-42625238D01*
X28087619Y-42577619D01*
X28992380Y-41387142D02*
X27992380Y-41387142D01*
X27992380Y-41149047D01*
X28040000Y-41006190D01*
X28135238Y-40910952D01*
X28230476Y-40863333D01*
X28420952Y-40815714D01*
X28563809Y-40815714D01*
X28754285Y-40863333D01*
X28849523Y-40910952D01*
X28944761Y-41006190D01*
X28992380Y-41149047D01*
X28992380Y-41387142D01*
X28992380Y-40387142D02*
X28325714Y-40387142D01*
X27992380Y-40387142D02*
X28040000Y-40434761D01*
X28087619Y-40387142D01*
X28040000Y-40339523D01*
X27992380Y-40387142D01*
X28087619Y-40387142D01*
X28944761Y-39958571D02*
X28992380Y-39863333D01*
X28992380Y-39672857D01*
X28944761Y-39577619D01*
X28849523Y-39530000D01*
X28801904Y-39530000D01*
X28706666Y-39577619D01*
X28659047Y-39672857D01*
X28659047Y-39815714D01*
X28611428Y-39910952D01*
X28516190Y-39958571D01*
X28468571Y-39958571D01*
X28373333Y-39910952D01*
X28325714Y-39815714D01*
X28325714Y-39672857D01*
X28373333Y-39577619D01*
X28325714Y-39101428D02*
X29325714Y-39101428D01*
X28373333Y-39101428D02*
X28325714Y-39006190D01*
X28325714Y-38815714D01*
X28373333Y-38720476D01*
X28420952Y-38672857D01*
X28516190Y-38625238D01*
X28801904Y-38625238D01*
X28897142Y-38672857D01*
X28944761Y-38720476D01*
X28992380Y-38815714D01*
X28992380Y-39006190D01*
X28944761Y-39101428D01*
X28992380Y-38053809D02*
X28944761Y-38149047D01*
X28849523Y-38196666D01*
X27992380Y-38196666D01*
X28992380Y-37244285D02*
X28468571Y-37244285D01*
X28373333Y-37291904D01*
X28325714Y-37387142D01*
X28325714Y-37577619D01*
X28373333Y-37672857D01*
X28944761Y-37244285D02*
X28992380Y-37339523D01*
X28992380Y-37577619D01*
X28944761Y-37672857D01*
X28849523Y-37720476D01*
X28754285Y-37720476D01*
X28659047Y-37672857D01*
X28611428Y-37577619D01*
X28611428Y-37339523D01*
X28563809Y-37244285D01*
X28325714Y-36863333D02*
X28992380Y-36625238D01*
X28325714Y-36387142D02*
X28992380Y-36625238D01*
X29230476Y-36720476D01*
X29278095Y-36768095D01*
X29325714Y-36863333D01*
X72762380Y-38363333D02*
X73476666Y-38363333D01*
X73619523Y-38410952D01*
X73714761Y-38506190D01*
X73762380Y-38649047D01*
X73762380Y-38744285D01*
X72762380Y-37982380D02*
X72762380Y-37363333D01*
X73143333Y-37696666D01*
X73143333Y-37553809D01*
X73190952Y-37458571D01*
X73238571Y-37410952D01*
X73333809Y-37363333D01*
X73571904Y-37363333D01*
X73667142Y-37410952D01*
X73714761Y-37458571D01*
X73762380Y-37553809D01*
X73762380Y-37839523D01*
X73714761Y-37934761D01*
X73667142Y-37982380D01*
X73504047Y-41022380D02*
X73504047Y-40022380D01*
X73837380Y-40736666D01*
X74170714Y-40022380D01*
X74170714Y-41022380D01*
X74789761Y-41022380D02*
X74694523Y-40974761D01*
X74646904Y-40927142D01*
X74599285Y-40831904D01*
X74599285Y-40546190D01*
X74646904Y-40450952D01*
X74694523Y-40403333D01*
X74789761Y-40355714D01*
X74932619Y-40355714D01*
X75027857Y-40403333D01*
X75075476Y-40450952D01*
X75123095Y-40546190D01*
X75123095Y-40831904D01*
X75075476Y-40927142D01*
X75027857Y-40974761D01*
X74932619Y-41022380D01*
X74789761Y-41022380D01*
X75980238Y-41022380D02*
X75980238Y-40022380D01*
X75980238Y-40974761D02*
X75885000Y-41022380D01*
X75694523Y-41022380D01*
X75599285Y-40974761D01*
X75551666Y-40927142D01*
X75504047Y-40831904D01*
X75504047Y-40546190D01*
X75551666Y-40450952D01*
X75599285Y-40403333D01*
X75694523Y-40355714D01*
X75885000Y-40355714D01*
X75980238Y-40403333D01*
X76837380Y-40974761D02*
X76742142Y-41022380D01*
X76551666Y-41022380D01*
X76456428Y-40974761D01*
X76408809Y-40879523D01*
X76408809Y-40498571D01*
X76456428Y-40403333D01*
X76551666Y-40355714D01*
X76742142Y-40355714D01*
X76837380Y-40403333D01*
X76885000Y-40498571D01*
X76885000Y-40593809D01*
X76408809Y-40689047D01*
X77075476Y-41117619D02*
X77837380Y-41117619D01*
X78027857Y-40736666D02*
X78504047Y-40736666D01*
X77932619Y-41022380D02*
X78265952Y-40022380D01*
X78599285Y-41022380D01*
X79646904Y-39974761D02*
X78789761Y-41260476D01*
X79837380Y-40022380D02*
X80408809Y-40022380D01*
X80123095Y-41022380D02*
X80123095Y-40022380D01*
X25736666Y-47982380D02*
X25736666Y-48696666D01*
X25689047Y-48839523D01*
X25593809Y-48934761D01*
X25450952Y-48982380D01*
X25355714Y-48982380D01*
X26117619Y-47982380D02*
X26784285Y-47982380D01*
X26355714Y-48982380D01*
X27982380Y-59895238D02*
X28982380Y-59657142D01*
X28268095Y-59466666D01*
X28982380Y-59276190D01*
X27982380Y-59038095D01*
X28696666Y-58704761D02*
X28696666Y-58228571D01*
X28982380Y-58800000D02*
X27982380Y-58466666D01*
X28982380Y-58133333D01*
X28030000Y-57276190D02*
X27982380Y-57371428D01*
X27982380Y-57514285D01*
X28030000Y-57657142D01*
X28125238Y-57752380D01*
X28220476Y-57800000D01*
X28410952Y-57847619D01*
X28553809Y-57847619D01*
X28744285Y-57800000D01*
X28839523Y-57752380D01*
X28934761Y-57657142D01*
X28982380Y-57514285D01*
X28982380Y-57419047D01*
X28934761Y-57276190D01*
X28887142Y-57228571D01*
X28553809Y-57228571D01*
X28553809Y-57419047D01*
X27982380Y-56609523D02*
X27982380Y-56419047D01*
X28030000Y-56323809D01*
X28125238Y-56228571D01*
X28315714Y-56180952D01*
X28649047Y-56180952D01*
X28839523Y-56228571D01*
X28934761Y-56323809D01*
X28982380Y-56419047D01*
X28982380Y-56609523D01*
X28934761Y-56704761D01*
X28839523Y-56800000D01*
X28649047Y-56847619D01*
X28315714Y-56847619D01*
X28125238Y-56800000D01*
X28030000Y-56704761D01*
X27982380Y-56609523D01*
X28982380Y-54990476D02*
X27982380Y-54990476D01*
X28315714Y-54514285D02*
X28982380Y-54514285D01*
X28410952Y-54514285D02*
X28363333Y-54466666D01*
X28315714Y-54371428D01*
X28315714Y-54228571D01*
X28363333Y-54133333D01*
X28458571Y-54085714D01*
X28982380Y-54085714D01*
X28315714Y-53609523D02*
X28982380Y-53609523D01*
X28410952Y-53609523D02*
X28363333Y-53561904D01*
X28315714Y-53466666D01*
X28315714Y-53323809D01*
X28363333Y-53228571D01*
X28458571Y-53180952D01*
X28982380Y-53180952D01*
X28934761Y-52323809D02*
X28982380Y-52419047D01*
X28982380Y-52609523D01*
X28934761Y-52704761D01*
X28839523Y-52752380D01*
X28458571Y-52752380D01*
X28363333Y-52704761D01*
X28315714Y-52609523D01*
X28315714Y-52419047D01*
X28363333Y-52323809D01*
X28458571Y-52276190D01*
X28553809Y-52276190D01*
X28649047Y-52752380D01*
X28315714Y-51847619D02*
X28982380Y-51847619D01*
X28410952Y-51847619D02*
X28363333Y-51800000D01*
X28315714Y-51704761D01*
X28315714Y-51561904D01*
X28363333Y-51466666D01*
X28458571Y-51419047D01*
X28982380Y-51419047D01*
X28696666Y-50228571D02*
X28696666Y-49752380D01*
X28982380Y-50323809D02*
X27982380Y-49990476D01*
X28982380Y-49657142D01*
X80452380Y-65096666D02*
X79976190Y-65430000D01*
X80452380Y-65668095D02*
X79452380Y-65668095D01*
X79452380Y-65287142D01*
X79500000Y-65191904D01*
X79547619Y-65144285D01*
X79642857Y-65096666D01*
X79785714Y-65096666D01*
X79880952Y-65144285D01*
X79928571Y-65191904D01*
X79976190Y-65287142D01*
X79976190Y-65668095D01*
X79547619Y-64715714D02*
X79500000Y-64668095D01*
X79452380Y-64572857D01*
X79452380Y-64334761D01*
X79500000Y-64239523D01*
X79547619Y-64191904D01*
X79642857Y-64144285D01*
X79738095Y-64144285D01*
X79880952Y-64191904D01*
X80452380Y-64763333D01*
X80452380Y-64144285D01*
X83777619Y-66066666D02*
X83730000Y-66019047D01*
X83682380Y-65923809D01*
X83682380Y-65685714D01*
X83730000Y-65590476D01*
X83777619Y-65542857D01*
X83872857Y-65495238D01*
X83968095Y-65495238D01*
X84110952Y-65542857D01*
X84682380Y-66114285D01*
X84682380Y-65495238D01*
X84682380Y-65066666D02*
X83682380Y-65066666D01*
X84301428Y-64971428D02*
X84682380Y-64685714D01*
X84015714Y-64685714D02*
X84396666Y-65066666D01*
X83777619Y-64304761D02*
X83730000Y-64257142D01*
X83682380Y-64161904D01*
X83682380Y-63923809D01*
X83730000Y-63828571D01*
X83777619Y-63780952D01*
X83872857Y-63733333D01*
X83968095Y-63733333D01*
X84110952Y-63780952D01*
X84682380Y-64352380D01*
X84682380Y-63733333D01*
X96018095Y-53432380D02*
X96018095Y-54241904D01*
X96065714Y-54337142D01*
X96113333Y-54384761D01*
X96208571Y-54432380D01*
X96399047Y-54432380D01*
X96494285Y-54384761D01*
X96541904Y-54337142D01*
X96589523Y-54241904D01*
X96589523Y-53432380D01*
X97589523Y-54432380D02*
X97018095Y-54432380D01*
X97303809Y-54432380D02*
X97303809Y-53432380D01*
X97208571Y-53575238D01*
X97113333Y-53670476D01*
X97018095Y-53718095D01*
X91280952Y-55042380D02*
X91519047Y-56042380D01*
X91709523Y-55328095D01*
X91900000Y-56042380D01*
X92138095Y-55042380D01*
X92900000Y-55994761D02*
X92804761Y-56042380D01*
X92614285Y-56042380D01*
X92519047Y-55994761D01*
X92471428Y-55899523D01*
X92471428Y-55518571D01*
X92519047Y-55423333D01*
X92614285Y-55375714D01*
X92804761Y-55375714D01*
X92900000Y-55423333D01*
X92947619Y-55518571D01*
X92947619Y-55613809D01*
X92471428Y-55709047D01*
X93376190Y-56042380D02*
X93376190Y-55042380D01*
X93709523Y-55756666D01*
X94042857Y-55042380D01*
X94042857Y-56042380D01*
X94661904Y-56042380D02*
X94566666Y-55994761D01*
X94519047Y-55947142D01*
X94471428Y-55851904D01*
X94471428Y-55566190D01*
X94519047Y-55470952D01*
X94566666Y-55423333D01*
X94661904Y-55375714D01*
X94804761Y-55375714D01*
X94900000Y-55423333D01*
X94947619Y-55470952D01*
X94995238Y-55566190D01*
X94995238Y-55851904D01*
X94947619Y-55947142D01*
X94900000Y-55994761D01*
X94804761Y-56042380D01*
X94661904Y-56042380D01*
X95376190Y-55994761D02*
X95471428Y-56042380D01*
X95661904Y-56042380D01*
X95757142Y-55994761D01*
X95804761Y-55899523D01*
X95804761Y-55851904D01*
X95757142Y-55756666D01*
X95661904Y-55709047D01*
X95519047Y-55709047D01*
X95423809Y-55661428D01*
X95376190Y-55566190D01*
X95376190Y-55518571D01*
X95423809Y-55423333D01*
X95519047Y-55375714D01*
X95661904Y-55375714D01*
X95757142Y-55423333D01*
X95995238Y-56137619D02*
X96757142Y-56137619D01*
X96995238Y-56042380D02*
X96995238Y-55042380D01*
X97233333Y-55042380D01*
X97376190Y-55090000D01*
X97471428Y-55185238D01*
X97519047Y-55280476D01*
X97566666Y-55470952D01*
X97566666Y-55613809D01*
X97519047Y-55804285D01*
X97471428Y-55899523D01*
X97376190Y-55994761D01*
X97233333Y-56042380D01*
X96995238Y-56042380D01*
X98519047Y-56042380D02*
X97947619Y-56042380D01*
X98233333Y-56042380D02*
X98233333Y-55042380D01*
X98138095Y-55185238D01*
X98042857Y-55280476D01*
X97947619Y-55328095D01*
X98709523Y-56137619D02*
X99471428Y-56137619D01*
X99709523Y-56042380D02*
X99709523Y-55375714D01*
X99709523Y-55470952D02*
X99757142Y-55423333D01*
X99852380Y-55375714D01*
X99995238Y-55375714D01*
X100090476Y-55423333D01*
X100138095Y-55518571D01*
X100138095Y-56042380D01*
X100138095Y-55518571D02*
X100185714Y-55423333D01*
X100280952Y-55375714D01*
X100423809Y-55375714D01*
X100519047Y-55423333D01*
X100566666Y-55518571D01*
X100566666Y-56042380D01*
X101042857Y-56042380D02*
X101042857Y-55375714D01*
X101042857Y-55042380D02*
X100995238Y-55090000D01*
X101042857Y-55137619D01*
X101090476Y-55090000D01*
X101042857Y-55042380D01*
X101042857Y-55137619D01*
X101519047Y-55375714D02*
X101519047Y-56042380D01*
X101519047Y-55470952D02*
X101566666Y-55423333D01*
X101661904Y-55375714D01*
X101804761Y-55375714D01*
X101900000Y-55423333D01*
X101947619Y-55518571D01*
X101947619Y-56042380D01*
X102423809Y-56042380D02*
X102423809Y-55375714D01*
X102423809Y-55042380D02*
X102376190Y-55090000D01*
X102423809Y-55137619D01*
X102471428Y-55090000D01*
X102423809Y-55042380D01*
X102423809Y-55137619D01*
X29972380Y-80009523D02*
X30686666Y-80009523D01*
X30829523Y-80057142D01*
X30924761Y-80152380D01*
X30972380Y-80295238D01*
X30972380Y-80390476D01*
X30972380Y-79009523D02*
X30972380Y-79580952D01*
X30972380Y-79295238D02*
X29972380Y-79295238D01*
X30115238Y-79390476D01*
X30210476Y-79485714D01*
X30258095Y-79580952D01*
X29972380Y-78676190D02*
X29972380Y-78009523D01*
X30972380Y-78438095D01*
X32426666Y-81798571D02*
X33264761Y-81798571D01*
X32845714Y-82217619D02*
X32845714Y-81379523D01*
X34574285Y-81903333D02*
X35098095Y-81903333D01*
X34469523Y-82217619D02*
X34836190Y-81117619D01*
X35202857Y-82217619D01*
X35464761Y-81117619D02*
X36145714Y-81117619D01*
X35779047Y-81536666D01*
X35936190Y-81536666D01*
X36040952Y-81589047D01*
X36093333Y-81641428D01*
X36145714Y-81746190D01*
X36145714Y-82008095D01*
X36093333Y-82112857D01*
X36040952Y-82165238D01*
X35936190Y-82217619D01*
X35621904Y-82217619D01*
X35517142Y-82165238D01*
X35464761Y-82112857D01*
X37455238Y-81798571D02*
X38293333Y-81798571D01*
X72762380Y-34593333D02*
X73476666Y-34593333D01*
X73619523Y-34640952D01*
X73714761Y-34736190D01*
X73762380Y-34879047D01*
X73762380Y-34974285D01*
X72762380Y-33640952D02*
X72762380Y-34117142D01*
X73238571Y-34164761D01*
X73190952Y-34117142D01*
X73143333Y-34021904D01*
X73143333Y-33783809D01*
X73190952Y-33688571D01*
X73238571Y-33640952D01*
X73333809Y-33593333D01*
X73571904Y-33593333D01*
X73667142Y-33640952D01*
X73714761Y-33688571D01*
X73762380Y-33783809D01*
X73762380Y-34021904D01*
X73714761Y-34117142D01*
X73667142Y-34164761D01*
X72632857Y-32242380D02*
X72632857Y-31242380D01*
X72966190Y-31956666D01*
X73299523Y-31242380D01*
X73299523Y-32242380D01*
X73918571Y-32242380D02*
X73823333Y-32194761D01*
X73775714Y-32147142D01*
X73728095Y-32051904D01*
X73728095Y-31766190D01*
X73775714Y-31670952D01*
X73823333Y-31623333D01*
X73918571Y-31575714D01*
X74061428Y-31575714D01*
X74156666Y-31623333D01*
X74204285Y-31670952D01*
X74251904Y-31766190D01*
X74251904Y-32051904D01*
X74204285Y-32147142D01*
X74156666Y-32194761D01*
X74061428Y-32242380D01*
X73918571Y-32242380D01*
X75109047Y-32242380D02*
X75109047Y-31242380D01*
X75109047Y-32194761D02*
X75013809Y-32242380D01*
X74823333Y-32242380D01*
X74728095Y-32194761D01*
X74680476Y-32147142D01*
X74632857Y-32051904D01*
X74632857Y-31766190D01*
X74680476Y-31670952D01*
X74728095Y-31623333D01*
X74823333Y-31575714D01*
X75013809Y-31575714D01*
X75109047Y-31623333D01*
X75966190Y-32194761D02*
X75870952Y-32242380D01*
X75680476Y-32242380D01*
X75585238Y-32194761D01*
X75537619Y-32099523D01*
X75537619Y-31718571D01*
X75585238Y-31623333D01*
X75680476Y-31575714D01*
X75870952Y-31575714D01*
X75966190Y-31623333D01*
X76013809Y-31718571D01*
X76013809Y-31813809D01*
X75537619Y-31909047D01*
X76204285Y-32337619D02*
X76966190Y-32337619D01*
X77204285Y-32242380D02*
X77204285Y-31242380D01*
X77775714Y-32242380D02*
X77347142Y-31670952D01*
X77775714Y-31242380D02*
X77204285Y-31813809D01*
X78347142Y-32242380D02*
X78251904Y-32194761D01*
X78204285Y-32147142D01*
X78156666Y-32051904D01*
X78156666Y-31766190D01*
X78204285Y-31670952D01*
X78251904Y-31623333D01*
X78347142Y-31575714D01*
X78490000Y-31575714D01*
X78585238Y-31623333D01*
X78632857Y-31670952D01*
X78680476Y-31766190D01*
X78680476Y-32051904D01*
X78632857Y-32147142D01*
X78585238Y-32194761D01*
X78490000Y-32242380D01*
X78347142Y-32242380D01*
X79109047Y-32242380D02*
X79109047Y-31575714D01*
X79109047Y-31670952D02*
X79156666Y-31623333D01*
X79251904Y-31575714D01*
X79394761Y-31575714D01*
X79490000Y-31623333D01*
X79537619Y-31718571D01*
X79537619Y-32242380D01*
X79537619Y-31718571D02*
X79585238Y-31623333D01*
X79680476Y-31575714D01*
X79823333Y-31575714D01*
X79918571Y-31623333D01*
X79966190Y-31718571D01*
X79966190Y-32242380D01*
X80442380Y-32242380D02*
X80442380Y-31242380D01*
X80442380Y-31623333D02*
X80537619Y-31575714D01*
X80728095Y-31575714D01*
X80823333Y-31623333D01*
X80870952Y-31670952D01*
X80918571Y-31766190D01*
X80918571Y-32051904D01*
X80870952Y-32147142D01*
X80823333Y-32194761D01*
X80728095Y-32242380D01*
X80537619Y-32242380D01*
X80442380Y-32194761D01*
X81347142Y-32242380D02*
X81347142Y-31575714D01*
X81347142Y-31242380D02*
X81299523Y-31290000D01*
X81347142Y-31337619D01*
X81394761Y-31290000D01*
X81347142Y-31242380D01*
X81347142Y-31337619D01*
X94542380Y-65076666D02*
X94066190Y-65410000D01*
X94542380Y-65648095D02*
X93542380Y-65648095D01*
X93542380Y-65267142D01*
X93590000Y-65171904D01*
X93637619Y-65124285D01*
X93732857Y-65076666D01*
X93875714Y-65076666D01*
X93970952Y-65124285D01*
X94018571Y-65171904D01*
X94066190Y-65267142D01*
X94066190Y-65648095D01*
X94542380Y-64124285D02*
X94542380Y-64695714D01*
X94542380Y-64410000D02*
X93542380Y-64410000D01*
X93685238Y-64505238D01*
X93780476Y-64600476D01*
X93828095Y-64695714D01*
X100862380Y-65515238D02*
X100862380Y-66086666D01*
X100862380Y-65800952D02*
X99862380Y-65800952D01*
X100005238Y-65896190D01*
X100100476Y-65991428D01*
X100148095Y-66086666D01*
X99862380Y-64896190D02*
X99862380Y-64800952D01*
X99910000Y-64705714D01*
X99957619Y-64658095D01*
X100052857Y-64610476D01*
X100243333Y-64562857D01*
X100481428Y-64562857D01*
X100671904Y-64610476D01*
X100767142Y-64658095D01*
X100814761Y-64705714D01*
X100862380Y-64800952D01*
X100862380Y-64896190D01*
X100814761Y-64991428D01*
X100767142Y-65039047D01*
X100671904Y-65086666D01*
X100481428Y-65134285D01*
X100243333Y-65134285D01*
X100052857Y-65086666D01*
X99957619Y-65039047D01*
X99910000Y-64991428D01*
X99862380Y-64896190D01*
X100862380Y-64134285D02*
X99862380Y-64134285D01*
X100481428Y-64039047D02*
X100862380Y-63753333D01*
X100195714Y-63753333D02*
X100576666Y-64134285D01*
X70242380Y-47543333D02*
X70956666Y-47543333D01*
X71099523Y-47590952D01*
X71194761Y-47686190D01*
X71242380Y-47829047D01*
X71242380Y-47924285D01*
X70337619Y-47114761D02*
X70290000Y-47067142D01*
X70242380Y-46971904D01*
X70242380Y-46733809D01*
X70290000Y-46638571D01*
X70337619Y-46590952D01*
X70432857Y-46543333D01*
X70528095Y-46543333D01*
X70670952Y-46590952D01*
X71242380Y-47162380D01*
X71242380Y-46543333D01*
X81132380Y-48067142D02*
X80656190Y-48400476D01*
X81132380Y-48638571D02*
X80132380Y-48638571D01*
X80132380Y-48257619D01*
X80180000Y-48162380D01*
X80227619Y-48114761D01*
X80322857Y-48067142D01*
X80465714Y-48067142D01*
X80560952Y-48114761D01*
X80608571Y-48162380D01*
X80656190Y-48257619D01*
X80656190Y-48638571D01*
X81084761Y-47257619D02*
X81132380Y-47352857D01*
X81132380Y-47543333D01*
X81084761Y-47638571D01*
X80989523Y-47686190D01*
X80608571Y-47686190D01*
X80513333Y-47638571D01*
X80465714Y-47543333D01*
X80465714Y-47352857D01*
X80513333Y-47257619D01*
X80608571Y-47210000D01*
X80703809Y-47210000D01*
X80799047Y-47686190D01*
X81132380Y-46638571D02*
X81084761Y-46733809D01*
X80989523Y-46781428D01*
X80132380Y-46781428D01*
X81132380Y-45733809D02*
X81132380Y-46305238D01*
X81132380Y-46019523D02*
X80132380Y-46019523D01*
X80275238Y-46114761D01*
X80370476Y-46210000D01*
X80418095Y-46305238D01*
X30760476Y-33812380D02*
X30760476Y-34526666D01*
X30712857Y-34669523D01*
X30617619Y-34764761D01*
X30474761Y-34812380D01*
X30379523Y-34812380D01*
X31760476Y-34812380D02*
X31189047Y-34812380D01*
X31474761Y-34812380D02*
X31474761Y-33812380D01*
X31379523Y-33955238D01*
X31284285Y-34050476D01*
X31189047Y-34098095D01*
X32617619Y-33812380D02*
X32427142Y-33812380D01*
X32331904Y-33860000D01*
X32284285Y-33907619D01*
X32189047Y-34050476D01*
X32141428Y-34240952D01*
X32141428Y-34621904D01*
X32189047Y-34717142D01*
X32236666Y-34764761D01*
X32331904Y-34812380D01*
X32522380Y-34812380D01*
X32617619Y-34764761D01*
X32665238Y-34717142D01*
X32712857Y-34621904D01*
X32712857Y-34383809D01*
X32665238Y-34288571D01*
X32617619Y-34240952D01*
X32522380Y-34193333D01*
X32331904Y-34193333D01*
X32236666Y-34240952D01*
X32189047Y-34288571D01*
X32141428Y-34383809D01*
X34482380Y-43268095D02*
X33482380Y-43268095D01*
X33577619Y-42839523D02*
X33530000Y-42791904D01*
X33482380Y-42696666D01*
X33482380Y-42458571D01*
X33530000Y-42363333D01*
X33577619Y-42315714D01*
X33672857Y-42268095D01*
X33768095Y-42268095D01*
X33910952Y-42315714D01*
X34482380Y-42887142D01*
X34482380Y-42268095D01*
X34387142Y-41268095D02*
X34434761Y-41315714D01*
X34482380Y-41458571D01*
X34482380Y-41553809D01*
X34434761Y-41696666D01*
X34339523Y-41791904D01*
X34244285Y-41839523D01*
X34053809Y-41887142D01*
X33910952Y-41887142D01*
X33720476Y-41839523D01*
X33625238Y-41791904D01*
X33530000Y-41696666D01*
X33482380Y-41553809D01*
X33482380Y-41458571D01*
X33530000Y-41315714D01*
X33577619Y-41268095D01*
X34482380Y-39506190D02*
X34006190Y-39839523D01*
X34482380Y-40077619D02*
X33482380Y-40077619D01*
X33482380Y-39696666D01*
X33530000Y-39601428D01*
X33577619Y-39553809D01*
X33672857Y-39506190D01*
X33815714Y-39506190D01*
X33910952Y-39553809D01*
X33958571Y-39601428D01*
X34006190Y-39696666D01*
X34006190Y-40077619D01*
X33482380Y-39220476D02*
X33482380Y-38649047D01*
X34482380Y-38934761D02*
X33482380Y-38934761D01*
X34387142Y-37744285D02*
X34434761Y-37791904D01*
X34482380Y-37934761D01*
X34482380Y-38030000D01*
X34434761Y-38172857D01*
X34339523Y-38268095D01*
X34244285Y-38315714D01*
X34053809Y-38363333D01*
X33910952Y-38363333D01*
X33720476Y-38315714D01*
X33625238Y-38268095D01*
X33530000Y-38172857D01*
X33482380Y-38030000D01*
X33482380Y-37934761D01*
X33530000Y-37791904D01*
X33577619Y-37744285D01*
X52534761Y-20042380D02*
X52201428Y-19566190D01*
X51963333Y-20042380D02*
X51963333Y-19042380D01*
X52344285Y-19042380D01*
X52439523Y-19090000D01*
X52487142Y-19137619D01*
X52534761Y-19232857D01*
X52534761Y-19375714D01*
X52487142Y-19470952D01*
X52439523Y-19518571D01*
X52344285Y-19566190D01*
X51963333Y-19566190D01*
X52820476Y-19042380D02*
X53153809Y-20042380D01*
X53487142Y-19042380D01*
X54344285Y-20042380D02*
X53772857Y-20042380D01*
X54058571Y-20042380D02*
X54058571Y-19042380D01*
X53963333Y-19185238D01*
X53868095Y-19280476D01*
X53772857Y-19328095D01*
X48672380Y-17725238D02*
X48672380Y-18296666D01*
X48672380Y-18010952D02*
X47672380Y-18010952D01*
X47815238Y-18106190D01*
X47910476Y-18201428D01*
X47958095Y-18296666D01*
X47672380Y-17106190D02*
X47672380Y-17010952D01*
X47720000Y-16915714D01*
X47767619Y-16868095D01*
X47862857Y-16820476D01*
X48053333Y-16772857D01*
X48291428Y-16772857D01*
X48481904Y-16820476D01*
X48577142Y-16868095D01*
X48624761Y-16915714D01*
X48672380Y-17010952D01*
X48672380Y-17106190D01*
X48624761Y-17201428D01*
X48577142Y-17249047D01*
X48481904Y-17296666D01*
X48291428Y-17344285D01*
X48053333Y-17344285D01*
X47862857Y-17296666D01*
X47767619Y-17249047D01*
X47720000Y-17201428D01*
X47672380Y-17106190D01*
X48672380Y-16344285D02*
X47672380Y-16344285D01*
X48291428Y-16249047D02*
X48672380Y-15963333D01*
X48005714Y-15963333D02*
X48386666Y-16344285D01*
X32532380Y-17939523D02*
X33246666Y-17939523D01*
X33389523Y-17987142D01*
X33484761Y-18082380D01*
X33532380Y-18225238D01*
X33532380Y-18320476D01*
X33532380Y-16939523D02*
X33532380Y-17510952D01*
X33532380Y-17225238D02*
X32532380Y-17225238D01*
X32675238Y-17320476D01*
X32770476Y-17415714D01*
X32818095Y-17510952D01*
X32532380Y-16034761D02*
X32532380Y-16510952D01*
X33008571Y-16558571D01*
X32960952Y-16510952D01*
X32913333Y-16415714D01*
X32913333Y-16177619D01*
X32960952Y-16082380D01*
X33008571Y-16034761D01*
X33103809Y-15987142D01*
X33341904Y-15987142D01*
X33437142Y-16034761D01*
X33484761Y-16082380D01*
X33532380Y-16177619D01*
X33532380Y-16415714D01*
X33484761Y-16510952D01*
X33437142Y-16558571D01*
X35056666Y-14788571D02*
X35894761Y-14788571D01*
X35475714Y-15207619D02*
X35475714Y-14369523D01*
X37204285Y-14893333D02*
X37728095Y-14893333D01*
X37099523Y-15207619D02*
X37466190Y-14107619D01*
X37832857Y-15207619D01*
X38147142Y-14212380D02*
X38199523Y-14160000D01*
X38304285Y-14107619D01*
X38566190Y-14107619D01*
X38670952Y-14160000D01*
X38723333Y-14212380D01*
X38775714Y-14317142D01*
X38775714Y-14421904D01*
X38723333Y-14579047D01*
X38094761Y-15207619D01*
X38775714Y-15207619D01*
X40085238Y-14788571D02*
X40923333Y-14788571D01*
X89203142Y-72566625D02*
X89250761Y-72614244D01*
X89298380Y-72757101D01*
X89298380Y-72852339D01*
X89250761Y-72995197D01*
X89155523Y-73090435D01*
X89060285Y-73138054D01*
X88869809Y-73185673D01*
X88726952Y-73185673D01*
X88536476Y-73138054D01*
X88441238Y-73090435D01*
X88346000Y-72995197D01*
X88298380Y-72852339D01*
X88298380Y-72757101D01*
X88346000Y-72614244D01*
X88393619Y-72566625D01*
X88393619Y-72185673D02*
X88346000Y-72138054D01*
X88298380Y-72042816D01*
X88298380Y-71804720D01*
X88346000Y-71709482D01*
X88393619Y-71661863D01*
X88488857Y-71614244D01*
X88584095Y-71614244D01*
X88726952Y-71661863D01*
X89298380Y-72233292D01*
X89298380Y-71614244D01*
X87522380Y-74047619D02*
X87522380Y-74619047D01*
X87522380Y-74333333D02*
X86522380Y-74333333D01*
X86665238Y-74428571D01*
X86760476Y-74523809D01*
X86808095Y-74619047D01*
X86522380Y-73428571D02*
X86522380Y-73333333D01*
X86570000Y-73238095D01*
X86617619Y-73190476D01*
X86712857Y-73142857D01*
X86903333Y-73095238D01*
X87141428Y-73095238D01*
X87331904Y-73142857D01*
X87427142Y-73190476D01*
X87474761Y-73238095D01*
X87522380Y-73333333D01*
X87522380Y-73428571D01*
X87474761Y-73523809D01*
X87427142Y-73571428D01*
X87331904Y-73619047D01*
X87141428Y-73666666D01*
X86903333Y-73666666D01*
X86712857Y-73619047D01*
X86617619Y-73571428D01*
X86570000Y-73523809D01*
X86522380Y-73428571D01*
X86522380Y-72476190D02*
X86522380Y-72380952D01*
X86570000Y-72285714D01*
X86617619Y-72238095D01*
X86712857Y-72190476D01*
X86903333Y-72142857D01*
X87141428Y-72142857D01*
X87331904Y-72190476D01*
X87427142Y-72238095D01*
X87474761Y-72285714D01*
X87522380Y-72380952D01*
X87522380Y-72476190D01*
X87474761Y-72571428D01*
X87427142Y-72619047D01*
X87331904Y-72666666D01*
X87141428Y-72714285D01*
X86903333Y-72714285D01*
X86712857Y-72666666D01*
X86617619Y-72619047D01*
X86570000Y-72571428D01*
X86522380Y-72476190D01*
X86855714Y-71714285D02*
X87522380Y-71714285D01*
X86950952Y-71714285D02*
X86903333Y-71666666D01*
X86855714Y-71571428D01*
X86855714Y-71428571D01*
X86903333Y-71333333D01*
X86998571Y-71285714D01*
X87522380Y-71285714D01*
X86998571Y-70476190D02*
X86998571Y-70809523D01*
X87522380Y-70809523D02*
X86522380Y-70809523D01*
X86522380Y-70333333D01*
X30260476Y-61938380D02*
X30260476Y-62652666D01*
X30212857Y-62795523D01*
X30117619Y-62890761D01*
X29974761Y-62938380D01*
X29879523Y-62938380D01*
X31260476Y-62938380D02*
X30689047Y-62938380D01*
X30974761Y-62938380D02*
X30974761Y-61938380D01*
X30879523Y-62081238D01*
X30784285Y-62176476D01*
X30689047Y-62224095D01*
X32212857Y-62938380D02*
X31641428Y-62938380D01*
X31927142Y-62938380D02*
X31927142Y-61938380D01*
X31831904Y-62081238D01*
X31736666Y-62176476D01*
X31641428Y-62224095D01*
X33032380Y-74252380D02*
X34032380Y-74014285D01*
X33318095Y-73823809D01*
X34032380Y-73633333D01*
X33032380Y-73395238D01*
X33746666Y-73061904D02*
X33746666Y-72585714D01*
X34032380Y-73157142D02*
X33032380Y-72823809D01*
X34032380Y-72490476D01*
X33080000Y-71633333D02*
X33032380Y-71728571D01*
X33032380Y-71871428D01*
X33080000Y-72014285D01*
X33175238Y-72109523D01*
X33270476Y-72157142D01*
X33460952Y-72204761D01*
X33603809Y-72204761D01*
X33794285Y-72157142D01*
X33889523Y-72109523D01*
X33984761Y-72014285D01*
X34032380Y-71871428D01*
X34032380Y-71776190D01*
X33984761Y-71633333D01*
X33937142Y-71585714D01*
X33603809Y-71585714D01*
X33603809Y-71776190D01*
X33032380Y-70966666D02*
X33032380Y-70776190D01*
X33080000Y-70680952D01*
X33175238Y-70585714D01*
X33365714Y-70538095D01*
X33699047Y-70538095D01*
X33889523Y-70585714D01*
X33984761Y-70680952D01*
X34032380Y-70776190D01*
X34032380Y-70966666D01*
X33984761Y-71061904D01*
X33889523Y-71157142D01*
X33699047Y-71204761D01*
X33365714Y-71204761D01*
X33175238Y-71157142D01*
X33080000Y-71061904D01*
X33032380Y-70966666D01*
X33746666Y-69395238D02*
X33746666Y-68919047D01*
X34032380Y-69490476D02*
X33032380Y-69157142D01*
X34032380Y-68823809D01*
X33365714Y-68061904D02*
X34032380Y-68061904D01*
X33365714Y-68490476D02*
X33889523Y-68490476D01*
X33984761Y-68442857D01*
X34032380Y-68347619D01*
X34032380Y-68204761D01*
X33984761Y-68109523D01*
X33937142Y-68061904D01*
X34032380Y-67585714D02*
X33222857Y-67585714D01*
X33127619Y-67538095D01*
X33080000Y-67490476D01*
X33032380Y-67395238D01*
X33032380Y-67252380D01*
X33080000Y-67157142D01*
X33127619Y-67109523D01*
X33222857Y-67061904D01*
X33365714Y-67061904D01*
X33365714Y-67204761D01*
X33413333Y-67300000D01*
X33508571Y-67347619D01*
X33556190Y-67347619D01*
X33651428Y-67300000D01*
X33699047Y-67204761D01*
X33699047Y-67061904D01*
X33746666Y-66966666D01*
X33841904Y-66919047D01*
X33889523Y-66919047D01*
X33984761Y-66966666D01*
X34032380Y-67061904D01*
X34032380Y-67252380D01*
X33984761Y-67347619D01*
X33984761Y-66109523D02*
X34032380Y-66204761D01*
X34032380Y-66395238D01*
X33984761Y-66490476D01*
X33889523Y-66538095D01*
X33508571Y-66538095D01*
X33413333Y-66490476D01*
X33365714Y-66395238D01*
X33365714Y-66204761D01*
X33413333Y-66109523D01*
X33508571Y-66061904D01*
X33603809Y-66061904D01*
X33699047Y-66538095D01*
X33365714Y-65633333D02*
X34032380Y-65633333D01*
X33460952Y-65633333D02*
X33413333Y-65585714D01*
X33365714Y-65490476D01*
X33365714Y-65347619D01*
X33413333Y-65252380D01*
X33508571Y-65204761D01*
X34032380Y-65204761D01*
X33508571Y-63633333D02*
X33556190Y-63490476D01*
X33603809Y-63442857D01*
X33699047Y-63395238D01*
X33841904Y-63395238D01*
X33937142Y-63442857D01*
X33984761Y-63490476D01*
X34032380Y-63585714D01*
X34032380Y-63966666D01*
X33032380Y-63966666D01*
X33032380Y-63633333D01*
X33080000Y-63538095D01*
X33127619Y-63490476D01*
X33222857Y-63442857D01*
X33318095Y-63442857D01*
X33413333Y-63490476D01*
X33460952Y-63538095D01*
X33508571Y-63633333D01*
X33508571Y-63966666D01*
X43012380Y-52326666D02*
X42536190Y-52660000D01*
X43012380Y-52898095D02*
X42012380Y-52898095D01*
X42012380Y-52517142D01*
X42060000Y-52421904D01*
X42107619Y-52374285D01*
X42202857Y-52326666D01*
X42345714Y-52326666D01*
X42440952Y-52374285D01*
X42488571Y-52421904D01*
X42536190Y-52517142D01*
X42536190Y-52898095D01*
X42345714Y-51469523D02*
X43012380Y-51469523D01*
X41964761Y-51707619D02*
X42679047Y-51945714D01*
X42679047Y-51326666D01*
X47242380Y-52865238D02*
X47242380Y-53436666D01*
X47242380Y-53150952D02*
X46242380Y-53150952D01*
X46385238Y-53246190D01*
X46480476Y-53341428D01*
X46528095Y-53436666D01*
X46242380Y-52246190D02*
X46242380Y-52150952D01*
X46290000Y-52055714D01*
X46337619Y-52008095D01*
X46432857Y-51960476D01*
X46623333Y-51912857D01*
X46861428Y-51912857D01*
X47051904Y-51960476D01*
X47147142Y-52008095D01*
X47194761Y-52055714D01*
X47242380Y-52150952D01*
X47242380Y-52246190D01*
X47194761Y-52341428D01*
X47147142Y-52389047D01*
X47051904Y-52436666D01*
X46861428Y-52484285D01*
X46623333Y-52484285D01*
X46432857Y-52436666D01*
X46337619Y-52389047D01*
X46290000Y-52341428D01*
X46242380Y-52246190D01*
X47242380Y-51484285D02*
X46242380Y-51484285D01*
X46861428Y-51389047D02*
X47242380Y-51103333D01*
X46575714Y-51103333D02*
X46956666Y-51484285D01*
D10*
X65024000Y-26924000D02*
X67694000Y-26924000D01*
X49654000Y-24254000D02*
X49654000Y-67694000D01*
X67694000Y-62484000D02*
X67694000Y-24254000D01*
X49654000Y-67694000D02*
X67694000Y-67694000D01*
X52324000Y-26924000D02*
X49654000Y-26924000D01*
X52324000Y-65024000D02*
X49654000Y-65024000D01*
X52324000Y-65024000D02*
X52324000Y-26924000D01*
X65024000Y-65024000D02*
X67694000Y-65024000D01*
X65024000Y-62484000D02*
X65024000Y-65024000D01*
X65024000Y-62484000D02*
X67694000Y-62484000D01*
X67694000Y-67694000D02*
X67694000Y-65024000D01*
X67694000Y-24254000D02*
X49654000Y-24254000D01*
X65024000Y-62484000D02*
X65024000Y-26924000D01*
X23550000Y-29680000D02*
X27550000Y-29680000D01*
X27540000Y-25470000D02*
X28540000Y-25470000D01*
X23120000Y-26270000D02*
X23120000Y-24670000D01*
X22520000Y-29390000D02*
X28540000Y-29390000D01*
X27010000Y-27760000D02*
X27010000Y-25720000D01*
X28540000Y-24090000D02*
X22520000Y-24090000D01*
X22520000Y-24090000D02*
X22520000Y-29390000D01*
X27010000Y-25720000D02*
X27540000Y-25470000D01*
X28540000Y-29390000D02*
X28540000Y-24090000D01*
X22520000Y-28810000D02*
X23120000Y-28810000D01*
X23120000Y-28810000D02*
X23120000Y-27210000D01*
X27540000Y-28010000D02*
X27010000Y-27760000D01*
X22520000Y-26270000D02*
X23120000Y-26270000D01*
X23120000Y-27210000D02*
X22520000Y-27210000D01*
X28540000Y-27760000D02*
X27540000Y-27760000D01*
X28540000Y-28010000D02*
X27540000Y-28010000D01*
X23120000Y-24670000D02*
X22520000Y-24670000D01*
X28540000Y-25720000D02*
X27540000Y-25720000D01*
X27540000Y-28010000D02*
X27540000Y-25470000D01*
X43500000Y-62200000D02*
X45740000Y-62200000D01*
X43500000Y-54960000D02*
X45740000Y-54960000D01*
X45740000Y-62200000D02*
X45740000Y-54960000D01*
X43500000Y-62200000D02*
X43500000Y-54960000D01*
X78230000Y-70289000D02*
X81642000Y-70289000D01*
X70461000Y-74250000D02*
X83119000Y-74250000D01*
X75062000Y-68249000D02*
X78518000Y-68249000D01*
X73388000Y-69009000D02*
X80192000Y-69009000D01*
X73515000Y-68929000D02*
X80065000Y-68929000D01*
X78230000Y-71689000D02*
X82529000Y-71689000D01*
X70462000Y-74210000D02*
X83118000Y-74210000D01*
X78230000Y-69569000D02*
X80938000Y-69569000D01*
X72185000Y-70009000D02*
X75350000Y-70009000D01*
X70574000Y-73169000D02*
X83006000Y-73169000D01*
X70484000Y-73810000D02*
X83096000Y-73810000D01*
X71574000Y-70769000D02*
X75350000Y-70769000D01*
X72934000Y-69329000D02*
X75350000Y-69329000D01*
X72596000Y-69609000D02*
X75350000Y-69609000D01*
X71905000Y-70329000D02*
X75350000Y-70329000D01*
X78230000Y-70889000D02*
X82086000Y-70889000D01*
X70634000Y-72889000D02*
X82946000Y-72889000D01*
X73150000Y-69169000D02*
X80430000Y-69169000D01*
X78230000Y-69609000D02*
X80984000Y-69609000D01*
X70515000Y-73529000D02*
X83065000Y-73529000D01*
X71069000Y-71649000D02*
X75350000Y-71649000D01*
X70552000Y-73289000D02*
X83028000Y-73289000D01*
X78230000Y-70089000D02*
X81468000Y-70089000D01*
X78230000Y-69689000D02*
X81072000Y-69689000D01*
X78230000Y-71529000D02*
X82452000Y-71529000D01*
X74478000Y-68449000D02*
X79102000Y-68449000D01*
X70464000Y-74130000D02*
X83116000Y-74130000D01*
X71051000Y-71689000D02*
X75350000Y-71689000D01*
X78230000Y-71649000D02*
X82511000Y-71649000D01*
X70837000Y-72209000D02*
X82743000Y-72209000D01*
X70478000Y-73890000D02*
X83102000Y-73890000D01*
X71938000Y-70289000D02*
X75350000Y-70289000D01*
X70997000Y-71809000D02*
X75350000Y-71809000D01*
X70559000Y-73249000D02*
X83021000Y-73249000D01*
X74806000Y-68329000D02*
X78774000Y-68329000D01*
X70664000Y-72769000D02*
X82916000Y-72769000D01*
X72223000Y-69969000D02*
X75350000Y-69969000D01*
X70545000Y-73329000D02*
X83035000Y-73329000D01*
X78230000Y-71129000D02*
X82235000Y-71129000D01*
X78230000Y-71489000D02*
X82432000Y-71489000D01*
X71778000Y-70489000D02*
X75350000Y-70489000D01*
X71345000Y-71129000D02*
X75350000Y-71129000D01*
X74581000Y-68409000D02*
X78999000Y-68409000D01*
X70795000Y-72329000D02*
X82785000Y-72329000D01*
X70460000Y-74290000D02*
X83120000Y-74290000D01*
X70532000Y-73409000D02*
X83048000Y-73409000D01*
X70962000Y-71889000D02*
X75350000Y-71889000D01*
X78230000Y-69929000D02*
X81318000Y-69929000D01*
X78230000Y-70969000D02*
X82137000Y-70969000D01*
X78230000Y-69289000D02*
X80594000Y-69289000D01*
X71418000Y-71009000D02*
X75350000Y-71009000D01*
X73326000Y-69049000D02*
X80254000Y-69049000D01*
X72986000Y-69289000D02*
X75350000Y-69289000D01*
X78230000Y-71089000D02*
X82211000Y-71089000D01*
X78230000Y-71009000D02*
X82162000Y-71009000D01*
X78230000Y-71169000D02*
X82258000Y-71169000D01*
X70505000Y-73609000D02*
X83075000Y-73609000D01*
X72508000Y-69689000D02*
X75350000Y-69689000D01*
X70496000Y-73690000D02*
X83084000Y-73690000D01*
X71494000Y-70889000D02*
X75350000Y-70889000D01*
X71369000Y-71089000D02*
X75350000Y-71089000D01*
X78230000Y-69849000D02*
X81239000Y-69849000D01*
X78230000Y-72009000D02*
X82667000Y-72009000D01*
X78230000Y-71969000D02*
X82651000Y-71969000D01*
X71299000Y-71209000D02*
X75350000Y-71209000D01*
X72465000Y-69729000D02*
X75350000Y-69729000D01*
X74196000Y-68569000D02*
X79384000Y-68569000D01*
X78230000Y-70329000D02*
X81675000Y-70329000D01*
X78230000Y-71409000D02*
X82391000Y-71409000D01*
X78230000Y-71609000D02*
X82492000Y-71609000D01*
X72833000Y-69409000D02*
X75350000Y-69409000D01*
X70913000Y-72009000D02*
X75350000Y-72009000D01*
X71276000Y-71249000D02*
X75350000Y-71249000D01*
X78230000Y-70249000D02*
X81609000Y-70249000D01*
X70475000Y-73930000D02*
X83105000Y-73930000D01*
X78230000Y-70809000D02*
X82033000Y-70809000D01*
X78230000Y-71329000D02*
X82348000Y-71329000D01*
X78230000Y-69329000D02*
X80646000Y-69329000D01*
X71322000Y-71169000D02*
X75350000Y-71169000D01*
X73721000Y-68809000D02*
X79859000Y-68809000D01*
X70468000Y-74050000D02*
X83112000Y-74050000D01*
X71971000Y-70249000D02*
X75350000Y-70249000D01*
X78230000Y-70169000D02*
X81540000Y-70169000D01*
X76473000Y-68009000D02*
X77107000Y-68009000D01*
X71232000Y-71329000D02*
X75350000Y-71329000D01*
X70589000Y-73089000D02*
X82991000Y-73089000D01*
X78230000Y-70009000D02*
X81395000Y-70009000D01*
X70644000Y-72849000D02*
X82936000Y-72849000D01*
X71128000Y-71529000D02*
X75350000Y-71529000D01*
X74929000Y-68289000D02*
X78651000Y-68289000D01*
X78230000Y-69249000D02*
X80540000Y-69249000D01*
X72076000Y-70129000D02*
X75350000Y-70129000D01*
X70463000Y-74170000D02*
X83117000Y-74170000D01*
X71468000Y-70929000D02*
X75350000Y-70929000D01*
X72783000Y-69449000D02*
X75350000Y-69449000D01*
X70526000Y-73449000D02*
X83054000Y-73449000D01*
X78230000Y-69889000D02*
X81279000Y-69889000D01*
X71189000Y-71409000D02*
X75350000Y-71409000D01*
X70823000Y-72249000D02*
X82757000Y-72249000D01*
X71108000Y-71569000D02*
X75350000Y-71569000D01*
X71520000Y-70849000D02*
X75350000Y-70849000D01*
X70769000Y-72409000D02*
X82811000Y-72409000D01*
X78230000Y-71449000D02*
X82412000Y-71449000D01*
X78230000Y-69969000D02*
X81357000Y-69969000D01*
X78230000Y-71769000D02*
X82566000Y-71769000D01*
X70731000Y-72529000D02*
X82849000Y-72529000D01*
X78230000Y-70569000D02*
X81863000Y-70569000D01*
X70566000Y-73209000D02*
X83014000Y-73209000D01*
X78230000Y-70929000D02*
X82112000Y-70929000D01*
X78230000Y-71289000D02*
X82326000Y-71289000D01*
X72642000Y-69569000D02*
X75350000Y-69569000D01*
X78230000Y-69729000D02*
X81115000Y-69729000D01*
X70945000Y-71929000D02*
X75350000Y-71929000D01*
X70696000Y-72649000D02*
X82884000Y-72649000D01*
X72005000Y-70209000D02*
X75350000Y-70209000D01*
X73794000Y-68769000D02*
X79786000Y-68769000D01*
X78230000Y-70369000D02*
X81708000Y-70369000D01*
X78230000Y-70129000D02*
X81504000Y-70129000D01*
X70460000Y-74370000D02*
X83120000Y-74370000D01*
X78230000Y-71369000D02*
X82370000Y-71369000D01*
X78230000Y-70049000D02*
X81432000Y-70049000D01*
X78230000Y-69369000D02*
X80697000Y-69369000D01*
X71602000Y-70729000D02*
X75350000Y-70729000D01*
X74286000Y-68529000D02*
X79294000Y-68529000D01*
X78230000Y-70689000D02*
X81950000Y-70689000D01*
X78230000Y-71849000D02*
X82601000Y-71849000D01*
X70782000Y-72369000D02*
X82798000Y-72369000D01*
X72341000Y-69849000D02*
X75350000Y-69849000D01*
X71688000Y-70609000D02*
X75350000Y-70609000D01*
X70492000Y-73730000D02*
X83088000Y-73730000D01*
X78230000Y-70209000D02*
X81575000Y-70209000D01*
X70674000Y-72729000D02*
X82906000Y-72729000D01*
X78230000Y-70729000D02*
X81978000Y-70729000D01*
X71014000Y-71769000D02*
X75350000Y-71769000D01*
X71032000Y-71729000D02*
X75350000Y-71729000D01*
X78230000Y-70849000D02*
X82060000Y-70849000D01*
X78230000Y-70409000D02*
X81740000Y-70409000D01*
X78230000Y-70769000D02*
X82006000Y-70769000D01*
X72688000Y-69529000D02*
X75350000Y-69529000D01*
X71808000Y-70449000D02*
X75350000Y-70449000D01*
X78230000Y-69529000D02*
X80892000Y-69529000D01*
X70882000Y-72089000D02*
X82698000Y-72089000D01*
X78230000Y-69209000D02*
X80486000Y-69209000D01*
X78230000Y-69409000D02*
X80747000Y-69409000D01*
X70472000Y-73970000D02*
X83108000Y-73970000D01*
X78230000Y-70609000D02*
X81892000Y-70609000D01*
X78230000Y-70529000D02*
X81833000Y-70529000D01*
X72301000Y-69889000D02*
X75350000Y-69889000D01*
X74380000Y-68489000D02*
X79200000Y-68489000D01*
X70707000Y-72609000D02*
X82873000Y-72609000D01*
X70685000Y-72689000D02*
X82895000Y-72689000D01*
X78230000Y-71889000D02*
X82618000Y-71889000D01*
X70851000Y-72169000D02*
X82729000Y-72169000D01*
X71659000Y-70649000D02*
X75350000Y-70649000D01*
X73869000Y-68729000D02*
X79711000Y-68729000D01*
X71840000Y-70409000D02*
X75350000Y-70409000D01*
X71630000Y-70689000D02*
X75350000Y-70689000D01*
X78230000Y-71929000D02*
X82635000Y-71929000D01*
X70897000Y-72049000D02*
X75350000Y-72049000D01*
X78230000Y-71729000D02*
X82548000Y-71729000D01*
X71393000Y-71049000D02*
X75350000Y-71049000D01*
X78230000Y-71569000D02*
X82472000Y-71569000D01*
X78230000Y-72049000D02*
X82683000Y-72049000D01*
X78230000Y-70649000D02*
X81921000Y-70649000D01*
X71443000Y-70969000D02*
X75350000Y-70969000D01*
X72262000Y-69929000D02*
X75350000Y-69929000D01*
X70500000Y-73649000D02*
X83080000Y-73649000D01*
X73094000Y-69209000D02*
X75350000Y-69209000D01*
X70606000Y-73009000D02*
X82974000Y-73009000D01*
X71210000Y-71369000D02*
X75350000Y-71369000D01*
X70510000Y-73569000D02*
X83070000Y-73569000D01*
X72148000Y-70049000D02*
X75350000Y-70049000D01*
X76033000Y-68049000D02*
X77547000Y-68049000D01*
X78230000Y-71249000D02*
X82304000Y-71249000D01*
X71254000Y-71289000D02*
X75350000Y-71289000D01*
X78230000Y-69449000D02*
X80797000Y-69449000D01*
X74109000Y-68609000D02*
X79471000Y-68609000D01*
X70866000Y-72129000D02*
X82714000Y-72129000D01*
X71168000Y-71449000D02*
X75350000Y-71449000D01*
X73215000Y-81187082D02*
X73215000Y-79937082D01*
X70460000Y-74330000D02*
X83120000Y-74330000D01*
X72112000Y-70089000D02*
X75350000Y-70089000D01*
X70719000Y-72569000D02*
X82861000Y-72569000D01*
X71747000Y-70529000D02*
X75350000Y-70529000D01*
X72883000Y-69369000D02*
X75350000Y-69369000D01*
X70538000Y-73369000D02*
X83042000Y-73369000D01*
X78230000Y-69489000D02*
X80845000Y-69489000D01*
X73266000Y-69089000D02*
X80314000Y-69089000D01*
X71717000Y-70569000D02*
X75350000Y-70569000D01*
X73040000Y-69249000D02*
X75350000Y-69249000D01*
X70521000Y-73489000D02*
X83059000Y-73489000D01*
X72590000Y-80562082D02*
X73840000Y-80562082D01*
X70481000Y-73850000D02*
X83099000Y-73850000D01*
X70615000Y-72969000D02*
X82965000Y-72969000D01*
X70979000Y-71849000D02*
X75350000Y-71849000D01*
X73946000Y-68689000D02*
X79634000Y-68689000D01*
X75762000Y-68089000D02*
X77818000Y-68089000D01*
X70653000Y-72809000D02*
X82927000Y-72809000D01*
X75207000Y-68209000D02*
X78373000Y-68209000D01*
X73582000Y-68889000D02*
X79998000Y-68889000D01*
X73451000Y-68969000D02*
X80129000Y-68969000D01*
X72552000Y-69649000D02*
X75350000Y-69649000D01*
X72382000Y-69809000D02*
X75350000Y-69809000D01*
X70809000Y-72289000D02*
X82771000Y-72289000D01*
X78230000Y-71049000D02*
X82187000Y-71049000D01*
X73207000Y-69129000D02*
X80373000Y-69129000D01*
X75368000Y-68169000D02*
X78212000Y-68169000D01*
X72040000Y-70169000D02*
X75350000Y-70169000D01*
X72423000Y-69769000D02*
X75350000Y-69769000D01*
X70624000Y-72929000D02*
X82956000Y-72929000D01*
X70488000Y-73770000D02*
X83092000Y-73770000D01*
X71088000Y-71609000D02*
X75350000Y-71609000D01*
X70470000Y-74010000D02*
X83110000Y-74010000D01*
X70756000Y-72449000D02*
X82824000Y-72449000D01*
X74690000Y-68369000D02*
X78890000Y-68369000D01*
X78230000Y-70449000D02*
X81772000Y-70449000D01*
X70581000Y-73129000D02*
X82999000Y-73129000D01*
X70466000Y-74090000D02*
X83114000Y-74090000D01*
X71148000Y-71489000D02*
X75350000Y-71489000D01*
X78230000Y-71809000D02*
X82583000Y-71809000D01*
X71872000Y-70369000D02*
X75350000Y-70369000D01*
X70929000Y-71969000D02*
X75350000Y-71969000D01*
X70598000Y-73049000D02*
X82982000Y-73049000D01*
X71547000Y-70809000D02*
X75350000Y-70809000D01*
X75549000Y-68129000D02*
X78031000Y-68129000D01*
X74026000Y-68649000D02*
X79554000Y-68649000D01*
X70743000Y-72489000D02*
X82837000Y-72489000D01*
X72735000Y-69489000D02*
X75350000Y-69489000D01*
X78230000Y-70489000D02*
X81802000Y-70489000D01*
X73650000Y-68849000D02*
X79930000Y-68849000D01*
X78230000Y-71209000D02*
X82281000Y-71209000D01*
X78230000Y-69769000D02*
X81157000Y-69769000D01*
X78230000Y-69809000D02*
X81198000Y-69809000D01*
X78230000Y-69649000D02*
X81028000Y-69649000D01*
X83160000Y-74370000D02*
G75*
G03*
X83160000Y-74370000I-6370000J0D01*
G01*
X73155000Y-65080000D02*
X75755000Y-65080000D01*
X73155000Y-62420000D02*
X75755000Y-62420000D01*
X70555000Y-65080000D02*
X70555000Y-63750000D01*
X73155000Y-65080000D02*
X73155000Y-62420000D01*
X71885000Y-65080000D02*
X70555000Y-65080000D01*
X75755000Y-65080000D02*
X75755000Y-62420000D01*
X76980000Y-54120000D02*
X76980000Y-51460000D01*
X75710000Y-54120000D02*
X74380000Y-54120000D01*
X76980000Y-51460000D02*
X79580000Y-51460000D01*
X79580000Y-54120000D02*
X79580000Y-51460000D01*
X76980000Y-54120000D02*
X79580000Y-54120000D01*
X74380000Y-54120000D02*
X74380000Y-52790000D01*
X91830000Y-34430000D02*
X93160000Y-34430000D01*
X91830000Y-35760000D02*
X91830000Y-34430000D01*
X102110000Y-39630000D02*
X102110000Y-34430000D01*
X94430000Y-37030000D02*
X94430000Y-34430000D01*
X94430000Y-34430000D02*
X102110000Y-34430000D01*
X91830000Y-39630000D02*
X91830000Y-37030000D01*
X91830000Y-39630000D02*
X102110000Y-39630000D01*
X91830000Y-37030000D02*
X94430000Y-37030000D01*
X74425000Y-44790000D02*
X74425000Y-42130000D01*
X71825000Y-44790000D02*
X71825000Y-43460000D01*
X79565000Y-44790000D02*
X79565000Y-42130000D01*
X73155000Y-44790000D02*
X71825000Y-44790000D01*
X74425000Y-44790000D02*
X79565000Y-44790000D01*
X74425000Y-42130000D02*
X79565000Y-42130000D01*
X82080000Y-58570000D02*
X82080000Y-58640000D01*
X83450000Y-57200000D02*
G75*
G03*
X83450000Y-57200000I-1370000J0D01*
G01*
X44610000Y-66320000D02*
X44610000Y-66390000D01*
X45980000Y-64950000D02*
G75*
G03*
X45980000Y-64950000I-1370000J0D01*
G01*
X74935000Y-25620000D02*
X75005000Y-25620000D01*
X74935000Y-25620000D02*
G75*
G03*
X74935000Y-25620000I-1370000J0D01*
G01*
X61385000Y-76590000D02*
X58975000Y-76590000D01*
X64325000Y-76590000D02*
G75*
G03*
X64325000Y-76590000I-1470000J0D01*
G01*
X31200000Y-29140000D02*
X31200000Y-21900000D01*
X33440000Y-29140000D02*
X33440000Y-21900000D01*
X31200000Y-21900000D02*
X33440000Y-21900000D01*
X31200000Y-29140000D02*
X33440000Y-29140000D01*
X43510000Y-76170000D02*
X43510000Y-68930000D01*
X43510000Y-76170000D02*
X45750000Y-76170000D01*
X43510000Y-68930000D02*
X45750000Y-68930000D01*
X45750000Y-76170000D02*
X45750000Y-68930000D01*
X24750000Y-66230000D02*
X27410000Y-66230000D01*
X24750000Y-66230000D02*
X24750000Y-73910000D01*
X24750000Y-73910000D02*
X27410000Y-73910000D01*
X27410000Y-66230000D02*
X27410000Y-73910000D01*
X24750000Y-63630000D02*
X26080000Y-63630000D01*
X24750000Y-64960000D02*
X24750000Y-63630000D01*
X38030000Y-64960000D02*
X38030000Y-63630000D01*
X38030000Y-66230000D02*
X40690000Y-66230000D01*
X38030000Y-73910000D02*
X40690000Y-73910000D01*
X38030000Y-66230000D02*
X38030000Y-73910000D01*
X40690000Y-66230000D02*
X40690000Y-73910000D01*
X38030000Y-63630000D02*
X39360000Y-63630000D01*
X111144000Y-69681000D02*
X107821000Y-69681000D01*
X111577000Y-68361000D02*
X101583000Y-68361000D01*
X110975000Y-70001000D02*
X107821000Y-70001000D01*
X111063000Y-69841000D02*
X107821000Y-69841000D01*
X111334000Y-69241000D02*
X107821000Y-69241000D01*
X110600000Y-70561000D02*
X107821000Y-70561000D01*
X109580000Y-71561000D02*
X103580000Y-71561000D01*
X111454000Y-68881000D02*
X107821000Y-68881000D01*
X111518000Y-68641000D02*
X101642000Y-68641000D01*
X111254000Y-69441000D02*
X107821000Y-69441000D01*
X107179000Y-72521000D02*
X105981000Y-72521000D01*
X109289000Y-71761000D02*
X103871000Y-71761000D01*
X109525000Y-71601000D02*
X103635000Y-71601000D01*
X109881000Y-71321000D02*
X103279000Y-71321000D01*
X105339000Y-70361000D02*
X102414000Y-70361000D01*
X111648000Y-67800000D02*
X101512000Y-67800000D01*
X111554000Y-68481000D02*
X101606000Y-68481000D01*
X105339000Y-71081000D02*
X103019000Y-71081000D01*
X108617000Y-72121000D02*
X104543000Y-72121000D01*
X105339000Y-70721000D02*
X102688000Y-70721000D01*
X105339000Y-69201000D02*
X101812000Y-69201000D01*
X105339000Y-69001000D02*
X101743000Y-69001000D01*
X105339000Y-70521000D02*
X102530000Y-70521000D01*
X110438000Y-70761000D02*
X107821000Y-70761000D01*
X109090000Y-71881000D02*
X104070000Y-71881000D01*
X110016000Y-71201000D02*
X103144000Y-71201000D01*
X105339000Y-69241000D02*
X101826000Y-69241000D01*
X105339000Y-70121000D02*
X102257000Y-70121000D01*
X111377000Y-69121000D02*
X107821000Y-69121000D01*
X105339000Y-68801000D02*
X101683000Y-68801000D01*
X105339000Y-69361000D02*
X101873000Y-69361000D01*
X111657000Y-67640000D02*
X101503000Y-67640000D01*
X105339000Y-70401000D02*
X102442000Y-70401000D01*
X105339000Y-69481000D02*
X101923000Y-69481000D01*
X110774000Y-70321000D02*
X107821000Y-70321000D01*
X105339000Y-70841000D02*
X102791000Y-70841000D01*
X111303000Y-69321000D02*
X107821000Y-69321000D01*
X108210000Y-72281000D02*
X104950000Y-72281000D01*
X110903000Y-70121000D02*
X107821000Y-70121000D01*
X109159000Y-71841000D02*
X104001000Y-71841000D01*
X105339000Y-70001000D02*
X102185000Y-70001000D01*
X110827000Y-70241000D02*
X107821000Y-70241000D01*
X111598000Y-68241000D02*
X101562000Y-68241000D01*
X111318000Y-69281000D02*
X107821000Y-69281000D01*
X111125000Y-69721000D02*
X107821000Y-69721000D01*
X109834000Y-71361000D02*
X103326000Y-71361000D01*
X111620000Y-68080000D02*
X101540000Y-68080000D01*
X110746000Y-70361000D02*
X107821000Y-70361000D01*
X105339000Y-70241000D02*
X102333000Y-70241000D01*
X105339000Y-69321000D02*
X101857000Y-69321000D01*
X105339000Y-70681000D02*
X102655000Y-70681000D01*
X105339000Y-70561000D02*
X102560000Y-70561000D01*
X110927000Y-70081000D02*
X107821000Y-70081000D01*
X105339000Y-69721000D02*
X102035000Y-69721000D01*
X105339000Y-70201000D02*
X102307000Y-70201000D01*
X111020000Y-69921000D02*
X107821000Y-69921000D01*
X109736000Y-71441000D02*
X103424000Y-71441000D01*
X110058000Y-71161000D02*
X107821000Y-71161000D01*
X105339000Y-69761000D02*
X102055000Y-69761000D01*
X107642000Y-72441000D02*
X105518000Y-72441000D01*
X108945000Y-71961000D02*
X104215000Y-71961000D01*
X111508000Y-68681000D02*
X101652000Y-68681000D01*
X111638000Y-67920000D02*
X101522000Y-67920000D01*
X105339000Y-69081000D02*
X101769000Y-69081000D01*
X105339000Y-69961000D02*
X102163000Y-69961000D01*
X111404000Y-69041000D02*
X107821000Y-69041000D01*
X105339000Y-68721000D02*
X101662000Y-68721000D01*
X105339000Y-71041000D02*
X102979000Y-71041000D01*
X111660000Y-67520000D02*
X101500000Y-67520000D01*
X105339000Y-69561000D02*
X101959000Y-69561000D01*
X111348000Y-69201000D02*
X107821000Y-69201000D01*
X111487000Y-68761000D02*
X107821000Y-68761000D01*
X110333000Y-70881000D02*
X107821000Y-70881000D01*
X105339000Y-69641000D02*
X101996000Y-69641000D01*
X109350000Y-71721000D02*
X103810000Y-71721000D01*
X111084000Y-69801000D02*
X107821000Y-69801000D01*
X111287000Y-69361000D02*
X107821000Y-69361000D01*
X109469000Y-71641000D02*
X103691000Y-71641000D01*
X105339000Y-69521000D02*
X101941000Y-69521000D01*
X111604000Y-68201000D02*
X101556000Y-68201000D01*
X105339000Y-70961000D02*
X102901000Y-70961000D01*
X110404000Y-70801000D02*
X107821000Y-70801000D01*
X105339000Y-68921000D02*
X101718000Y-68921000D01*
X111650000Y-67760000D02*
X101510000Y-67760000D01*
X110801000Y-70281000D02*
X107821000Y-70281000D01*
X105339000Y-69921000D02*
X102140000Y-69921000D01*
X109955000Y-62460354D02*
X108955000Y-62460354D01*
X107958000Y-72361000D02*
X105202000Y-72361000D01*
X110505000Y-70681000D02*
X107821000Y-70681000D01*
X105339000Y-70441000D02*
X102470000Y-70441000D01*
X109686000Y-71481000D02*
X103474000Y-71481000D01*
X105339000Y-70281000D02*
X102359000Y-70281000D01*
X111527000Y-68601000D02*
X101633000Y-68601000D01*
X111658000Y-67600000D02*
X101502000Y-67600000D01*
X110296000Y-70921000D02*
X107821000Y-70921000D01*
X111570000Y-68401000D02*
X101590000Y-68401000D01*
X105339000Y-68881000D02*
X101706000Y-68881000D01*
X110630000Y-70521000D02*
X107821000Y-70521000D01*
X110690000Y-70441000D02*
X107821000Y-70441000D01*
X108426000Y-72201000D02*
X104734000Y-72201000D01*
X109410000Y-71681000D02*
X103750000Y-71681000D01*
X105339000Y-71161000D02*
X103102000Y-71161000D01*
X105339000Y-69441000D02*
X101906000Y-69441000D01*
X109019000Y-71921000D02*
X104141000Y-71921000D01*
X109972000Y-71241000D02*
X103188000Y-71241000D01*
X108090000Y-72321000D02*
X105070000Y-72321000D01*
X111630000Y-68000000D02*
X101530000Y-68000000D01*
X111634000Y-67960000D02*
X101526000Y-67960000D01*
X105339000Y-70481000D02*
X102500000Y-70481000D01*
X105339000Y-69881000D02*
X102118000Y-69881000D01*
X105339000Y-69601000D02*
X101977000Y-69601000D01*
X111477000Y-68801000D02*
X107821000Y-68801000D01*
X110537000Y-70641000D02*
X107821000Y-70641000D01*
X111219000Y-69521000D02*
X107821000Y-69521000D01*
X111391000Y-69081000D02*
X107821000Y-69081000D01*
X105339000Y-70881000D02*
X102827000Y-70881000D01*
X111660000Y-67480000D02*
X101500000Y-67480000D01*
X110181000Y-71041000D02*
X107821000Y-71041000D01*
X111536000Y-68561000D02*
X101624000Y-68561000D01*
X111363000Y-69161000D02*
X107821000Y-69161000D01*
X108869000Y-72001000D02*
X104291000Y-72001000D01*
X109927000Y-71281000D02*
X103233000Y-71281000D01*
X111610000Y-68161000D02*
X101550000Y-68161000D01*
X105339000Y-70161000D02*
X102282000Y-70161000D01*
X105339000Y-69281000D02*
X101842000Y-69281000D01*
X110997000Y-69961000D02*
X107821000Y-69961000D01*
X105339000Y-69681000D02*
X102016000Y-69681000D01*
X108322000Y-72241000D02*
X104838000Y-72241000D01*
X111655000Y-67680000D02*
X101505000Y-67680000D01*
X109786000Y-71401000D02*
X103374000Y-71401000D01*
X111042000Y-69881000D02*
X107821000Y-69881000D01*
X108789000Y-72041000D02*
X104371000Y-72041000D01*
X111584000Y-68321000D02*
X101576000Y-68321000D01*
X110369000Y-70841000D02*
X107821000Y-70841000D01*
X111660000Y-67440000D02*
X101500000Y-67440000D01*
X105339000Y-70921000D02*
X102864000Y-70921000D01*
X110853000Y-70201000D02*
X107821000Y-70201000D01*
X105339000Y-70081000D02*
X102233000Y-70081000D01*
X108524000Y-72161000D02*
X104636000Y-72161000D01*
X105339000Y-69161000D02*
X101797000Y-69161000D01*
X111562000Y-68441000D02*
X101598000Y-68441000D01*
X105339000Y-68761000D02*
X101673000Y-68761000D01*
X105339000Y-68961000D02*
X101730000Y-68961000D01*
X105339000Y-70601000D02*
X102591000Y-70601000D01*
X105339000Y-70801000D02*
X102756000Y-70801000D01*
X111625000Y-68040000D02*
X101535000Y-68040000D01*
X109225000Y-71801000D02*
X103935000Y-71801000D01*
X105339000Y-70761000D02*
X102722000Y-70761000D01*
X110569000Y-70601000D02*
X107821000Y-70601000D01*
X111465000Y-68841000D02*
X107821000Y-68841000D01*
X111105000Y-69761000D02*
X107821000Y-69761000D01*
X105339000Y-69041000D02*
X101756000Y-69041000D01*
X110718000Y-70401000D02*
X107821000Y-70401000D01*
X110472000Y-70721000D02*
X107821000Y-70721000D01*
X105339000Y-71121000D02*
X103060000Y-71121000D01*
X110878000Y-70161000D02*
X107821000Y-70161000D01*
X111659000Y-67560000D02*
X101501000Y-67560000D01*
X107442000Y-72481000D02*
X105718000Y-72481000D01*
X111498000Y-68721000D02*
X107821000Y-68721000D01*
X111442000Y-68921000D02*
X107821000Y-68921000D01*
X105339000Y-70041000D02*
X102209000Y-70041000D01*
X111164000Y-69641000D02*
X107821000Y-69641000D01*
X111653000Y-67720000D02*
X101507000Y-67720000D01*
X107810000Y-72401000D02*
X105350000Y-72401000D01*
X105339000Y-69841000D02*
X102097000Y-69841000D01*
X111237000Y-69481000D02*
X107821000Y-69481000D01*
X105339000Y-70641000D02*
X102623000Y-70641000D01*
X111417000Y-69001000D02*
X107821000Y-69001000D01*
X111642000Y-67880000D02*
X101518000Y-67880000D01*
X110660000Y-70481000D02*
X107821000Y-70481000D01*
X111645000Y-67840000D02*
X101515000Y-67840000D01*
X110220000Y-71001000D02*
X107821000Y-71001000D01*
X110100000Y-71121000D02*
X107821000Y-71121000D01*
X105339000Y-69121000D02*
X101783000Y-69121000D01*
X111430000Y-68961000D02*
X107821000Y-68961000D01*
X109455000Y-61960354D02*
X109455000Y-62960354D01*
X110259000Y-70961000D02*
X107821000Y-70961000D01*
X109634000Y-71521000D02*
X103526000Y-71521000D01*
X108705000Y-72081000D02*
X104455000Y-72081000D01*
X111201000Y-69561000D02*
X107821000Y-69561000D01*
X111615000Y-68120000D02*
X101545000Y-68120000D01*
X111270000Y-69401000D02*
X107821000Y-69401000D01*
X105339000Y-70321000D02*
X102386000Y-70321000D01*
X111545000Y-68521000D02*
X101615000Y-68521000D01*
X105339000Y-69401000D02*
X101890000Y-69401000D01*
X105339000Y-69801000D02*
X102076000Y-69801000D01*
X105339000Y-68841000D02*
X101695000Y-68841000D01*
X111183000Y-69601000D02*
X107821000Y-69601000D01*
X110951000Y-70041000D02*
X107821000Y-70041000D01*
X111591000Y-68281000D02*
X101569000Y-68281000D01*
X110141000Y-71081000D02*
X107821000Y-71081000D01*
X105339000Y-71001000D02*
X102940000Y-71001000D01*
X111700000Y-67440000D02*
G75*
G03*
X111700000Y-67440000I-5120000J0D01*
G01*
X35832000Y-45670000D02*
X38492000Y-45670000D01*
X38492000Y-37990000D02*
X38492000Y-45670000D01*
X35832000Y-35390000D02*
X37162000Y-35390000D01*
X35832000Y-37990000D02*
X38492000Y-37990000D01*
X35832000Y-36720000D02*
X35832000Y-35390000D01*
X35832000Y-37990000D02*
X35832000Y-45670000D01*
X93100000Y-59970000D02*
X93100000Y-62770000D01*
X91100000Y-59970000D02*
X93100000Y-59970000D01*
X91100000Y-62770000D02*
X91100000Y-59970000D01*
X93100000Y-62770000D02*
X91100000Y-62770000D01*
X70555000Y-61420000D02*
X70555000Y-60090000D01*
X73155000Y-61420000D02*
X75755000Y-61420000D01*
X71885000Y-61420000D02*
X70555000Y-61420000D01*
X73155000Y-58760000D02*
X75755000Y-58760000D01*
X75755000Y-61420000D02*
X75755000Y-58760000D01*
X73155000Y-61420000D02*
X73155000Y-58760000D01*
X54290000Y-75260000D02*
X54290000Y-76590000D01*
X51690000Y-77920000D02*
X49090000Y-77920000D01*
X49090000Y-75260000D02*
X49090000Y-77920000D01*
X52960000Y-75260000D02*
X54290000Y-75260000D01*
X51690000Y-75260000D02*
X49090000Y-75260000D01*
X51690000Y-75260000D02*
X51690000Y-77920000D01*
X93248000Y-78354000D02*
X97008000Y-78354000D01*
X97008000Y-71534000D02*
X97008000Y-72794000D01*
X90998000Y-71534000D02*
X97008000Y-71534000D01*
X97008000Y-78354000D02*
X97008000Y-77094000D01*
X79980000Y-18460000D02*
X79980000Y-15800000D01*
X62140000Y-18460000D02*
X62140000Y-15800000D01*
X62140000Y-15800000D02*
X79980000Y-15800000D01*
X60870000Y-18460000D02*
X59540000Y-18460000D01*
X59540000Y-18460000D02*
X59540000Y-17130000D01*
X62140000Y-18460000D02*
X79980000Y-18460000D01*
X38020000Y-59940000D02*
X40680000Y-59940000D01*
X38020000Y-52260000D02*
X40680000Y-52260000D01*
X40680000Y-52260000D02*
X40680000Y-59940000D01*
X38020000Y-52260000D02*
X38020000Y-59940000D01*
X38020000Y-50990000D02*
X38020000Y-49660000D01*
X38020000Y-49660000D02*
X39350000Y-49660000D01*
X41420000Y-35390000D02*
X42750000Y-35390000D01*
X41420000Y-36720000D02*
X41420000Y-35390000D01*
X44080000Y-37990000D02*
X44080000Y-45670000D01*
X41420000Y-37990000D02*
X44080000Y-37990000D01*
X41420000Y-37990000D02*
X41420000Y-45670000D01*
X41420000Y-45670000D02*
X44080000Y-45670000D01*
X29760000Y-50990000D02*
X29760000Y-49660000D01*
X29760000Y-52260000D02*
X29760000Y-59940000D01*
X29760000Y-49660000D02*
X31090000Y-49660000D01*
X32420000Y-52260000D02*
X32420000Y-59940000D01*
X29760000Y-59940000D02*
X32420000Y-59940000D01*
X29760000Y-52260000D02*
X32420000Y-52260000D01*
X61385000Y-71710000D02*
X58975000Y-71710000D01*
X64325000Y-71710000D02*
G75*
G03*
X64325000Y-71710000I-1470000J0D01*
G01*
X43520000Y-23742959D02*
X47702000Y-23742959D01*
X36949000Y-22942959D02*
X40640000Y-22942959D01*
X43520000Y-21702959D02*
X46037000Y-21702959D01*
X38940000Y-21142959D02*
X45220000Y-21142959D01*
X43520000Y-22582959D02*
X46932000Y-22582959D01*
X38440000Y-21462959D02*
X45720000Y-21462959D01*
X43520000Y-21742959D02*
X46087000Y-21742959D01*
X35914000Y-25222959D02*
X48246000Y-25222959D01*
X38616000Y-21342959D02*
X45544000Y-21342959D01*
X38384000Y-21502959D02*
X40640000Y-21502959D01*
X43520000Y-22782959D02*
X47092000Y-22782959D01*
X38872000Y-21182959D02*
X45288000Y-21182959D01*
X36156000Y-24422959D02*
X48004000Y-24422959D01*
X41052000Y-20382959D02*
X43108000Y-20382959D01*
X38025000Y-21782959D02*
X40640000Y-21782959D01*
X35943000Y-25102959D02*
X48217000Y-25102959D01*
X37068000Y-22782959D02*
X40640000Y-22782959D01*
X36187000Y-24342959D02*
X40640000Y-24342959D01*
X36359000Y-23942959D02*
X40640000Y-23942959D01*
X43520000Y-22542959D02*
X46899000Y-22542959D01*
X36219000Y-24262959D02*
X40640000Y-24262959D01*
X37842000Y-21942959D02*
X40640000Y-21942959D01*
X37295000Y-22502959D02*
X40640000Y-22502959D01*
X43520000Y-21502959D02*
X45776000Y-21502959D01*
X35751000Y-26543959D02*
X48409000Y-26543959D01*
X38224000Y-21622959D02*
X40640000Y-21622959D01*
X39670000Y-20782959D02*
X44490000Y-20782959D01*
X36500000Y-23662959D02*
X40640000Y-23662959D01*
X43520000Y-23302959D02*
X47452000Y-23302959D01*
X35975000Y-24982959D02*
X48185000Y-24982959D01*
X43520000Y-24222959D02*
X47925000Y-24222959D01*
X43520000Y-23662959D02*
X47660000Y-23662959D01*
X43520000Y-22502959D02*
X46865000Y-22502959D01*
X35765000Y-26223959D02*
X48395000Y-26223959D01*
X35964000Y-25022959D02*
X48196000Y-25022959D01*
X37978000Y-21822959D02*
X40640000Y-21822959D01*
X43520000Y-22742959D02*
X47062000Y-22742959D01*
X43520000Y-22302959D02*
X46685000Y-22302959D01*
X43520000Y-24102959D02*
X47873000Y-24102959D01*
X37798000Y-21982959D02*
X40640000Y-21982959D01*
X36021000Y-24822959D02*
X48139000Y-24822959D01*
X37330000Y-22462959D02*
X40640000Y-22462959D01*
X37007000Y-22862959D02*
X40640000Y-22862959D01*
X43520000Y-22102959D02*
X46488000Y-22102959D01*
X35924000Y-25182959D02*
X48236000Y-25182959D01*
X35816000Y-25742959D02*
X48344000Y-25742959D01*
X43520000Y-23342959D02*
X47477000Y-23342959D01*
X36978000Y-22902959D02*
X40640000Y-22902959D01*
X43520000Y-24182959D02*
X47908000Y-24182959D01*
X43520000Y-21862959D02*
X46228000Y-21862959D01*
X43520000Y-21622959D02*
X45936000Y-21622959D01*
X43520000Y-21782959D02*
X46135000Y-21782959D01*
X43520000Y-24342959D02*
X47973000Y-24342959D01*
X35879000Y-25382959D02*
X48281000Y-25382959D01*
X37755000Y-22022959D02*
X40640000Y-22022959D01*
X35835000Y-25622959D02*
X48325000Y-25622959D01*
X43520000Y-23702959D02*
X47681000Y-23702959D01*
X36920000Y-22982959D02*
X40640000Y-22982959D01*
X35997000Y-24902959D02*
X48163000Y-24902959D01*
X35986000Y-24942959D02*
X48174000Y-24942959D01*
X36113000Y-24542959D02*
X48047000Y-24542959D01*
X38678000Y-21302959D02*
X45482000Y-21302959D01*
X40096000Y-20622959D02*
X44064000Y-20622959D01*
X43520000Y-22342959D02*
X46722000Y-22342959D01*
X39316000Y-20942959D02*
X44844000Y-20942959D01*
X37475000Y-22302959D02*
X40640000Y-22302959D01*
X39486000Y-20862959D02*
X44674000Y-20862959D01*
X43520000Y-21982959D02*
X46362000Y-21982959D01*
X43520000Y-24302959D02*
X47957000Y-24302959D01*
X43520000Y-21582959D02*
X45884000Y-21582959D01*
X35771000Y-26143959D02*
X48389000Y-26143959D01*
X43520000Y-23862959D02*
X47762000Y-23862959D01*
X36235000Y-24222959D02*
X40640000Y-24222959D01*
X36733000Y-23262959D02*
X40640000Y-23262959D01*
X38330000Y-21542959D02*
X40640000Y-21542959D01*
X43520000Y-22422959D02*
X46794000Y-22422959D01*
X36683000Y-23342959D02*
X40640000Y-23342959D01*
X36378000Y-23902959D02*
X40640000Y-23902959D01*
X41323000Y-20342959D02*
X42837000Y-20342959D01*
X43520000Y-23542959D02*
X47594000Y-23542959D01*
X35750000Y-26623959D02*
X48410000Y-26623959D01*
X35782000Y-26023959D02*
X48378000Y-26023959D01*
X43520000Y-23262959D02*
X47427000Y-23262959D01*
X36033000Y-24782959D02*
X48127000Y-24782959D01*
X43520000Y-22382959D02*
X46758000Y-22382959D01*
X36398000Y-23862959D02*
X40640000Y-23862959D01*
X43520000Y-23942959D02*
X47801000Y-23942959D01*
X36864000Y-23062959D02*
X40640000Y-23062959D01*
X43520000Y-23502959D02*
X47571000Y-23502959D01*
X39871000Y-20702959D02*
X44289000Y-20702959D01*
X43520000Y-22462959D02*
X46830000Y-22462959D01*
X36172000Y-24382959D02*
X47988000Y-24382959D01*
X36892000Y-23022959D02*
X40640000Y-23022959D01*
X35871000Y-25422959D02*
X48289000Y-25422959D01*
X43520000Y-23142959D02*
X47350000Y-23142959D01*
X39768000Y-20742959D02*
X44392000Y-20742959D01*
X36341000Y-23982959D02*
X40640000Y-23982959D01*
X35828000Y-25662959D02*
X48332000Y-25662959D01*
X35774000Y-26103959D02*
X48386000Y-26103959D01*
X37098000Y-22742959D02*
X40640000Y-22742959D01*
X43520000Y-23062959D02*
X47296000Y-23062959D01*
X35888000Y-25342959D02*
X48272000Y-25342959D01*
X37130000Y-22702959D02*
X40640000Y-22702959D01*
X38073000Y-21742959D02*
X40640000Y-21742959D01*
X43520000Y-23222959D02*
X47402000Y-23222959D01*
X35864000Y-25462959D02*
X48296000Y-25462959D01*
X36784000Y-23182959D02*
X40640000Y-23182959D01*
X40352000Y-20542959D02*
X43808000Y-20542959D01*
X43520000Y-24262959D02*
X47941000Y-24262959D01*
X35934000Y-25142959D02*
X48226000Y-25142959D01*
X43520000Y-22822959D02*
X47123000Y-22822959D01*
X36758000Y-23222959D02*
X40640000Y-23222959D01*
X37672000Y-22102959D02*
X40640000Y-22102959D01*
X43520000Y-23982959D02*
X47819000Y-23982959D01*
X43520000Y-22222959D02*
X46608000Y-22222959D01*
X39011000Y-21102959D02*
X45149000Y-21102959D01*
X38741000Y-21262959D02*
X45419000Y-21262959D01*
X36059000Y-24702959D02*
X48101000Y-24702959D01*
X38123000Y-21702959D02*
X40640000Y-21702959D01*
X35778000Y-26063959D02*
X48382000Y-26063959D01*
X35750000Y-26663959D02*
X48410000Y-26663959D01*
X35752000Y-26503959D02*
X48408000Y-26503959D01*
X39399000Y-20902959D02*
X44761000Y-20902959D01*
X43520000Y-21902959D02*
X46274000Y-21902959D01*
X37552000Y-22222959D02*
X40640000Y-22222959D01*
X36458000Y-23742959D02*
X40640000Y-23742959D01*
X36269000Y-24142959D02*
X40640000Y-24142959D01*
X36635000Y-23422959D02*
X40640000Y-23422959D01*
X36522000Y-23622959D02*
X40640000Y-23622959D01*
X43520000Y-22662959D02*
X46998000Y-22662959D01*
X41763000Y-20302959D02*
X42397000Y-20302959D01*
X43520000Y-23622959D02*
X47638000Y-23622959D01*
X37513000Y-22262959D02*
X40640000Y-22262959D01*
X35856000Y-25502959D02*
X48304000Y-25502959D01*
X43520000Y-22262959D02*
X46647000Y-22262959D01*
X35811000Y-25782959D02*
X48349000Y-25782959D01*
X39084000Y-21062959D02*
X45076000Y-21062959D01*
X39576000Y-20822959D02*
X44584000Y-20822959D01*
X35754000Y-26423959D02*
X48406000Y-26423959D01*
X37162000Y-22662959D02*
X40640000Y-22662959D01*
X35756000Y-26383959D02*
X48404000Y-26383959D01*
X39159000Y-21022959D02*
X45001000Y-21022959D01*
X43520000Y-23582959D02*
X47616000Y-23582959D01*
X43520000Y-21542959D02*
X45830000Y-21542959D01*
X40497000Y-20502959D02*
X43663000Y-20502959D01*
X43520000Y-23422959D02*
X47525000Y-23422959D01*
X36141000Y-24462959D02*
X48019000Y-24462959D01*
X38805000Y-21222959D02*
X45355000Y-21222959D01*
X35905000Y-25262959D02*
X48255000Y-25262959D01*
X35800000Y-25862959D02*
X48360000Y-25862959D01*
X35896000Y-25302959D02*
X48264000Y-25302959D01*
X36099000Y-24582959D02*
X48061000Y-24582959D01*
X36479000Y-23702959D02*
X40640000Y-23702959D01*
X43520000Y-22182959D02*
X46569000Y-22182959D01*
X38276000Y-21582959D02*
X40640000Y-21582959D01*
X40219000Y-20582959D02*
X43941000Y-20582959D01*
X36589000Y-23502959D02*
X40640000Y-23502959D01*
X36072000Y-24662959D02*
X48088000Y-24662959D01*
X35750000Y-26583959D02*
X48410000Y-26583959D01*
X43520000Y-21662959D02*
X45987000Y-21662959D01*
X37366000Y-22422959D02*
X40640000Y-22422959D01*
X37886000Y-21902959D02*
X40640000Y-21902959D01*
X36708000Y-23302959D02*
X40640000Y-23302959D01*
X37932000Y-21862959D02*
X40640000Y-21862959D01*
X35768000Y-26183959D02*
X48392000Y-26183959D01*
X36659000Y-23382959D02*
X40640000Y-23382959D01*
X36438000Y-23782959D02*
X40640000Y-23782959D01*
X37037000Y-22822959D02*
X40640000Y-22822959D01*
X43520000Y-21822959D02*
X46182000Y-21822959D01*
X38497000Y-21422959D02*
X45663000Y-21422959D01*
X35762000Y-26263959D02*
X48398000Y-26263959D01*
X37228000Y-22582959D02*
X40640000Y-22582959D01*
X43520000Y-21942959D02*
X46318000Y-21942959D01*
X43520000Y-23022959D02*
X47268000Y-23022959D01*
X35760000Y-26303959D02*
X48400000Y-26303959D01*
X40839000Y-20422959D02*
X43321000Y-20422959D01*
X43520000Y-23382959D02*
X47501000Y-23382959D01*
X38173000Y-21662959D02*
X40640000Y-21662959D01*
X36837000Y-23102959D02*
X40640000Y-23102959D01*
X43520000Y-22062959D02*
X46447000Y-22062959D01*
X43520000Y-23822959D02*
X47742000Y-23822959D01*
X43520000Y-22622959D02*
X46965000Y-22622959D01*
X36046000Y-24742959D02*
X48114000Y-24742959D01*
X43520000Y-22142959D02*
X46529000Y-22142959D01*
X43520000Y-22862959D02*
X47153000Y-22862959D01*
X43520000Y-24062959D02*
X47856000Y-24062959D01*
X37591000Y-22182959D02*
X40640000Y-22182959D01*
X35786000Y-25983959D02*
X48374000Y-25983959D01*
X37713000Y-22062959D02*
X40640000Y-22062959D01*
X36287000Y-24102959D02*
X40640000Y-24102959D01*
X36203000Y-24302959D02*
X40640000Y-24302959D01*
X36544000Y-23582959D02*
X40640000Y-23582959D01*
X35795000Y-25902959D02*
X48365000Y-25902959D01*
X36566000Y-23542959D02*
X40640000Y-23542959D01*
X35954000Y-25062959D02*
X48206000Y-25062959D01*
X43520000Y-23182959D02*
X47376000Y-23182959D01*
X36127000Y-24502959D02*
X48033000Y-24502959D01*
X35753000Y-26463959D02*
X48407000Y-26463959D01*
X43520000Y-23902959D02*
X47782000Y-23902959D01*
X35758000Y-26343959D02*
X48402000Y-26343959D01*
X36810000Y-23142959D02*
X40640000Y-23142959D01*
X36612000Y-23462959D02*
X40640000Y-23462959D01*
X35805000Y-25822959D02*
X48355000Y-25822959D01*
X43520000Y-22022959D02*
X46405000Y-22022959D01*
X35822000Y-25702959D02*
X48338000Y-25702959D01*
X43520000Y-22902959D02*
X47182000Y-22902959D01*
X43520000Y-24022959D02*
X47838000Y-24022959D01*
X36085000Y-24622959D02*
X48075000Y-24622959D01*
X36418000Y-23822959D02*
X40640000Y-23822959D01*
X37880000Y-32856041D02*
X39130000Y-32856041D01*
X37438000Y-22342959D02*
X40640000Y-22342959D01*
X43520000Y-23782959D02*
X47722000Y-23782959D01*
X43520000Y-22702959D02*
X47030000Y-22702959D01*
X43520000Y-22942959D02*
X47211000Y-22942959D01*
X39980000Y-20662959D02*
X44180000Y-20662959D01*
X37261000Y-22542959D02*
X40640000Y-22542959D01*
X36304000Y-24062959D02*
X40640000Y-24062959D01*
X37631000Y-22142959D02*
X40640000Y-22142959D01*
X39236000Y-20982959D02*
X44924000Y-20982959D01*
X43520000Y-23462959D02*
X47548000Y-23462959D01*
X36322000Y-24022959D02*
X40640000Y-24022959D01*
X38505000Y-33481041D02*
X38505000Y-32231041D01*
X35842000Y-25582959D02*
X48318000Y-25582959D01*
X40658000Y-20462959D02*
X43502000Y-20462959D01*
X43520000Y-24142959D02*
X47891000Y-24142959D01*
X43520000Y-23102959D02*
X47323000Y-23102959D01*
X36009000Y-24862959D02*
X48151000Y-24862959D01*
X43520000Y-22982959D02*
X47240000Y-22982959D01*
X35849000Y-25542959D02*
X48311000Y-25542959D01*
X37195000Y-22622959D02*
X40640000Y-22622959D01*
X37402000Y-22382959D02*
X40640000Y-22382959D01*
X38556000Y-21382959D02*
X45604000Y-21382959D01*
X35790000Y-25942959D02*
X48370000Y-25942959D01*
X36252000Y-24182959D02*
X40640000Y-24182959D01*
X48450000Y-26663959D02*
G75*
G03*
X48450000Y-26663959I-6370000J0D01*
G01*
X24754000Y-45670000D02*
X27414000Y-45670000D01*
X24754000Y-37990000D02*
X27414000Y-37990000D01*
X27414000Y-37990000D02*
X27414000Y-45670000D01*
X24754000Y-35390000D02*
X26084000Y-35390000D01*
X24754000Y-37990000D02*
X24754000Y-45670000D01*
X24754000Y-36720000D02*
X24754000Y-35390000D01*
X75685000Y-39360000D02*
X74355000Y-39360000D01*
X76955000Y-39360000D02*
X76955000Y-36700000D01*
X79555000Y-39360000D02*
X79555000Y-36700000D01*
X74355000Y-39360000D02*
X74355000Y-38030000D01*
X76955000Y-36700000D02*
X79555000Y-36700000D01*
X76955000Y-39360000D02*
X79555000Y-39360000D01*
X24740000Y-52260000D02*
X24740000Y-59940000D01*
X24740000Y-50990000D02*
X24740000Y-49660000D01*
X24740000Y-49660000D02*
X26070000Y-49660000D01*
X24740000Y-52260000D02*
X27400000Y-52260000D01*
X24740000Y-59940000D02*
X27400000Y-59940000D01*
X27400000Y-52260000D02*
X27400000Y-59940000D01*
X82070000Y-64825000D02*
X82070000Y-64755000D01*
X83440000Y-66195000D02*
G75*
G03*
X83440000Y-66195000I-1370000J0D01*
G01*
X86630000Y-47860000D02*
X86630000Y-54760000D01*
X86630000Y-54760000D02*
X109950000Y-54760000D01*
X84090000Y-47860000D02*
X86630000Y-47860000D01*
X84090000Y-47860000D02*
X84090000Y-22430000D01*
X107830000Y-20300000D02*
X86220000Y-20300000D01*
X109950000Y-54760000D02*
X109950000Y-22430000D01*
X109950000Y-22430000D02*
G75*
G03*
X107820000Y-20300000I-2130000J0D01*
G01*
X86220000Y-20300000D02*
G75*
G03*
X84090000Y-22430000I2J-2130002D01*
G01*
G36*
X83685000Y-28640000D02*
G01*
X83050000Y-29275000D01*
X83050000Y-28005000D01*
X83685000Y-28640000D01*
G37*
D11*
X83685000Y-28640000D02*
X83050000Y-29275000D01*
X83050000Y-28005000D01*
X83685000Y-28640000D01*
D10*
X34155000Y-80530000D02*
X39295000Y-80530000D01*
X34155000Y-77870000D02*
X39295000Y-77870000D01*
X39295000Y-80530000D02*
X39295000Y-77870000D01*
X31555000Y-80530000D02*
X31555000Y-79200000D01*
X32885000Y-80530000D02*
X31555000Y-80530000D01*
X34155000Y-80530000D02*
X34155000Y-77870000D01*
X79555000Y-35590000D02*
X79555000Y-32930000D01*
X76955000Y-35590000D02*
X79555000Y-35590000D01*
X76955000Y-32930000D02*
X79555000Y-32930000D01*
X75685000Y-35590000D02*
X74355000Y-35590000D01*
X74355000Y-35590000D02*
X74355000Y-34260000D01*
X76955000Y-35590000D02*
X76955000Y-32930000D01*
X96870000Y-64920000D02*
X96800000Y-64920000D01*
X99610000Y-64920000D02*
G75*
G03*
X99610000Y-64920000I-1370000J0D01*
G01*
X73160000Y-48540000D02*
X71830000Y-48540000D01*
X74430000Y-45880000D02*
X79570000Y-45880000D01*
X74430000Y-48540000D02*
X79570000Y-48540000D01*
X71830000Y-48540000D02*
X71830000Y-47210000D01*
X79570000Y-48540000D02*
X79570000Y-45880000D01*
X74430000Y-48540000D02*
X74430000Y-45880000D01*
X30244000Y-37990000D02*
X32904000Y-37990000D01*
X30244000Y-36720000D02*
X30244000Y-35390000D01*
X30244000Y-45670000D02*
X32904000Y-45670000D01*
X30244000Y-37990000D02*
X30244000Y-45670000D01*
X32904000Y-37990000D02*
X32904000Y-45670000D01*
X30244000Y-35390000D02*
X31574000Y-35390000D01*
X49260000Y-18460000D02*
X49260000Y-17130000D01*
X51860000Y-18460000D02*
X57000000Y-18460000D01*
X51860000Y-15800000D02*
X57000000Y-15800000D01*
X50590000Y-18460000D02*
X49260000Y-18460000D01*
X57000000Y-18460000D02*
X57000000Y-15800000D01*
X51860000Y-18460000D02*
X51860000Y-15800000D01*
X36725000Y-18460000D02*
X41865000Y-18460000D01*
X34125000Y-18460000D02*
X34125000Y-17130000D01*
X41865000Y-18460000D02*
X41865000Y-15800000D01*
X36725000Y-15800000D02*
X41865000Y-15800000D01*
X35455000Y-18460000D02*
X34125000Y-18460000D01*
X36725000Y-18460000D02*
X36725000Y-15800000D01*
X90000000Y-68820000D02*
X90000000Y-76060000D01*
X90000000Y-76060000D02*
X87760000Y-76060000D01*
X87760000Y-68820000D02*
X87760000Y-76060000D01*
X90000000Y-68820000D02*
X87760000Y-68820000D01*
X32400000Y-66226000D02*
X32400000Y-73906000D01*
X29740000Y-66226000D02*
X32400000Y-66226000D01*
X29740000Y-63626000D02*
X31070000Y-63626000D01*
X29740000Y-66226000D02*
X29740000Y-73906000D01*
X29740000Y-73906000D02*
X32400000Y-73906000D01*
X29740000Y-64956000D02*
X29740000Y-63626000D01*
X44630000Y-52355000D02*
X44630000Y-52425000D01*
X46000000Y-50985000D02*
G75*
G03*
X46000000Y-50985000I-1370000J0D01*
G01*
M02*
