G04 #@! TF.GenerationSoftware,KiCad,Pcbnew,6.0.7-f9a2dced07~116~ubuntu20.04.1*
G04 #@! TF.CreationDate,2022-09-05T17:51:23+02:00*
G04 #@! TF.ProjectId,TaupunktLuefter,54617570-756e-46b7-944c-756566746572,1.5*
G04 #@! TF.SameCoordinates,Original*
G04 #@! TF.FileFunction,Soldermask,Top*
G04 #@! TF.FilePolarity,Negative*
%FSLAX46Y46*%
G04 Gerber Fmt 4.6, Leading zero omitted, Abs format (unit mm)*
G04 Created by KiCad (PCBNEW 6.0.7-f9a2dced07~116~ubuntu20.04.1) date 2022-09-05 17:51:23*
%MOMM*%
%LPD*%
G01*
G04 APERTURE LIST*
G04 Aperture macros list*
%AMRoundRect*
0 Rectangle with rounded corners*
0 $1 Rounding radius*
0 $2 $3 $4 $5 $6 $7 $8 $9 X,Y pos of 4 corners*
0 Add a 4 corners polygon primitive as box body*
4,1,4,$2,$3,$4,$5,$6,$7,$8,$9,$2,$3,0*
0 Add four circle primitives for the rounded corners*
1,1,$1+$1,$2,$3*
1,1,$1+$1,$4,$5*
1,1,$1+$1,$6,$7*
1,1,$1+$1,$8,$9*
0 Add four rect primitives between the rounded corners*
20,1,$1+$1,$2,$3,$4,$5,0*
20,1,$1+$1,$4,$5,$6,$7,0*
20,1,$1+$1,$6,$7,$8,$9,0*
20,1,$1+$1,$8,$9,$2,$3,0*%
G04 Aperture macros list end*
%ADD10R,1.600000X1.600000*%
%ADD11O,1.600000X1.600000*%
%ADD12RoundRect,0.250000X0.845000X-0.620000X0.845000X0.620000X-0.845000X0.620000X-0.845000X-0.620000X0*%
%ADD13O,2.190000X1.740000*%
%ADD14C,1.600000*%
%ADD15R,2.400000X2.400000*%
%ADD16C,2.400000*%
%ADD17R,1.700000X1.700000*%
%ADD18O,1.700000X1.700000*%
%ADD19R,1.800000X1.800000*%
%ADD20O,1.800000X1.800000*%
%ADD21R,2.000000X2.000000*%
%ADD22C,2.000000*%
%ADD23R,1.500000X1.000000*%
%ADD24R,2.000000X1.500000*%
%ADD25R,2.000000X3.800000*%
%ADD26O,2.000000X1.600000*%
G04 APERTURE END LIST*
D10*
X66294000Y-63754000D03*
D11*
X66294000Y-61214000D03*
X66294000Y-58674000D03*
X66294000Y-56134000D03*
X66294000Y-53594000D03*
X66294000Y-51054000D03*
X66294000Y-48514000D03*
X66294000Y-45974000D03*
X66294000Y-43434000D03*
X66294000Y-40894000D03*
X66294000Y-38354000D03*
X66294000Y-35814000D03*
X66294000Y-33274000D03*
X66294000Y-30734000D03*
X66294000Y-28194000D03*
X51054000Y-28194000D03*
X51054000Y-30734000D03*
X51054000Y-33274000D03*
X51054000Y-35814000D03*
X51054000Y-38354000D03*
X51054000Y-40894000D03*
X51054000Y-43434000D03*
X51054000Y-45974000D03*
X51054000Y-48514000D03*
X51054000Y-51054000D03*
X51054000Y-53594000D03*
X51054000Y-56134000D03*
X51054000Y-58674000D03*
X51054000Y-61214000D03*
X51054000Y-63754000D03*
D12*
X25550000Y-28010000D03*
D13*
X25550000Y-25470000D03*
D14*
X44620000Y-61080000D03*
X44620000Y-56080000D03*
D15*
X76790000Y-78120000D03*
D16*
X76790000Y-70620000D03*
D17*
X71885000Y-63750000D03*
D18*
X74425000Y-63750000D03*
D17*
X75710000Y-52790000D03*
D18*
X78250000Y-52790000D03*
D17*
X93160000Y-35760000D03*
D18*
X93160000Y-38300000D03*
X95700000Y-35760000D03*
X95700000Y-38300000D03*
X98240000Y-35760000D03*
X98240000Y-38300000D03*
X100780000Y-35760000D03*
X100780000Y-38300000D03*
D17*
X73155000Y-43460000D03*
D18*
X75695000Y-43460000D03*
X78235000Y-43460000D03*
D14*
X82080000Y-57200000D03*
D11*
X82080000Y-59740000D03*
D14*
X44610000Y-64950000D03*
D11*
X44610000Y-67490000D03*
D14*
X73565000Y-25620000D03*
D11*
X76105000Y-25620000D03*
D19*
X57775000Y-76590000D03*
D20*
X62855000Y-76590000D03*
D14*
X32320000Y-28020000D03*
X32320000Y-23020000D03*
X44630000Y-75050000D03*
X44630000Y-70050000D03*
D17*
X26080000Y-64960000D03*
D18*
X26080000Y-67500000D03*
X26080000Y-70040000D03*
X26080000Y-72580000D03*
D17*
X39360000Y-64960000D03*
D18*
X39360000Y-67500000D03*
X39360000Y-70040000D03*
X39360000Y-72580000D03*
D21*
X106580000Y-64940000D03*
D22*
X106580000Y-69940000D03*
D17*
X37162000Y-36720000D03*
D18*
X37162000Y-39260000D03*
X37162000Y-41800000D03*
X37162000Y-44340000D03*
D23*
X92100000Y-62020000D03*
X92100000Y-60720000D03*
D17*
X71885000Y-60090000D03*
D18*
X74425000Y-60090000D03*
D17*
X52960000Y-76590000D03*
D18*
X50420000Y-76590000D03*
D24*
X91948000Y-72644000D03*
D25*
X98248000Y-74944000D03*
D24*
X91948000Y-74944000D03*
X91948000Y-77244000D03*
D17*
X60870000Y-17130000D03*
D18*
X63410000Y-17130000D03*
X65950000Y-17130000D03*
X68490000Y-17130000D03*
X71030000Y-17130000D03*
X73570000Y-17130000D03*
X76110000Y-17130000D03*
X78650000Y-17130000D03*
D17*
X39350000Y-50990000D03*
D18*
X39350000Y-53530000D03*
X39350000Y-56070000D03*
X39350000Y-58610000D03*
D17*
X42750000Y-36720000D03*
D18*
X42750000Y-39260000D03*
X42750000Y-41800000D03*
X42750000Y-44340000D03*
D17*
X31090000Y-50990000D03*
D18*
X31090000Y-53530000D03*
X31090000Y-56070000D03*
X31090000Y-58610000D03*
D19*
X57775000Y-71710000D03*
D20*
X62855000Y-71710000D03*
D15*
X42080000Y-30413959D03*
D16*
X42080000Y-22913959D03*
D17*
X26084000Y-36720000D03*
D18*
X26084000Y-39260000D03*
X26084000Y-41800000D03*
X26084000Y-44340000D03*
D17*
X75685000Y-38030000D03*
D18*
X78225000Y-38030000D03*
D17*
X26070000Y-50990000D03*
D18*
X26070000Y-53530000D03*
X26070000Y-56070000D03*
X26070000Y-58610000D03*
D14*
X82070000Y-66195000D03*
D11*
X82070000Y-63655000D03*
D21*
X85590000Y-28640000D03*
D26*
X85590000Y-31180000D03*
X85590000Y-33720000D03*
X85590000Y-36260000D03*
X85590000Y-38800000D03*
X85590000Y-41340000D03*
X85590000Y-43880000D03*
X85590000Y-46420000D03*
X108450000Y-46420000D03*
X108450000Y-43880000D03*
X108450000Y-41340000D03*
X108450000Y-38800000D03*
X108450000Y-36260000D03*
X108450000Y-33720000D03*
X108450000Y-31180000D03*
X108450000Y-28640000D03*
D17*
X32885000Y-79200000D03*
D18*
X35425000Y-79200000D03*
X37965000Y-79200000D03*
D17*
X75685000Y-34260000D03*
D18*
X78225000Y-34260000D03*
D14*
X98240000Y-64920000D03*
D11*
X95700000Y-64920000D03*
D17*
X73160000Y-47210000D03*
D18*
X75700000Y-47210000D03*
X78240000Y-47210000D03*
D17*
X31574000Y-36720000D03*
D18*
X31574000Y-39260000D03*
X31574000Y-41800000D03*
X31574000Y-44340000D03*
D17*
X50590000Y-17130000D03*
D18*
X53130000Y-17130000D03*
X55670000Y-17130000D03*
D17*
X35455000Y-17130000D03*
D18*
X37995000Y-17130000D03*
X40535000Y-17130000D03*
D14*
X88880000Y-69940000D03*
X88880000Y-74940000D03*
D17*
X31070000Y-64956000D03*
D18*
X31070000Y-67496000D03*
X31070000Y-70036000D03*
X31070000Y-72576000D03*
D14*
X44630000Y-50985000D03*
D11*
X44630000Y-53525000D03*
M02*
